<svg xmlns="http://www.w3.org/2000/svg" width="24" height="16" viewBox="0 0 24 16">
  <path id="Icon_material-group" data-name="Icon material-group" d="M17.864,14.357a3.34,3.34,0,0,0,3.262-3.429,3.271,3.271,0,1,0-6.535,0A3.349,3.349,0,0,0,17.864,14.357Zm-8.727,0A3.34,3.34,0,0,0,12.4,10.929,3.34,3.34,0,0,0,9.136,7.5a3.349,3.349,0,0,0-3.273,3.429A3.349,3.349,0,0,0,9.136,14.357Zm0,2.286c-2.542,0-7.636,1.337-7.636,4V23.5H16.773V20.643C16.773,17.98,11.678,16.643,9.136,16.643Zm8.727,0c-.316,0-.676.023-1.058.057a4.874,4.874,0,0,1,2.149,3.943V23.5H25.5V20.643C25.5,17.98,20.405,16.643,17.864,16.643Z" transform="translate(-1.5 -7.5)" fill="#54b798"/>
</svg>
