<svg xmlns="http://www.w3.org/2000/svg" width="73.091" height="81.242" viewBox="0 0 73.091 81.242">
  <g id="Group_1" data-name="Group 1" transform="translate(-492.55 -212.506)">
    <path id="Path_12984" data-name="Path 12984" d="M551.372,235l-55.461,6.585a3.771,3.771,0,0,0-3.3,4.452l8.228,45.881a5.024,5.024,0,0,0,4.752,3.976h9.894v11.252l11.276-11.252h21.05a4.343,4.343,0,0,0,4.271-4.033l3.066-53.305A3.275,3.275,0,0,0,551.372,235Z" transform="translate(0 -13.398)" fill="#ffbc00"/>
    <path id="Path_12985" data-name="Path 12985" d="M560.058,228.392,504.6,234.976a3.771,3.771,0,0,0-3.3,4.452l8.227,45.882a5.024,5.024,0,0,0,4.752,3.976h9.893v11.252l11.277-11.252H556.5a4.343,4.343,0,0,0,4.271-4.033l3.066-53.3A3.275,3.275,0,0,0,560.058,228.392Z" transform="translate(-5.18 -9.457)" fill="#fff"/>
    <path id="Path_12986" data-name="Path 12986" d="M565.377,223l-55.461,6.585a3.771,3.771,0,0,0-3.3,4.452l8.228,45.882a5.024,5.024,0,0,0,4.752,3.976h9.894v11.252l11.276-11.252h21.05a4.343,4.343,0,0,0,4.272-4.033l3.066-53.3A3.275,3.275,0,0,0,565.377,223Z" transform="translate(-8.352 -6.24)" fill="#54b798"/>
    <path id="Path_12987" data-name="Path 12987" d="M574.063,216.389,518.6,222.973a3.771,3.771,0,0,0-3.3,4.452l8.227,45.882a5.025,5.025,0,0,0,4.753,3.976h9.893v11.252l11.277-11.252H570.5a4.343,4.343,0,0,0,4.272-4.033l3.066-53.305A3.275,3.275,0,0,0,574.063,216.389Z" transform="translate(-13.532 -2.299)" fill="#fff"/>
    <path id="Path_12988" data-name="Path 12988" d="M575.574,373.585l11.264-11.6-6.894-2.726-9.636,14.816Z" transform="translate(-46.373 -87.52)" fill="#fff"/>
    <path id="Path_12989" data-name="Path 12989" d="M577.346,212.534l-55.461,6.585a3.771,3.771,0,0,0-3.3,4.452l8.228,45.882a5.024,5.024,0,0,0,4.752,3.976h9.894V284.68l11.276-11.252h21.05a4.343,4.343,0,0,0,4.272-4.033l3.066-53.3A3.275,3.275,0,0,0,577.346,212.534Z" transform="translate(-15.49 0)" fill="#f15b29"/>
    <path id="Union_1" data-name="Union 1" d="M21.1,31.253V11.429H34.32v4.955h-7v2.436h6.16V23.5H27.32v2.8h7v4.955Zm-9.156,0-5.768-8.6v8.6H-.036V11.429H6.18v8.344l5.683-8.344h7.028L12.06,20.92l7.28,10.332Zm6.11-26.615V-.15h2.652V4.638c0,.732.288,1.272,1.092,1.272s1.129-.54,1.129-1.272V-.15h2.651V4.638a3.574,3.574,0,0,1-3.839,3.792A3.458,3.458,0,0,1,18.059,4.638Zm8.676,3.708V-.15H29.4V6.33h2.569V8.346Zm-12.492,0V5.034H11.711V8.346H9.047V-.15h2.664V2.91h2.532V-.15h2.664v8.5Zm-9.12,0L2.651,4.662V8.346H-.014V-.15H2.651V3.425L5.087-.15H8.1L5.171,3.918l3.12,4.428Z" transform="translate(518.229 227.8)" fill="#fff" stroke="rgba(0,0,0,0)" stroke-width="1"/>
  </g>
</svg>
