<svg width="20" height="20" viewBox="0 0 6 6" fill="none" xmlns="http://www.w3.org/2000/svg">
<path d="M3 0C4.65687 0 6 1.3432 6 3.00015C6 4.6568 4.65687 6 3 6C1.34313 6 0 4.6568 0 3.00015C0 1.3432 1.34313 0 3 0ZM3 0.449933C2.66281 0.446275 2.32824 0.509534 2.01566 0.636046C1.70308 0.762559 1.4187 0.949813 1.17896 1.18697C0.93923 1.42413 0.748911 1.70648 0.619023 2.01769C0.489134 2.3289 0.422254 2.66277 0.422254 3C0.422254 3.33723 0.489134 3.6711 0.619023 3.98231C0.748911 4.29352 0.93923 4.57587 1.17896 4.81303C1.4187 5.05019 1.70308 5.23744 2.01566 5.36395C2.32824 5.49047 2.66281 5.55372 3 5.55007C3.66947 5.5398 4.30805 5.26663 4.77785 4.78954C5.24765 4.31246 5.51098 3.66974 5.51098 3.00015C5.51098 2.33056 5.24765 1.68784 4.77785 1.21076C4.30805 0.73367 3.66947 0.460502 3 0.450232V0.449933ZM1.93881 3.83493C2.06501 3.9957 2.22614 4.12566 2.41 4.21494C2.59385 4.30422 2.79561 4.35049 3 4.35025C3.20413 4.35048 3.40565 4.30431 3.58933 4.21525C3.773 4.12619 3.93405 3.99655 4.06029 3.83612C4.09728 3.78931 4.15135 3.7591 4.21061 3.75216C4.26987 3.74521 4.32946 3.76209 4.37627 3.79908C4.42309 3.83607 4.45329 3.89015 4.46024 3.94941C4.46719 4.00867 4.45031 4.06827 4.41332 4.11508C4.24497 4.32883 4.03029 4.50155 3.78547 4.62023C3.54064 4.7389 3.27207 4.80043 3 4.80018C2.72758 4.8004 2.45868 4.73868 2.21362 4.61968C1.96857 4.50068 1.75377 4.32752 1.58548 4.11328C1.55015 4.0663 1.53461 4.00734 1.54219 3.94904C1.54978 3.89075 1.57988 3.83773 1.62606 3.80135C1.67224 3.76497 1.73083 3.74811 1.78928 3.75439C1.84773 3.76066 1.90141 3.78957 1.93881 3.83493V3.83493ZM2.10018 2.025C2.15029 2.02358 2.20017 2.03222 2.24688 2.05042C2.29359 2.06862 2.33618 2.096 2.37212 2.13094C2.40806 2.16588 2.43664 2.20768 2.45615 2.25386C2.47566 2.30004 2.48571 2.34966 2.48571 2.39979C2.48571 2.44992 2.47566 2.49954 2.45615 2.54572C2.43664 2.5919 2.40806 2.6337 2.37212 2.66864C2.33618 2.70358 2.29359 2.73096 2.24688 2.74916C2.20017 2.76736 2.15029 2.776 2.10018 2.77458C2.00262 2.77182 1.90998 2.73113 1.84195 2.66114C1.77392 2.59115 1.73586 2.4974 1.73586 2.39979C1.73586 2.30219 1.77392 2.20843 1.84195 2.13844C1.90998 2.06845 2.00262 2.02776 2.10018 2.025ZM3.89982 2.025C3.94993 2.02358 3.99981 2.03222 4.04652 2.05042C4.09323 2.06862 4.13582 2.096 4.17176 2.13094C4.2077 2.16588 4.23628 2.20768 4.25579 2.25386C4.2753 2.30004 4.28535 2.34966 4.28535 2.39979C4.28535 2.44992 4.2753 2.49954 4.25579 2.54572C4.23628 2.5919 4.2077 2.6337 4.17176 2.66864C4.13582 2.70358 4.09323 2.73096 4.04652 2.74916C3.99981 2.76736 3.94993 2.776 3.89982 2.77458C3.80226 2.77182 3.70962 2.73113 3.64159 2.66114C3.57356 2.59115 3.5355 2.4974 3.5355 2.39979C3.5355 2.30219 3.57356 2.20843 3.64159 2.13844C3.70962 2.06845 3.80226 2.02776 3.89982 2.025V2.025Z" fill="#AFBBC6"/>
</svg>
