<?xml version="1.0" encoding="utf-8"?>
<!-- Generator: Adobe Illustrator 26.1.0, SVG Export Plug-In . SVG Version: 6.00 Build 0)  -->
<svg version="1.1" id="Layer_1" xmlns="http://www.w3.org/2000/svg" xmlns:xlink="http://www.w3.org/1999/xlink" x="0px" y="0px"
	 viewBox="0 0 100 100" style="enable-background:new 0 0 100 100;" xml:space="preserve">
<style type="text/css">
	.st0{fill:#65C296;}
	.st1{fill:#FDFEFE;}
</style>
<g>
	<path class="st0" d="M94.2,0.2L5.6,9.3C2,9.7-0.3,12.5,0.3,15.5l13.1,63.6c0.6,3,4,5.5,7.6,5.5h15.8v15.6l18-15.6h33.6
		c3.5,0,6.6-2.5,6.8-5.6l4.9-73.9C100.4,2.1,97.7-0.1,94.2,0.2z"/>
	<path class="st1" d="M80,30.1c-0.1,0.2-0.3,0.3-0.4,0.4c-1,1-2.1,2.1-3.1,3.1c-11,11-22,22-33,33c-0.5,0.5-0.8,0.6-1.3,0
		c-7.1-7.1-14.2-14.3-21.4-21.4c-0.5-0.5-0.5-0.8,0-1.2c2.6-2.6,5.2-5.3,7.8-8c0.4-0.4,0.6-0.4,1,0c4.2,4.2,8.4,8.4,12.6,12.6
		c0.4,0.4,0.6,0.5,1.1,0c2.9-3,6-5.9,8.8-8.9c3.1-3.3,6.3-6.4,9.5-9.6c3-2.9,5.9-5.8,8.9-8.8c0.3-0.3,0.5-0.4,0.8-0.1
		c2.8,2.8,5.5,5.5,8.3,8.3C79.8,29.9,79.9,30,80,30.1z"/>
</g>
</svg>
