<?xml version="1.0" encoding="utf-8"?>
<!-- Generator: Adobe Illustrator 26.1.0, SVG Export Plug-In . SVG Version: 6.00 Build 0)  -->
<svg version="1.1" id="Layer_1" xmlns="http://www.w3.org/2000/svg" xmlns:xlink="http://www.w3.org/1999/xlink" x="0px" y="0px"
	 viewBox="0 0 100 100" style="enable-background:new 0 0 100 100;" xml:space="preserve">
<style type="text/css">
	.st0{fill:none;stroke:#D8D7D4;stroke-miterlimit:10;}
	.st1{fill:#F26531;}
	.st2{fill:#FFFFFF;}
</style>
<circle class="st0" cx="50.2" cy="50" r="41.3"/>
<g>
	<path class="st1" d="M65.8,25.7c0,2.2,0,4.4,0,6.5v20.5h-2.4c0-5.5,0-11,0-16.6c0-1.1-0.5-1.9-1.5-2.2c-0.6-0.2-1.1,0-1.6,0.2
		c-2,0.8-4,1.6-5.9,2.4c-4,1.6-8,3.3-12,4.9c-1,0.4-1.8,1-2.3,2.1c-0.3,0.7-0.4,1.3-0.4,2c0,8.1-0.1,16.2,0,24.3
		c0,2.6-1.1,4.3-3.2,5.3c-4.2,2-8.4,2-12.4-0.4C23,74,22.2,73,21.9,71.7c-0.4-1.5,0-2.9,1.1-4c1.7-1.8,4-2.6,6.4-2.8
		c2.3-0.2,4.6,0,6.8,1c0.3,0.1,0.6,0.2,0.8,0.4c0.1,0.1,0.3,0.2,0.4,0.2c0.2-0.1,0.1-0.3,0.1-0.4v-5.9c0-7.7,0-15.4,0-23.1
		c0-1.8,0.7-3.5,2.9-4.3c7.2-2.8,14.3-5.8,21.5-8.7c0.4-0.2,0.8-0.3,1.2-0.5C64.2,23,65.8,24.1,65.8,25.7z"/>
	<g>
		<path class="st1" d="M60.9,54.1c-4-4-7.9-7.9-11.9-11.9c1-0.5,2.1-0.5,3.1-0.3c2.5,0.5,4.5,1.8,6.3,3.5c1.8,1.7,3.6,3.5,5.3,5.2
			c0.2,0.2,0.3,0.4,0.5,0.6c0.9-0.9,1.7-1.6,2.4-2.4c0.1-0.1,0.1-0.4,0-0.6c-1.2-3.7,0.9-7.3,4.6-8.1c3.4-0.7,6.7,1.5,7.4,5.1
			c0.6,3.2-1.8,6.6-5,7.1c-1.6,0.3-3-0.1-4.3-0.8c-0.9,0.9-1.7,1.7-2.6,2.6c0.8,0.8,1.7,1.7,2.6,2.6c1.4-0.8,3-1,4.7-0.6
			c2.9,0.7,4.8,3.4,4.6,6.5c-0.1,2.7-2.4,5.2-5.2,5.6c-4.7,0.7-8.4-3.6-6.9-8.1c0.1-0.4,0.1-0.6-0.2-0.9c-0.7-0.7-1.4-1.4-2.2-2.2
			c-1.2,1.2-2.3,2.4-3.5,3.5c-1.4,1.3-2.9,2.7-4.4,3.9c-1.4,1.1-3,1.8-4.8,2c-0.8,0.1-1.6-0.1-2.6-0.2C53,62,56.9,58.1,60.9,54.1z
			 M72.5,49.2c1.7,0,3.1-1.4,3.1-3.1c0-1.7-1.4-3.1-3.1-3.1c-1.7,0-3.1,1.4-3.1,3.1C69.4,47.9,70.8,49.2,72.5,49.2z M72.5,65.1
			c1.7,0,3.1-1.4,3.1-3.1c0-1.7-1.5-3.1-3.1-3.1c-1.7,0-3.1,1.4-3.1,3.1C69.4,63.7,70.8,65.1,72.5,65.1z M64.9,54
			c0-0.5-0.4-0.9-0.9-0.9c-0.5,0-0.9,0.4-0.9,0.8c0,0.5,0.4,0.9,0.9,0.9C64.5,54.9,64.9,54.5,64.9,54z"/>
		<path class="st2" d="M72.5,65.1c-1.9,0-3.4-1.5-3.4-3.3c0-1.9,1.5-3.4,3.3-3.4c1.8,0,3.4,1.5,3.4,3.4
			C75.9,63.5,74.4,65.1,72.5,65.1z"/>
	</g>
</g>
</svg>
