<svg id="Group_19540" data-name="Group 19540" xmlns="http://www.w3.org/2000/svg" width="48" height="48" viewBox="0 0 20 20">
  <rect id="Rectangle_2857" data-name="Rectangle 2857" width="20" height="20" fill="none"/>
  <circle id="Ellipse_918" data-name="Ellipse 918" cx="3.125" cy="3.125" r="3.125" transform="translate(6.875 7.813)" fill="none" stroke="#000" stroke-linecap="round" stroke-linejoin="round" stroke-width="1"/>
  <path id="Path_15255" data-name="Path 15255" d="M196,116a4.68,4.68,0,0,1,3.75,1.875" transform="translate(-180.688 -106.937)" fill="none" stroke="#000" stroke-linecap="round" stroke-linejoin="round" stroke-width="1"/>
  <path id="Path_15256" data-name="Path 15256" d="M12,117.875A4.68,4.68,0,0,1,15.747,116" transform="translate(-11.06 -106.937)" fill="none" stroke="#000" stroke-linecap="round" stroke-linejoin="round" stroke-width="1"/>
  <path id="Path_15257" data-name="Path 15257" d="M70.434,182.812a5,5,0,0,1,8.995,0" transform="translate(-64.932 -165.938)" fill="none" stroke="#000" stroke-linecap="round" stroke-linejoin="round" stroke-width="1"/>
  <path id="Path_15258" data-name="Path 15258" d="M30.5,57a2.5,2.5,0,1,1,2.456-2.969" transform="translate(-25.817 -47.935)" fill="none" stroke="#000" stroke-linecap="round" stroke-linejoin="round" stroke-width="1"/>
  <path id="Path_15259" data-name="Path 15259" d="M164.563,54.023a2.5,2.5,0,1,1,2.456,2.969" transform="translate(-151.706 -47.93)" fill="none" stroke="#000" stroke-linecap="round" stroke-linejoin="round" stroke-width="1"/>
</svg>
