<svg xmlns="http://www.w3.org/2000/svg" width="18" height="12" viewBox="0 0 18 12">
  <path id="Icon_awesome-newspaper" data-name="Icon awesome-newspaper" d="M17.25,4.5H2.75A.75.75,0,0,0,2,5.25V5.5H.75A.75.75,0,0,0,0,6.25v8.5A1.75,1.75,0,0,0,1.75,16.5H16.5A1.5,1.5,0,0,0,18,15V5.25A.75.75,0,0,0,17.25,4.5ZM1.75,15a.25.25,0,0,1-.25-.25V7H2v7.75A.25.25,0,0,1,1.75,15Zm7.375-.5H4.375A.375.375,0,0,1,4,14.125v-.25a.375.375,0,0,1,.375-.375h4.75a.375.375,0,0,1,.375.375v.25A.375.375,0,0,1,9.125,14.5Zm6.5,0h-4.75a.375.375,0,0,1-.375-.375v-.25a.375.375,0,0,1,.375-.375h4.75a.375.375,0,0,1,.375.375v.25A.375.375,0,0,1,15.625,14.5Zm-6.5-3H4.375A.375.375,0,0,1,4,11.125v-.25a.375.375,0,0,1,.375-.375h4.75a.375.375,0,0,1,.375.375v.25A.375.375,0,0,1,9.125,11.5Zm6.5,0h-4.75a.375.375,0,0,1-.375-.375v-.25a.375.375,0,0,1,.375-.375h4.75a.375.375,0,0,1,.375.375v.25A.375.375,0,0,1,15.625,11.5Zm0-3H4.375A.375.375,0,0,1,4,8.125V6.875A.375.375,0,0,1,4.375,6.5h11.25A.375.375,0,0,1,16,6.875v1.25A.375.375,0,0,1,15.625,8.5Z" transform="translate(0 -4.5)" fill="#fff"/>
</svg>
