<svg xmlns="http://www.w3.org/2000/svg" width="12" height="16" viewBox="0 0 12 16">
  <path id="Icon_material-cake" data-name="Icon material-cake" d="M10.5,4.364a1.4,1.4,0,0,0,1.333-1.455,1.479,1.479,0,0,0-.193-.749L10.5,0,9.36,2.16a1.479,1.479,0,0,0-.193.749A1.4,1.4,0,0,0,10.5,4.364Zm3.067,7.265-.713-.778-.72.778a2.222,2.222,0,0,1-3.26,0l-.713-.778-.727.778A2.159,2.159,0,0,1,4.5,11.92v3.353A.7.7,0,0,0,5.167,16H15.833a.7.7,0,0,0,.667-.727V11.92a2.159,2.159,0,0,1-2.933-.291ZM14.5,6.545H11.167V5.091H9.833V6.545H6.5a2.094,2.094,0,0,0-2,2.182v1.12a1.372,1.372,0,0,0,1.307,1.425,1.228,1.228,0,0,0,.92-.415L8.153,9.309l1.42,1.549a1.258,1.258,0,0,0,1.847,0l1.427-1.549,1.42,1.549a1.239,1.239,0,0,0,.92.415,1.372,1.372,0,0,0,1.307-1.425V8.727A2.084,2.084,0,0,0,14.5,6.545Z" transform="translate(-4.5)"/>
</svg>
