<svg xmlns="http://www.w3.org/2000/svg" xmlns:xlink="http://www.w3.org/1999/xlink" width="51" height="51" viewBox="0 0 51 51">
  <defs>
    <filter id="Ellipse_1407" x="0" y="0" width="51" height="51" filterUnits="userSpaceOnUse">
      <feOffset dx="1" dy="1" input="SourceAlpha"/>
      <feGaussianBlur stdDeviation="0.5" result="blur"/>
      <feFlood flood-opacity="0.051"/>
      <feComposite operator="in" in2="blur"/>
      <feComposite in="SourceGraphic"/>
    </filter>
  </defs>
  <g id="camera_web_disabled" data-name="camera web disabled" transform="translate(0.5 0.5)">
    <g transform="matrix(1, 0, 0, 1, -0.5, -0.5)" filter="url(#Ellipse_1407)">
      <g id="Ellipse_1407-2" data-name="Ellipse 1407" transform="translate(0.5 0.5)" fill="#fff" stroke="#e4e9f0" stroke-width="1">
        <circle cx="24" cy="24" r="24" stroke="none"/>
        <circle cx="24" cy="24" r="23.5" fill="none"/>
      </g>
    </g>
    <path id="Icon_material-videocam-off" data-name="Icon material-videocam-off" d="M31,9.632l-5.895,5.895V10.368a1.478,1.478,0,0,0-1.474-1.474H14.524L31,25.371ZM4.872,3,3,4.872,7.023,8.895H5.947a1.478,1.478,0,0,0-1.474,1.474V25.105a1.478,1.478,0,0,0,1.474,1.474H23.632a1.428,1.428,0,0,0,.8-.265L29.128,31,31,29.128Z" transform="translate(7 7)" fill="#66b984"/>
  </g>
</svg>
