<svg xmlns="http://www.w3.org/2000/svg" xmlns:xlink="http://www.w3.org/1999/xlink" width="51" height="51" viewBox="0 0 51 51">
  <defs>
    <filter id="Ellipse_1407" x="0" y="0" width="51" height="51" filterUnits="userSpaceOnUse">
      <feOffset dx="1" dy="1" input="SourceAlpha"/>
      <feGaussianBlur stdDeviation="0.5" result="blur"/>
      <feFlood flood-opacity="0.051"/>
      <feComposite operator="in" in2="blur"/>
      <feComposite in="SourceGraphic"/>
    </filter>
  </defs>
  <g id="camera_web" data-name="camera web" transform="translate(0.5 0.5)">
    <g transform="matrix(1, 0, 0, 1, -0.5, -0.5)" filter="url(#Ellipse_1407)">
      <g id="Ellipse_1407-2" data-name="Ellipse 1407" transform="translate(0.5 0.5)" fill="#fff" stroke="#e4e9f0" stroke-width="1">
        <circle cx="24" cy="24" r="24" stroke="none"/>
        <circle cx="24" cy="24" r="23.5" fill="none"/>
      </g>
    </g>
    <path id="Icon_material-videocam" data-name="Icon material-videocam" d="M25.5,15.75V10.5A1.5,1.5,0,0,0,24,9H6a1.5,1.5,0,0,0-1.5,1.5v15A1.5,1.5,0,0,0,6,27H24a1.5,1.5,0,0,0,1.5-1.5V20.25l6,6V9.75Z" transform="translate(6.5 6)" fill="#66b984" stroke="rgba(0,0,0,0)" stroke-miterlimit="10" stroke-width="1"/>
  </g>
</svg>
