<svg xmlns="http://www.w3.org/2000/svg" width="24" height="22" viewBox="0 0 24 22">
  <g id="Icon_material-camera-alt" data-name="Icon material-camera-alt" transform="translate(-3 -3)">
    <path id="Path_21374" data-name="Path 21374" d="M20.88,17.111A3.841,3.841,0,1,1,17.04,13.2,3.876,3.876,0,0,1,20.88,17.111Z" transform="translate(-2.04 -1.889)" fill="#fff"/>
    <path id="Path_21375" data-name="Path 21375" d="M11.4,3,9.2,5.444H5.4A2.43,2.43,0,0,0,3,7.889V22.556A2.43,2.43,0,0,0,5.4,25H24.6A2.43,2.43,0,0,0,27,22.556V7.889a2.43,2.43,0,0,0-2.4-2.444H20.8L18.6,3ZM15,21.333a6.112,6.112,0,1,1,6-6.111A6.059,6.059,0,0,1,15,21.333Z" transform="translate(0 0)" fill="#fff"/>
  </g>
</svg>
