<svg xmlns="http://www.w3.org/2000/svg" width="48" height="48" viewBox="0 0 48 48">
  <g id="Group_21793" data-name="Group 21793" transform="translate(0.136 0.06)">
    <rect id="Rectangle_5671" data-name="Rectangle 5671" width="48" height="48" transform="translate(-0.136 -0.06)" fill="none"/>
    <g id="confidential_icon-01" data-name="confidential icon-01" transform="translate(5.263 2.339)">
      <path id="Path_21351" data-name="Path 21351" d="M56.194,12.681c-.372,13.4-5.706,23.925-16.792,31.365a2.994,2.994,0,0,1-3.7.017Q20.531,33.9,19.077,15.708A57.34,57.34,0,0,1,19.11,9.3c.043-1.289.273-1.469,1.524-1.667a41.051,41.051,0,0,0,9.624-3.1c1.986-.844,3.945-1.761,5.89-2.693A2.935,2.935,0,0,1,38.9,1.833,75.98,75.98,0,0,0,51.8,7.046a26.092,26.092,0,0,0,2.959.622,1.183,1.183,0,0,1,1.159,1.178C56.023,10.188,56.112,11.523,56.194,12.681Zm-35.537.234-.085.012c.2,1.984.3,3.987.631,5.949A34.163,34.163,0,0,0,36.912,42.734a1.033,1.033,0,0,0,1.288-.014c11.658-7.805,16.774-18.83,16.1-32.714-.022-.454-.193-.635-.645-.727-1.124-.231-2.249-.482-3.346-.816A83.428,83.428,0,0,1,38.291,3.492a1.443,1.443,0,0,0-1.445-.022c-1.061.553-2.15,1.052-3.242,1.537A55.988,55.988,0,0,1,21.277,9.341a.758.758,0,0,0-.452.548C20.731,10.895,20.7,11.906,20.657,12.915Z" transform="translate(-18.994 -1.495)" fill="#ED4D29"/>
      <path id="Path_21352" data-name="Path 21352" d="M71.145,36.1c-.222,10.607-4.474,19.087-13.361,25.086-1.1.741-1.428.744-2.537-.014-9.441-6.463-13.658-15.536-13.332-26.86.049-1.653.09-1.639,1.643-1.981a52.976,52.976,0,0,0,10.533-3.914c3.054-1.392,1.812-1.393,4.9.012a52.856,52.856,0,0,0,10.535,3.909c1.512.331,1.526.319,1.613,1.86C71.174,34.822,71.145,35.464,71.145,36.1ZM56.523,40.309h-5.7c-1.143,0-1.578.434-1.58,1.573v8.879c0,1.146.43,1.581,1.563,1.583h11.47c1.1,0,1.536-.439,1.546-1.537V41.861c0-1.1-.442-1.549-1.527-1.552C60.371,40.305,58.448,40.31,56.523,40.309Zm-3.611-.461a20.581,20.581,0,0,1,.026-2.966A3.6,3.6,0,0,1,56.8,33.9a3.649,3.649,0,0,1,3.4,3.651c.01.765,0,1.537,0,2.273h2.247v-2.1a5.721,5.721,0,0,0-3.522-5.545,5.606,5.606,0,0,0-6.36,1.009c-2.053,1.8-2.123,4.187-1.891,6.651Z" transform="translate(-37.989 -22.954)" fill="#ED4D29"/>
      <path id="Path_21353" data-name="Path 21353" d="M120.867,127.668h-1.474c0-.7.027-1.38-.014-2.049a1.3,1.3,0,0,0-.3-.721,1.6,1.6,0,0,1-.055-2.274,1.576,1.576,0,0,1,2.218,0,1.614,1.614,0,0,1-.067,2.274,1.274,1.274,0,0,0-.294.722C120.838,126.28,120.867,126.937,120.867,127.668Z" transform="translate(-101.584 -101.562)" fill="#ED4D29"/>
    </g>
  </g>
</svg>
