<svg id="Group_19437" data-name="Group 19437" xmlns="http://www.w3.org/2000/svg" width="14" height="14" viewBox="0 0 14 14">
  <rect id="Rectangle_2754" data-name="Rectangle 2754" width="14" height="14" fill="none"/>
  <g id="Group_19436" data-name="Group 19436" transform="translate(1.75 3.062)">
    <path id="Path_15141" data-name="Path 15141" d="M42.062,145.088H40.9a1.531,1.531,0,0,0-2.934,0H32.437a.438.438,0,0,0,0,.875H37.97a1.531,1.531,0,0,0,2.934,0h1.158a.438.438,0,0,0,0-.875Z" transform="translate(-31.999 -139.182)"/>
    <path id="Path_15142" data-name="Path 15142" d="M32.437,57.962H34.47a1.531,1.531,0,0,0,2.934,0h4.658a.438.438,0,0,0,0-.875H37.4a1.531,1.531,0,0,0-2.934,0H32.437a.438.438,0,1,0,0,.875Z" transform="translate(-31.999 -55.994)"/>
  </g>
</svg>
