<svg id="Group_21220" data-name="Group 21220" xmlns="http://www.w3.org/2000/svg" width="30" height="30" viewBox="0 0 30 30">
  <rect id="Rectangle_5637" data-name="Rectangle 5637" width="30" height="30" fill="none"/>
  <path id="Path_21321" data-name="Path 21321" d="M36.188,24A12.188,12.188,0,1,0,48.375,36.188,12.187,12.187,0,0,0,36.188,24ZM40.6,39.275A.937.937,0,1,1,39.275,40.6l-3.087-3.087L33.1,40.6a.937.937,0,0,1-1.326-1.326l3.087-3.087L31.775,33.1A.937.937,0,0,1,33.1,31.775l3.087,3.087,3.087-3.087A.937.937,0,1,1,40.6,33.1l-3.087,3.087Z" transform="translate(-21.188 -21.188)" fill="#ed4d29"/>
</svg>
