<svg id="Group_22679" data-name="Group 22679" xmlns="http://www.w3.org/2000/svg" width="20" height="20" viewBox="0 0 20 20">
  <rect id="Rectangle_5610" data-name="Rectangle 5610" width="20" height="20" fill="none"/>
  <path id="file-error-icon" d="M10.313,8.742a3.7,3.7,0,0,1,2.6,1.063,3.585,3.585,0,0,1,0,5.131l-.042.038a3.724,3.724,0,0,1-5.171-.038,3.588,3.588,0,0,1,0-5.131,3.7,3.7,0,0,1,2.606-1.063ZM7.718,1.19V2.883a1.3,1.3,0,0,0,.426.933,1.826,1.826,0,0,0,1.165.351h1.2Zm2.9,3.765H9.3a2.606,2.606,0,0,1-1.679-.539,2.058,2.058,0,0,1-.7-1.476l0-.054V.79H2a1.2,1.2,0,0,0-.843.345,1.163,1.163,0,0,0-.35.83V12.48a1.163,1.163,0,0,0,.351.829A1.2,1.2,0,0,0,2,13.654H5.787a4.544,4.544,0,0,0,.315.79H2a2.008,2.008,0,0,1-1.41-.577A1.945,1.945,0,0,1,0,12.48V1.965A1.944,1.944,0,0,1,.586.578,2.008,2.008,0,0,1,2,0h5.52a.4.4,0,0,1,.32.156l3.473,3.7a.389.389,0,0,1,.106.267V7.863a4.735,4.735,0,0,0-.8-.118Zm-7.294,1.7a.4.4,0,1,1,0-.79H8.1a.4.4,0,1,1,0,.79H3.319Zm0,2.259a.4.4,0,1,1,0-.79H7.844a.4.4,0,0,1,.3.13,4.734,4.734,0,0,0-.97.661H3.319Zm0,2.259a.4.4,0,1,1,0-.79H6.056a4.571,4.571,0,0,0-.295.79Zm7.437,1.893H9.868c-.061-.723-.8-2.678.446-2.678s.5,1.957.443,2.678Zm-.889.506h.889v.775H9.868Z" transform="translate(3 1.873)" fill="#677699" fill-rule="evenodd"/>
</svg>
