<svg xmlns="http://www.w3.org/2000/svg" width="30" height="30" viewBox="0 0 30 30"><defs><style>.a,.b{fill:none;}.b{stroke:#808a99;stroke-linecap:round;stroke-linejoin:round;}</style></defs><rect class="a" width="30" height="30"/><line class="b" x2="18.75" y2="20.625" transform="translate(5.625 4.688)"/><path class="b" d="M95.84,105.34A4.688,4.688,0,0,1,89.534,98.4" transform="translate(-77.687 -86.872)"/><path class="b" d="M22.8,68.595A15.9,15.9,0,0,0,16,75.556s3.75,8.437,13.125,8.437a13.831,13.831,0,0,0,6.328-1.476" transform="translate(-14.125 -60.556)"/><path class="b" d="M119.188,69.248a15.939,15.939,0,0,0,3.679-4.816s-3.75-8.438-13.125-8.438a14.685,14.685,0,0,0-2.424.2" transform="translate(-94.741 -49.432)"/><path class="b" d="M135.527,88.709a4.69,4.69,0,0,1,3.785,4.164" transform="translate(-119.645 -78.313)"/></svg>
