<svg xmlns="http://www.w3.org/2000/svg" width="70.759" height="22.554" viewBox="0 0 70.759 22.554">
  <g id="google" transform="translate(-0.96 -0.173)">
    <path id="Path_21940" data-name="Path 21940" d="M9.833,17.667A8.87,8.87,0,0,1,.96,8.92,8.866,8.866,0,0,1,9.833.173a8.323,8.323,0,0,1,5.993,2.413L14.14,4.273A6.1,6.1,0,0,0,9.833,2.566,6.277,6.277,0,0,0,3.56,8.926a6.277,6.277,0,0,0,6.273,6.36,5.858,5.858,0,0,0,4.413-1.747,4.983,4.983,0,0,0,1.3-3.008H10v-2.4h7.873A7.692,7.692,0,0,1,18,9.626a7.9,7.9,0,0,1-2.067,5.587,8,8,0,0,1-6.1,2.453Z" fill="#4285f4"/>
    <path id="Path_21941" data-name="Path 21941" d="M30.633,12.04a5.633,5.633,0,1,1-11.266,0,5.633,5.633,0,1,1,11.266,0Zm-2.466,0a3.176,3.176,0,1,0-6.334,0,3.176,3.176,0,1,0,6.334,0Z" fill="#ea4335"/>
    <path id="Path_21942" data-name="Path 21942" d="M43.3,12.033a5.633,5.633,0,1,1-11.266,0,5.633,5.633,0,0,1,11.266,0Zm-2.467,0a3.175,3.175,0,1,0-6.333,0,3.175,3.175,0,1,0,6.333,0Z" fill="#fbbc05"/>
    <path id="Path_21943" data-name="Path 21943" d="M55.333,6.747V16.86c0,4.16-2.453,5.867-5.353,5.867A5.366,5.366,0,0,1,44.987,19.4l2.153-.893a3.115,3.115,0,0,0,2.84,2.007c1.853,0,3.007-1.153,3.007-3.307v-.813H52.9a3.845,3.845,0,0,1-2.967,1.28,5.472,5.472,0,0,1-5.267-5.613,5.494,5.494,0,0,1,5.267-5.652A3.906,3.906,0,0,1,52.9,7.669h.087v-.92h2.346ZM53.16,12.06a3.033,3.033,0,1,0-6.014,0,3.029,3.029,0,1,0,6.014,0Z" fill="#4285f4"/>
    <path id="Path_21944" data-name="Path 21944" d="M59.807.78V17.333H57.334V.78Z" fill="#34a853"/>
    <path id="Path_21945" data-name="Path 21945" d="M69.693,13.893l1.92,1.28a5.6,5.6,0,0,1-4.693,2.493,5.509,5.509,0,0,1-5.587-5.633A5.356,5.356,0,0,1,66.646,6.4a5.233,5.233,0,0,1,4.82,3.587l.253.64L64.185,13.74a2.861,2.861,0,0,0,2.733,1.707,3.222,3.222,0,0,0,2.773-1.554Zm-5.906-2.026L68.82,9.774a2.177,2.177,0,0,0-2.093-1.193,3.086,3.086,0,0,0-2.94,3.287Z" fill="#ea4335"/>
  </g>
</svg>
