<svg xmlns="http://www.w3.org/2000/svg" width="48" height="48" viewBox="0 0 48 48">
  <g id="Group_21622" data-name="Group 21622" transform="translate(-11965 6668)">
    <rect id="Rectangle_5768" data-name="Rectangle 5768" width="48" height="48" transform="translate(11965 -6668)" fill="rgba(255,255,255,0)"/>
    <g id="khulke_icons_roundtable-06" data-name="khulke icons roundtable-06" transform="translate(11840.952 -6792)">
      <path id="Path_21339" data-name="Path 21339" d="M139.106,171.613v3.648c-.156,0-.312.02-.455.02h-6.434c-.461,0-.469,0-.469.444v25.313h25.781c0-.128.022-.259.022-.392,0-2.177.008-4.353,0-6.53,0-.334.094-.433.427-.427.969.02,1.938,0,2.906.008.114,0,.227.011.387.02V202.7a1.888,1.888,0,0,1-2.084,2.073H130.125a1.873,1.873,0,0,1-2.031-1.458,2.13,2.13,0,0,1-.045-.478V173.547a1.812,1.812,0,0,1,1.906-1.955c2.969-.016,5.927,0,8.891,0A1.8,1.8,0,0,1,139.106,171.613Z" transform="translate(0 -36.775)" fill="#ffbc00"/>
      <path id="Path_21340" data-name="Path 21340" d="M245.119,128l2.573,2.572-18.858,18.819.072.13h6.452v3.711c-.116,0-.238.016-.359.016H224.414a1.815,1.815,0,0,1-1.953-1.908c-.014-3.558,0-7.116-.011-10.672,0-.262.089-.334.341-.333,1,.012,2.006.017,3.009,0,.3,0,.363.109.361.383-.009,1.889,0,3.777,0,5.664v.4l.1.053Z" transform="translate(-79.645)" fill="#ffbc00"/>
    </g>
  </g>
</svg>
