<svg id="Group_18355" data-name="Group 18355" xmlns="http://www.w3.org/2000/svg" width="71.673" height="68.461" viewBox="0 0 71.673 68.461">
  <path id="Path_12765" data-name="Path 12765" d="M0,0H71.673V68.461H0Z" fill="rgba(0,0,0,0)"/>
  <path id="Path_12766" data-name="Path 12766" d="M61.727,4.215a55.369,55.369,0,0,1-8.959,2.824c-3.348-3.608-8.311-3.808-13.08-2.1A11.256,11.256,0,0,0,31.864,15.6v2.853A28.5,28.5,0,0,1,7.973,7.039s-12.489,21.2,11.945,31.378C14.328,41.974,8.752,44.373,2,44.122c9.879,5.143,20.645,6.912,29.965,4.327,10.691-2.967,19.477-10.62,22.849-22.084A37.82,37.82,0,0,0,56.3,15.659c-.006-.71,4.509-7.907,5.429-11.447Z" transform="translate(3.973 7.224)" fill="#25bcf5"/>
</svg>
