<svg xmlns="http://www.w3.org/2000/svg" width="48" height="48" viewBox="0 0 48 48">
  <g id="Group_21625" data-name="Group 21625" transform="translate(-11773 6668)">
    <rect id="Rectangle_5766" data-name="Rectangle 5766" width="48" height="48" transform="translate(11773 -6668)" fill="rgba(255,255,255,0)"/>
    <g id="khulke_icons_roundtable-03" data-name="khulke icons roundtable-03" transform="translate(11696.23 -6788)">
      <path id="Path_21337" data-name="Path 21337" d="M114.166,130.522A33.583,33.583,0,0,0,100.771,128a33.61,33.61,0,0,0-13.4,2.522,13.908,13.908,0,0,0-4.614,3.161,7.082,7.082,0,0,0-1.987,4.791v3.375a4.311,4.311,0,0,0,4.082,4.491,3.824,3.824,0,0,0,1.074-.157l8.182-2.42a4.445,4.445,0,0,0,3.025-4.334v-1.519a37.407,37.407,0,0,1,7.273,0v1.521a4.445,4.445,0,0,0,3.026,4.334l8.179,2.415a3.813,3.813,0,0,0,3.557-.768,4.642,4.642,0,0,0,1.6-3.561V138.47c0-1.875-.859-5.36-6.605-7.948ZM116.99,142.3a.461.461,0,0,1-.447.1l-8.162-2.425a.553.553,0,0,1-.377-.54v-2.244a3.03,3.03,0,0,0-2.542-3.111,40.463,40.463,0,0,0-9.349,0,3.037,3.037,0,0,0-2.542,3.111v2.244h0a.555.555,0,0,1-.376.54L85,142.393a.475.475,0,0,1-.445-.1.579.579,0,0,1-.2-.445V138.47a3.053,3.053,0,0,1,.936-2.012,10.542,10.542,0,0,1,3.446-2.311,30.2,30.2,0,0,1,12.039-2.229,30.466,30.466,0,0,1,12.04,2.229c2.739,1.231,4.381,2.846,4.381,4.314v3.393a.557.557,0,0,1-.2.441Z" transform="translate(0)" fill="#ff4b5c"/>
      <path id="Path_21338" data-name="Path 21338" d="M198.407,245.85v10.441l-3.086-2.881L193,256.4l7.2,6.72,7.2-6.72-2.32-2.989-3.086,2.881V245.85Z" transform="translate(-99.429 -103.119)" fill="#ff4b5c"/>
    </g>
  </g>
</svg>
