<svg xmlns="http://www.w3.org/2000/svg" width="48" height="48" viewBox="0 0 48 48">
  <g id="Group_21627" data-name="Group 21627" transform="translate(-11645 6668)">
    <rect id="Rectangle_5764" data-name="Rectangle 5764" width="48" height="48" transform="translate(11645 -6668)" fill="rgba(255,255,255,0)"/>
    <path id="khulke_icons_roundtable-01" data-name="khulke icons roundtable-01" d="M175.1,132.445H153.767v31.109H175.1v-2.222a2.135,2.135,0,1,1,4.267,0V164a3.922,3.922,0,0,1-3.84,4H153.34a3.922,3.922,0,0,1-3.84-4V132a3.923,3.923,0,0,1,3.84-4h22.186a3.922,3.922,0,0,1,3.84,4v2.667a2.135,2.135,0,1,1-4.267,0Zm-1.187,17.825-13.751-.047a2.227,2.227,0,0,1,.011-4.445l13.787.048v-.048l-2.683-2.794a2.4,2.4,0,0,1,0-3.3,2.181,2.181,0,0,1,3.17,0l6.4,6.666a2.4,2.4,0,0,1,0,3.3l-6.4,6.667a2.181,2.181,0,0,1-3.17,0,2.4,2.4,0,0,1,0-3.3Z" transform="translate(11503.5 -6792)" fill="#f15b29"/>
  </g>
</svg>
