<?xml version="1.0" encoding="utf-8"?>
<!-- Generator: Adobe Illustrator 26.1.0, SVG Export Plug-In . SVG Version: 6.00 Build 0)  -->
<svg version="1.1" id="Layer_1" xmlns="http://www.w3.org/2000/svg" xmlns:xlink="http://www.w3.org/1999/xlink" x="0px" y="0px"
	 viewBox="0 0 100 100" style="enable-background:new 0 0 100 100;" xml:space="preserve">
<style type="text/css">
	.st0{fill:none;stroke:#D8D7D4;stroke-miterlimit:10;}
	.st1{fill:#D8D7D4;}
	.st2{fill:#F26531;}
	.st3{fill:#FFFFFF;}
</style>
<circle class="st0" cx="50" cy="50" r="40.3"/>
<g>
	<path class="st1" d="M34.8,58.1c0-8,0-15.7,0-23.4c9.9,0,19.7,0,29.6,0c0,7.9,0,15.7,0,23.9c-0.5-0.5-1-0.8-1.4-1.2
		c-1.9-1.7-3.8-3.4-5.7-5.1c-1.3-1.1-1.3-1.2-2.5,0.1c-0.8,0.9-1.6,1.8-2.4,2.9c-2.1-2.6-4-4.9-5.8-7.2c-1.2-1.5-1.4-1.5-2.6-0.1
		C40.9,51.3,37.9,54.6,34.8,58.1z M56.9,44.1c0-1.8-1.6-3.3-3.4-3.3c-1.8,0.1-3.2,1.6-3.2,3.4c0.1,1.8,1.5,3.1,3.3,3.1
		C55.5,47.3,57,45.8,56.9,44.1z"/>
	<path class="st2" d="M33.1,77.7c-1.5,0-2.8,0-4.2,0c0-16.2,0-32.5,0-48.8c16.2,0,32.4,0,48.7,0c0,1.3,0,2.6,0,4.2
		c-1.2,0-2.3,0-3.5,0c-13,0-26,0-39,0c-2,0-2,0-2,2c0,13.7,0,27.4,0,41.1C33.1,76.6,33.1,77.1,33.1,77.7z"/>
	<path class="st2" d="M70.2,70.3c-11.8,0-23.6,0-35.4,0c0-1.4,0-2.7,0-4.2c0.5,0,0.9,0,1.4,0c9.4,0,18.7,0,28.1,0
		c1.8,0,1.8,0,1.8-1.8c0-9.4,0-18.7,0-28.1c0-0.4,0-0.9,0-1.4c1.4,0,2.7,0,4.2,0C70.2,46.5,70.2,58.3,70.2,70.3z"/>
	<path class="st1" d="M55.9,53.2c2.9,2.6,5.5,4.9,8.1,7.3c0.3,0.3,0.4,0.9,0.4,1.4c0.1,0.8,0,1.5,0,2.4c-9.9,0-19.8,0-29.7,0
		c0-1.1,0-2.2,0-3.2c0-0.3,0.2-0.7,0.4-0.9c3.2-3.6,6.5-7.1,9.7-10.7c0.1-0.1,0.2-0.1,0.4-0.3c1.4,1.8,2.9,3.5,4.3,5.2
		c0.5,0.7,1.1,1.3,1.6,2c0.6,0.8,1.2,0.8,1.8,0.1C53.9,55.4,54.8,54.4,55.9,53.2z"/>
	<path class="st2" d="M70.2,27.1c-1.5,0-2.7,0-4.1,0c0-1.6,0-3.2,0-4.8c1.4,0,2.7,0,4.1,0C70.2,23.9,70.2,25.5,70.2,27.1z"/>
	<path class="st2" d="M27.1,70.3c-0.5,0-0.9,0-1.3,0c-1.1,0-2.3,0-3.5,0c0-1.4,0-2.8,0-4.2c1.6,0,3.2,0,4.8,0
		C27.1,67.5,27.1,68.8,27.1,70.3z"/>
	<path class="st3" d="M56.9,44.1c0,1.8-1.4,3.2-3.2,3.3c-1.8,0-3.3-1.3-3.3-3.1c-0.1-1.9,1.3-3.4,3.2-3.4
		C55.4,40.7,56.9,42.2,56.9,44.1z"/>
</g>
</svg>
