<svg xmlns="http://www.w3.org/2000/svg" width="28" height="16.333" viewBox="0 0 28 16.333">
  <path id="Subtraction_1" data-name="Subtraction 1" d="M14.975,16H3.193A3.241,3.241,0,0,1,0,12.72V2.946A3.238,3.238,0,0,1,3.187-.334H14.969a3.238,3.238,0,0,1,3.187,3.28v9.768a3.294,3.294,0,0,1-.964,2.354A3.115,3.115,0,0,1,14.975,16Zm-2.4-12.8a.506.506,0,0,0-.061,0L5.43,4.051a.484.484,0,0,0-.421.571L6.06,10.509a.64.64,0,0,0,.607.51H7.931v1.444L9.372,11.02h2.689a.555.555,0,0,0,.546-.517L13,3.663a.439.439,0,0,0-.114-.332A.419.419,0,0,0,12.577,3.2ZM27.466,13.925h-1.29a1.087,1.087,0,0,1-.576-.172l-5.364-3.484a.548.548,0,0,1-.248-.459V4.961a.548.548,0,0,1,.248-.459L25.6,1.018a1.045,1.045,0,0,1,.576-.172h1.29A.538.538,0,0,1,28,1.388v12A.538.538,0,0,1,27.466,13.925Z" transform="translate(0 0.334)" fill="#63779c"/>
</svg>
