<svg id="Component_85_1" data-name="Component 85 – 1" xmlns="http://www.w3.org/2000/svg" width="48" height="48" viewBox="0 0 48 48">
  <rect id="Rectangle_5671" data-name="Rectangle 5671" width="48" height="48" fill="none"/>
  <g id="Icon_feather-mic-off" data-name="Icon feather-mic-off" transform="translate(2.5 2.502)">
    <path id="Path_21648" data-name="Path 21648" d="M1.5,1.5l40,39.994" transform="translate(0 0.001)" fill="none" stroke="#fff" stroke-linecap="round" stroke-linejoin="round" stroke-width="3"/>
    <path id="Path_21649" data-name="Path 21649" d="M13.5,16.044V21.5a5.455,5.455,0,0,0,9.309,3.854m1.6-8.69V6.955a5.455,5.455,0,0,0-10.8-1.091" transform="translate(2.545 0)" fill="none" stroke="#fff" stroke-linecap="round" stroke-linejoin="round" stroke-width="3"/>
    <path id="Path_21650" data-name="Path 21650" d="M29.318,27.635a12.728,12.728,0,0,1-21.818-9V15m25.455,0v3.636a12.724,12.724,0,0,1-.2,2.236" transform="translate(1.273 2.862)" fill="none" stroke="#fff" stroke-linecap="round" stroke-linejoin="round" stroke-width="3"/>
    <path id="Path_21651" data-name="Path 21651" d="M18,28.5v7.272" transform="translate(3.5 5.724)" fill="none" stroke="#fff" stroke-linecap="round" stroke-linejoin="round" stroke-width="3"/>
    <path id="Path_21652" data-name="Path 21652" d="M12,34.5H26.545" transform="translate(2.227 6.995)" fill="none" stroke="#fff" stroke-linecap="round" stroke-linejoin="round" stroke-width="3"/>
  </g>
</svg>
