<svg xmlns="http://www.w3.org/2000/svg" version="1.0" width="1110.667" height="1364" viewBox="0 0 833 1023"><g style="fill:red"><path d="M91.5 1.1C67.9 4.5 45.2 16.4 28.9 33.7 16.3 47.1 8.6 61.3 3.1 80.9L.5 90.5l-.3 415C0 809.5.2 923 1 929.8c4.3 35.5 25.6 65.9 57 81.7 10.5 5.2 22 9 32.5 10.5 5.9.8 94.4 1 331 .8l323-.3 7.5-2.2c10-2.8 17.1-5.7 25-10 28.8-15.7 49.6-45.2 54-76.8.8-5.8 1-104.3.8-356-.3-337.5-.4-348.2-2.2-354.5-2.7-9.3-9.5-22.5-16.4-31.6-3.3-4.3-11.3-13.1-17.8-19.4-6.6-6.3-34.4-33.5-61.9-60.4-27.5-27-58.3-57.2-68.5-67.2C637.1 17.2 623.9 9 597.5 2.7l-9-2.1L343 .4C207.3.3 94.8.6 91.5 1.1zm497.7 35.4c15.5 2.8 26.6 8.8 41.2 22.4 8.9 8.4 78.3 76.2 132.4 129.6 27.2 26.7 31.8 33.3 34.1 48.5.9 5.6 1.1 94 .9 350.5-.3 327.2-.4 343.3-2.1 349-7.5 24.9-26 43.2-50.7 50.2-6.2 1.7-19.5 1.8-329 1.8H93.5l-7.5-2.3c-22.6-7.1-40.5-24.2-47.7-45.6l-2.8-8.1-.3-418c-.3-469.6-1-424.6 7.5-441.7C50.8 56.6 66.2 43.7 85 37.3c5.3-1.7 15.5-1.8 244.5-2.3 131.5-.3 241.9-.4 245.5-.2s10 1 14.2 1.7z"/><path d="M386.7 198.4c-7.7 2.1-12.7 6.3-16.5 13.6-4.4 8.8-5.6 18.4-4.8 38.5 1 27.2 4.4 44.5 14.6 74.7l7.1 20.7-7.2 18.8c-8.6 22.7-20.9 53.6-27.7 69.3-6 14-23.6 53-26.3 58.2-1.8 3.6-3.9 4.8-30.9 18.3-15.9 8-34 17.5-40.2 21.1-43.6 25.8-61.7 49.1-53.1 68.5 10 22.5 43.8 23.2 72.8 1.4 18.4-13.8 41.7-41.2 61.5-72.3 4.7-7.3 11.5-17.7 15.1-23l6.7-9.7 23.8-7.8c30.2-9.7 33.3-10.5 65.4-17.7l26.5-5.9 3.5 3c27.8 23.8 50.6 36.3 79.9 44.1 9.5 2.5 14.3 3.1 26.3 3.5 17 .6 24.2-.4 33.5-4.8 11.5-5.5 17.1-14.8 16-26.7-1.6-18.1-15.3-29.7-41.7-35.6-8.4-1.8-12.8-2-36.5-2-24.7 0-29.1.3-52 3.3l-25 3.2-1.9-2.3c-28.4-34.5-45.1-57.1-57.1-76.8l-5.8-9.5 7.7-30.5c8.6-34.4 11.4-50.3 12.2-70.5 1.6-36.9-9.2-59.2-31.2-65-6.9-1.8-8.3-1.8-14.7-.1zm15.2 14.7c5.8 4.1 7.3 8.3 7.9 21 .6 13-.9 25.9-5.3 47.6-4.1 19.8-11.5 46.8-12.5 45.6-1.3-1.4-9.9-30.5-11.9-40.3-6.7-32.8-6.5-56.8.4-68.5 5.3-9.2 13.5-11.2 21.4-5.4zm8.8 169.2c8.3 13.7 29.1 41.5 45.7 61.2 5.4 6.4 9.6 11.8 9.4 12s-9.1 2.3-19.8 4.5c-25 5.3-41.2 9.5-63 16.4-9.6 3-17.6 5.3-17.8 5.1-.2-.1 1.1-3.1 2.8-6.5 5.1-10 26.7-64.2 32.7-81.8 3-8.9 5.8-16.2 6.2-16.2.3 0 2 2.4 3.8 5.3zm167.1 76.1c8 2 14.9 5.5 18.9 9.8 4 4.2 5.3 7.6 5.3 13.9 0 14-13.2 22.8-29.8 19.9-13.2-2.3-38.9-11.8-57.7-21.3-3.8-1.9-11.9-6.8-18-10.8l-11-7.3 3.5-.7c2.9-.6 27.1-3.6 43.5-5.3 8.8-.9 39.1.3 45.3 1.8zm-266.9 57.8c-3 5.6-16.4 25.4-23.9 35.3-18.1 23.9-33.2 39.6-44.7 46.4-13.2 7.7-21 8.7-27.3 3.4-14.9-12.5-1.2-33.1 38-56.9 9.2-5.6 56.7-30.3 58.3-30.4.4 0 .2 1-.4 2.2z"/><path d="M2490 2246v-786h250l2 308 3 307 175 7c105 4 196 12 228 21 221 63 343 305 287 571-26 124-96 232-182 283-96 56-160 65-475 70l-288 5v-786zm520 573c65-14 102-46 137-117 25-51 28-68 28-153 0-82-4-102-26-145-46-90-113-117-289-118l-115-1-3 273-2 272h109c61 0 133-5 161-11zm640-574v-788l253 6c278 7 349 17 455 67 96 45 207 161 261 271 74 155 108 336 98 524-17 303-142 534-340 629-123 60-173 67-464 73l-263 5v-787zm543 546c70-27 145-97 181-169 49-96 69-210 69-377-1-120-5-166-22-230-31-116-73-196-132-249-70-63-139-87-271-93l-108-6v1155l113-4c85-4 126-10 170-27zm777-546v-786l128 3 127 3 3 343 2 342h490v200h-490v470h610v210h-870v-785z" style="fill:#2b2b2b" transform="matrix(.1 0 0 -.1 0 1023)"/></g></svg>
