<svg id="Component_86_1" data-name="Component 86 – 1" xmlns="http://www.w3.org/2000/svg" width="48" height="48" viewBox="0 0 48 48">
  <rect id="Rectangle_5671" data-name="Rectangle 5671" width="48" height="48" fill="none"/>
  <path id="present_to_all_FILL0_wght400_GRAD0_opsz48" d="M22.55,31.6H25.5V21.9l3.95,4.05L31.6,23.8l-7.65-7.6-7.6,7.6,2.15,2.15,4.05-4.05ZM7,40a2.878,2.878,0,0,1-2.1-.9A2.878,2.878,0,0,1,4,37V11a2.878,2.878,0,0,1,.9-2.1A2.878,2.878,0,0,1,7,8H41a2.878,2.878,0,0,1,2.1.9A2.878,2.878,0,0,1,44,11V37a3.076,3.076,0,0,1-3,3Zm0-3H41V11H7Zm0,0v0Z" transform="translate(0)" fill="#fff"/>
</svg>
