<svg id="Group_22681" data-name="Group 22681" xmlns="http://www.w3.org/2000/svg" width="20" height="20" viewBox="0 0 20 20">
  <rect id="Rectangle_5610" data-name="Rectangle 5610" width="20" height="20" fill="none"/>
  <path id="privacy-policy-icon" d="M12.1,7.915A6.683,6.683,0,0,0,15.983,9.1c.2,3.757-1.268,5.975-3.863,6.9-2.507-.867-3.985-2.995-3.88-6.958A5.764,5.764,0,0,0,12.1,7.915ZM8.644,1.579l2.847,2.526H8.644ZM2.923,7.292H8.677a.358.358,0,0,1,.181.651c-.114.02-.227.036-.341.051H2.927a.351.351,0,0,1,0-.7Zm0,2.18H6.935c.011.24.029.473.051.7H2.927a.351.351,0,0,1,0-.7Zm0,2.18H7.212c.052.241.111.475.177.7H2.927a.351.351,0,0,1,0-.7Zm0-6.539H6.234a.35.35,0,0,1,0,.7H2.927a.35.35,0,0,1,0-.7Zm0-2.027H4.744a.35.35,0,0,1,0,.7H2.927a.35.35,0,0,1,0-.7ZM13.076,4.469a.452.452,0,0,0-.345-.432L8.537.165A.482.482,0,0,0,8.17,0H.852A.831.831,0,0,0,0,.807V14.629a.832.832,0,0,0,.852.807H9.07a6.793,6.793,0,0,1-.7-.9H.951V.9H7.7v3.66a.44.44,0,0,0,.139.32.491.491,0,0,0,.338.133h3.951V6.553q.484.289.952.527ZM12.135,9.2a4.566,4.566,0,0,0,2.645.807c.137,2.562-.866,4.076-2.634,4.706l-.033-.012V9.217l.022-.017Zm-.029-.822a5.921,5.921,0,0,0,3.436,1.048c.173,3.326-1.123,5.289-3.421,6.108-2.226-.767-3.533-2.645-3.436-6.16a5.1,5.1,0,0,0,3.421-1Z" transform="translate(2 2)" fill="#63779d" fill-rule="evenodd"/>
</svg>
