<?xml version="1.0" encoding="utf-8"?>
<!-- Generator: Adobe Illustrator 26.1.0, SVG Export Plug-In . SVG Version: 6.00 Build 0)  -->
<svg version="1.1" id="Layer_1" xmlns="http://www.w3.org/2000/svg" xmlns:xlink="http://www.w3.org/1999/xlink" x="0px" y="0px"
	 viewBox="0 0 100 100" style="enable-background:new 0 0 100 100;" xml:space="preserve">
<style type="text/css">
	.st0{fill:#F26531;}
	.st1{fill:#FDFEFE;}
</style>
<g>
	<path class="st0" d="M94.2,0.2L5.6,9.3C2,9.7-0.3,12.5,0.3,15.5l13.1,63.6c0.6,3,4,5.5,7.6,5.5h15.8v15.6l18-15.6h33.6
		c3.5,0,6.6-2.5,6.8-5.6l4.9-73.9C100.4,2.1,97.7-0.1,94.2,0.2z"/>
	<path id="Icon_metro-cancel_00000129179571301843984630000017166978916723546545_" class="st1" d="M75.1,28.8l-8.6-8.6L52.2,34.6
		L37.9,20.2l-8.6,8.6l14.3,14.3L29.2,57.5l8.6,8.6l14.3-14.3l14.3,14.3l8.6-8.6L60.8,43.2L75.1,28.8z M75.1,28.8l-8.6-8.6L52.2,34.6
		L37.9,20.2l-8.6,8.6l14.3,14.3L29.2,57.5l8.6,8.6l14.3-14.3l14.3,14.3l8.6-8.6L60.8,43.2L75.1,28.8z M75.1,28.8l-8.6-8.6L52.2,34.6
		L37.9,20.2l-8.6,8.6l14.3,14.3L29.2,57.5l8.6,8.6l14.3-14.3l14.3,14.3l8.6-8.6L60.8,43.2L75.1,28.8z"/>
</g>
</svg>
