<svg id="Group_19439" data-name="Group 19439" xmlns="http://www.w3.org/2000/svg" width="20" height="20" viewBox="0 0 20 20">
  <rect id="Rectangle_2768" data-name="Rectangle 2768" width="20" height="20" fill="none"/>
  <path id="Path_15143" data-name="Path 15143" d="M37.274,44.8a7.509,7.509,0,0,1-10.607,0,.625.625,0,0,1,.884-.884,6.25,6.25,0,1,0,0-8.839l-.335.335,1.433,1.433a.625.625,0,0,1-.442,1.067h-3.75a.625.625,0,0,1-.625-.625V33.54A.625.625,0,0,1,24.9,33.1l1.433,1.433.335-.335A7.5,7.5,0,0,1,37.274,44.8Z" transform="translate(-21.971 -29.5)"/>
</svg>
