<svg id="Layer_1" data-name="Layer 1" xmlns="http://www.w3.org/2000/svg" viewBox="0 0 139.59 139.49"><defs><style>.cls-1{fill:#63779c;}</style></defs><title>App logo_Icon-2</title><path class="cls-1" d="M1.82,47.56a1.8,1.8,0,0,1-.6-.1A1.84,1.84,0,0,1,.1,45.13,73.51,73.51,0,0,1,45.18.11a1.82,1.82,0,1,1,1.21,3.43A69.87,69.87,0,0,0,3.54,46.35,1.83,1.83,0,0,1,1.82,47.56Z"/><path class="cls-1" d="M137.77,47.56a1.83,1.83,0,0,1-1.72-1.21A69.89,69.89,0,0,0,93.2,3.54,1.82,1.82,0,1,1,94.41.11a73.47,73.47,0,0,1,45.07,45,1.82,1.82,0,0,1-1.11,2.33A1.8,1.8,0,0,1,137.77,47.56Z"/><path class="cls-1" d="M93.8,139.49a1.82,1.82,0,0,1-.6-3.54,70.81,70.81,0,0,0,42.85-42.8,1.82,1.82,0,0,1,3.43,1.21,73.47,73.47,0,0,1-45.07,45A1.86,1.86,0,0,1,93.8,139.49Z"/><path class="cls-1" d="M45.79,139.49a1.86,1.86,0,0,1-.61-.1,73.47,73.47,0,0,1-45.07-45,1.82,1.82,0,1,1,3.43-1.21A69.85,69.85,0,0,0,46.39,136a1.82,1.82,0,0,1-.6,3.54Z"/><path class="cls-1" d="M69.79,7.85a61.9,61.9,0,1,0,61.9,61.9A61.89,61.89,0,0,0,69.79,7.85ZM99.47,46.41,91.66,90a4.78,4.78,0,0,1-4.52,3.78h-9.4v10.69L67,93.77H47A4.11,4.11,0,0,1,43,89.94L40.06,39.3a3.11,3.11,0,0,1,3.59-3.38l52.69,6.26A3.59,3.59,0,0,1,99.47,46.41Z"/></svg>