<svg xmlns="http://www.w3.org/2000/svg" width="16.667" height="16.369" viewBox="0 0 16.667 16.369">
  <g id="noun-blocked-user-1110456" transform="translate(-146.538 -80.403)">
    <path id="Path_21340" data-name="Path 21340" d="M170.141,83.883a2.98,2.98,0,1,1-2.98-2.98,2.98,2.98,0,0,1,2.98,2.98" transform="translate(-13.78)" fill="none" stroke="#161f3a" stroke-linecap="round" stroke-linejoin="round" stroke-width="1"/>
    <path id="Path_21341" data-name="Path 21341" d="M89.219,268.512l-.048-.313a2.713,2.713,0,0,0-2.512-1.989H80.1a2.714,2.714,0,0,0-2.512,1.989l-.554,3.63h9.734" transform="translate(70 -178.154)" fill="none" stroke="#161f3a" stroke-linecap="round" stroke-linejoin="round" stroke-width="1"/>
    <path id="Path_21342" data-name="Path 21342" d="M328.562,328.04a2.956,2.956,0,1,0-.027-.383,3.022,3.022,0,0,0,.027.383" transform="translate(-171.79 -234.365)" fill="none" stroke="#161f3a" stroke-linecap="round" stroke-linejoin="round" stroke-width="1"/>
    <path id="Path_21343" data-name="Path 21343" d="M368.357,401.884h2.886" transform="translate(-210.075 -308.592)" fill="none" stroke="#161f3a" stroke-linecap="round" stroke-linejoin="round" stroke-width="1"/>
  </g>
</svg>
