<svg id="Group_22242" data-name="Group 22242" xmlns="http://www.w3.org/2000/svg" width="18" height="18" viewBox="0 0 18 18">
  <rect id="Rectangle_5736" data-name="Rectangle 5736" width="18" height="18" fill="none"/>
  <path id="Path_21336" data-name="Path 21336" d="M218.888,77.1a5.063,5.063,0,0,1,0,7.159" transform="translate(-203.497 -71.679)" fill="none" stroke="#161f3a" stroke-linecap="round" stroke-linejoin="round" stroke-width="1"/>
  <line id="Line_1106" data-name="Line 1106" y2="5.625" transform="translate(5.625 6.188)" fill="none" stroke="#161f3a" stroke-linecap="round" stroke-linejoin="round" stroke-width="1"/>
  <path id="Path_21337" data-name="Path 21337" d="M190.6,105.384a2.25,2.25,0,0,1,0,3.182" transform="translate(-177.202 -97.974)" fill="none" stroke="#161f3a" stroke-linecap="round" stroke-linejoin="round" stroke-width="1"/>
  <line id="Line_1107" data-name="Line 1107" x2="11.25" y2="12.375" transform="translate(3.375 2.813)" fill="none" stroke="#161f3a" stroke-linecap="round" stroke-linejoin="round" stroke-width="1"/>
  <path id="Path_21338" data-name="Path 21338" d="M33,87.746v4.895L27.938,88.7H24.563A.562.562,0,0,1,24,88.141v-4.5a.562.562,0,0,1,.563-.562h3.375l.48-.373" transform="translate(-22.313 -76.89)" fill="none" stroke="#161f3a" stroke-linecap="round" stroke-linejoin="round" stroke-width="1"/>
  <path id="Path_21339" data-name="Path 21339" d="M112.156,34.191l2.8-2.179v5.261" transform="translate(-104.27 -29.761)" fill="none" stroke="#161f3a" stroke-linecap="round" stroke-linejoin="round" stroke-width="1"/>
</svg>
