<svg id="Component_71_2" data-name="Component 71 – 2" xmlns="http://www.w3.org/2000/svg" width="40" height="40" viewBox="0 0 40 40">
  <rect id="Rectangle_5671" data-name="Rectangle 5671" width="40" height="40" fill="none"/>
  <path id="Icon_metro-volume-mute2" data-name="Icon metro-volume-mute2" d="M34.571,21.2v2.652H31.742l-3.572-3.348L24.6,23.856H21.771V21.2l3.572-3.348-3.572-3.348V11.856H24.6L28.171,15.2l3.572-3.348h2.828v2.652L31,17.856ZM16.438,31.856a1.1,1.1,0,0,1-.754-.293L7.462,23.856H3.637a1.035,1.035,0,0,1-1.067-1v-10a1.035,1.035,0,0,1,1.067-1H7.462l8.221-7.707a1.119,1.119,0,0,1,1.162-.217,1,1,0,0,1,.658.924v26a1.035,1.035,0,0,1-1.067,1Z" transform="translate(1.429 2.352)" fill="#ed4d29"/>
</svg>
