<svg id="Group_19675" data-name="Group 19675" xmlns="http://www.w3.org/2000/svg" width="30" height="30" viewBox="0 0 30 30">
  <rect id="Rectangle_2921" data-name="Rectangle 2921" width="30" height="30" fill="none"/>
  <path id="Path_15323" data-name="Path 15323" d="M36.7,43.539l5.91,3.745a.991.991,0,0,0,1.469-1.115l-1.708-6.717a1.026,1.026,0,0,1,.333-1.04L48.009,34a1.016,1.016,0,0,0-.558-1.793l-6.922-.449a.987.987,0,0,1-.849-.627l-2.581-6.5a.975.975,0,0,0-1.823,0l-2.581,6.5a.987.987,0,0,1-.849.627l-6.922.449A1.016,1.016,0,0,0,24.366,34l5.3,4.411A1.026,1.026,0,0,1,30,39.451l-1.584,6.23a1.189,1.189,0,0,0,1.763,1.338l5.493-3.48A.963.963,0,0,1,36.7,43.539Z" transform="translate(-21.187 -21.188)" fill="#ffc200"/>
</svg>
