<svg id="Group_22685" data-name="Group 22685" xmlns="http://www.w3.org/2000/svg" width="20" height="20" viewBox="0 0 20 20">
  <rect id="Rectangle_5611" data-name="Rectangle 5611" width="20" height="20" fill="none"/>
  <path id="terms-and-conditions-icon" d="M7.829,14.363l2.68-2.94H7.829v2.94ZM2.816,5.982v-2.6H2v-.8H4.485v.8H3.666v2.6Zm6.063.027a1.657,1.657,0,0,1-.5-.069.811.811,0,0,1-.374-.251,1.257,1.257,0,0,1-.241-.521,3.943,3.943,0,0,1-.082-.892,3.554,3.554,0,0,1,.087-.868,1.286,1.286,0,0,1,.25-.521.836.836,0,0,1,.374-.26,1.559,1.559,0,0,1,.482-.07,3.269,3.269,0,0,1,.479.03,2.763,2.763,0,0,1,.354.07,1.544,1.544,0,0,1,.235.082v.69c-.055-.012-.125-.025-.215-.036s-.187-.022-.3-.03-.235-.012-.366-.012a.871.871,0,0,0-.25.033.3.3,0,0,0-.165.13.751.751,0,0,0-.09.281,3.411,3.411,0,0,0-.029.491,3.837,3.837,0,0,0,.022.457.818.818,0,0,0,.079.286.322.322,0,0,0,.165.146.754.754,0,0,0,.278.043c.221,0,.4,0,.54-.012s.25-.017.331-.029v.682a1.493,1.493,0,0,1-.25.077,2.889,2.889,0,0,1-.344.051c-.125.012-.287.018-.468.018Zm-3.133.025a1.273,1.273,0,0,1-.589-.13.922.922,0,0,1-.374-.339A.868.868,0,0,1,4.651,5.1a.753.753,0,0,1,.069-.331.9.9,0,0,1,.191-.26A2.17,2.17,0,0,1,5.2,4.268L5.92,3.8a.411.411,0,0,0,.147-.148A.313.313,0,0,0,6.1,3.516a.209.209,0,0,0-.055-.141.22.22,0,0,0-.175-.06.271.271,0,0,0-.125.027.2.2,0,0,0-.081.079.229.229,0,0,0-.03.12.4.4,0,0,0,.054.2A19.042,19.042,0,0,0,7.582,5.982H6.723L5.429,4.557c-.064-.07-.134-.156-.211-.26a1.661,1.661,0,0,1-.2-.346,1.039,1.039,0,0,1-.084-.421.942.942,0,0,1,.116-.462.9.9,0,0,1,.327-.333.956.956,0,0,1,.49-.13.884.884,0,0,1,.46.116.813.813,0,0,1,.3.306.868.868,0,0,1,.107.424.884.884,0,0,1-.11.432,1.113,1.113,0,0,1-.313.353,5.472,5.472,0,0,0-.791.613.288.288,0,0,0-.055.185.3.3,0,0,0,.042.161.267.267,0,0,0,.125.1.429.429,0,0,0,.181.035.679.679,0,0,0,.317-.081.968.968,0,0,0,.292-.225,1.139,1.139,0,0,0,.293-.781H7.4a2.614,2.614,0,0,1-.057.556,1.7,1.7,0,0,1-.185.491,1.228,1.228,0,0,1-.336.375l-.125.064L6.57,5.8a1.268,1.268,0,0,1-.4.181,1.666,1.666,0,0,1-.409.053ZM2.362,11.719h2.4v.72h-2.4Zm0-1.823H5.767v.72H2.362Zm0-1.823H9.637v.72H2.362V8.065ZM12,11.048a.464.464,0,0,1-.326.449L7.728,15.828A.436.436,0,0,1,7.383,16H.8a.784.784,0,0,1-.568-.245A.855.855,0,0,1,0,15.163V.837A.855.855,0,0,1,.235.245.784.784,0,0,1,.8,0H11.2a.822.822,0,0,1,.8.837Zm-.895-.56V.935H.9V15.069H6.933V10.958a.461.461,0,0,1,.45-.47Z" transform="translate(4 2)" fill="#677699"/>
</svg>
