<svg xmlns="http://www.w3.org/2000/svg" width="26.173" height="25" viewBox="0 0 26.173 25"><defs><style>.a{fill:rgba(0,0,0,0);}.b{fill:#25bcf5;}</style></defs><path class="a" d="M0,0H26.173V25H0Z"/><path class="b" d="M23.811,4.015a20.219,20.219,0,0,1-3.272,1.031c-1.222-1.318-3.035-1.391-4.777-.768a4.11,4.11,0,0,0-2.857,3.893V9.213A10.407,10.407,0,0,1,4.181,5.046S-.38,12.789,8.543,16.5A11.084,11.084,0,0,1,2,18.588a15.238,15.238,0,0,0,10.942,1.58A11.742,11.742,0,0,0,21.286,12.1a13.811,13.811,0,0,0,.542-3.909c0-.259,1.647-2.888,1.983-4.18Z" transform="translate(0.181 0.162)"/></svg>