<?xml version="1.0" encoding="utf-8"?>
<!-- Generator: Adobe Illustrator 26.1.0, SVG Export Plug-In . SVG Version: 6.00 Build 0)  -->
<svg version="1.1" id="Layer_1" xmlns="http://www.w3.org/2000/svg" xmlns:xlink="http://www.w3.org/1999/xlink" x="0px" y="0px"
	 viewBox="0 0 100 100" style="enable-background:new 0 0 100 100;" xml:space="preserve">
<style type="text/css">
	.st0{fill:none;stroke:#D8D7D4;stroke-miterlimit:10;}
	.st1{fill:#F26531;}
	.st2{fill:#FFFFFF;}
</style>
<circle class="st0" cx="49.8" cy="49.8" r="44.6"/>
<g>
	<path class="st1" d="M61.6,43.8c0,0.4,0.1,0.6,0,0.8c-0.5,3.1,0.4,5.7,2.5,7.9c0.2,0.2,0.3,0.5,0.3,0.7c0,7.5,0,15.1,0,22.6
		c0,1-0.3,1.2-1.3,1.2c-8.6,0-17.1,0-25.7,0c-4.5,0-9,0-13.5,0c-1.2,0-1.4-0.2-1.4-1.3c0-13.1,0-26.2,0-39.2c0-1,0.2-1.3,1.3-1.3
		c9.3,0,18.6,0,28,0c0.3,0,0.7,0.2,0.9,0.4c0.7,0.6,1.3,1.2,2,1.9c-0.7,0.7-1.3,1.3-2,1.9c-0.2,0.2-0.6,0.2-0.8,0.2c-6,0-12,0-18,0
		c-0.3,0-0.6,0-0.9,0c0,4.8,0,9.5,0,14.3c7.1,0,14.2,0,21.4,0c0-1.1,0-2.1,0-3.1c0-0.3,0.1-0.6,0.3-0.7c2.1-2,4.3-4,6.4-6
		C61.2,44.1,61.3,44,61.6,43.8z M33,72.8c7.2,0,14.2,0,21.3,0c0-4.8,0-9.5,0-14.2c-7.1,0-14.2,0-21.3,0C33,63.3,33,68,33,72.8z
		 M26.2,53.3c1.2,0,2.3,0,3.4,0c0-1.2,0-2.2,0-3.3c-1.2,0-2.3,0-3.4,0C26.2,51.1,26.2,52.2,26.2,53.3z M26.2,59.2c0,1.1,0,2.2,0,3.4
		c1.1,0,2.2,0,3.4,0c0-1.1,0-2.2,0-3.4C28.5,59.2,27.4,59.2,26.2,59.2z M29.6,68.5c-1.2,0-2.2,0-3.4,0c0,1.1,0,2.2,0,3.4
		c1.1,0,2.2,0,3.4,0C29.6,70.8,29.6,69.7,29.6,68.5z M26.2,44.1c1.2,0,2.3,0,3.4,0c0-1.1,0-2.2,0-3.4c-1.1,0-2.2,0-3.4,0
		C26.2,41.8,26.2,42.9,26.2,44.1z M57.6,53.3c1.2,0,2.3,0,3.4,0c0-1.1,0-2.2,0-3.4c-1.1,0-2.2,0-3.4,0
		C57.6,51.1,57.6,52.2,57.6,53.3z M57.6,62.6c1.2,0,2.3,0,3.4,0c0-1.2,0-2.3,0-3.3c-1.2,0-2.3,0-3.4,0
		C57.6,60.4,57.6,61.5,57.6,62.6z M61,71.9c0-1.2,0-2.3,0-3.4c-1.2,0-2.3,0-3.3,0c0,1.2,0,2.3,0,3.4C58.8,71.9,59.9,71.9,61,71.9z"
		/>
	<path class="st1" d="M57.8,37.7c-4.4-4.4-8.6-8.6-12.8-12.8c1.1-0.6,2.2-0.5,3.4-0.3c2.7,0.5,4.8,2,6.8,3.7c2,1.8,3.8,3.7,5.7,5.6
		c0.2,0.2,0.3,0.4,0.5,0.7c0.9-0.9,1.8-1.8,2.6-2.6c0.1-0.1,0.1-0.4,0-0.6c-1.3-4,1-7.9,5-8.8c3.6-0.8,7.2,1.7,7.9,5.5
		c0.7,3.5-1.9,7.1-5.4,7.7c-1.7,0.3-3.2-0.1-4.6-0.8c-0.9,0.9-1.9,1.9-2.8,2.8c0.9,0.9,1.8,1.8,2.8,2.8c1.5-0.9,3.2-1.1,5-0.7
		c3.1,0.8,5.2,3.6,5,7c-0.1,2.9-2.6,5.6-5.6,6c-5,0.7-9-3.9-7.4-8.7c0.1-0.4,0.1-0.6-0.2-0.9c-0.8-0.7-1.5-1.5-2.4-2.4
		c-1.3,1.3-2.5,2.6-3.8,3.8c-1.5,1.4-3.1,2.9-4.8,4.2c-1.5,1.2-3.3,2-5.2,2.1c-0.9,0.1-1.8-0.1-2.8-0.2C49.3,46.2,53.5,42,57.8,37.7
		z M70.3,32.5c1.9,0,3.4-1.5,3.4-3.3c0-1.8-1.5-3.4-3.3-3.4c-1.8,0-3.3,1.5-3.3,3.4C67,31,68.4,32.5,70.3,32.5z M70.3,49.6
		c1.8,0,3.4-1.5,3.3-3.4c0-1.8-1.6-3.4-3.4-3.3c-1.8,0-3.3,1.5-3.3,3.4C67,48.1,68.5,49.6,70.3,49.6z M62.1,37.6
		c0-0.5-0.4-0.9-0.9-0.9c-0.5,0-1,0.4-1,0.9c0,0.5,0.5,1,1,1C61.7,38.6,62.1,38.1,62.1,37.6z"/>
	<path class="st2" d="M33,72.8c0-4.8,0-9.5,0-14.2c7.1,0,14.2,0,21.3,0c0,4.7,0,9.5,0,14.2C47.2,72.8,40.2,72.8,33,72.8z"/>
	<path class="st2" d="M26.2,53.3c0-1.1,0-2.2,0-3.3c1.1,0,2.2,0,3.4,0c0,1.1,0,2.2,0,3.3C28.5,53.3,27.4,53.3,26.2,53.3z"/>
	<path class="st2" d="M26.2,59.2c1.1,0,2.2,0,3.4,0c0,1.1,0,2.2,0,3.4c-1.1,0-2.2,0-3.4,0C26.2,61.5,26.2,60.4,26.2,59.2z"/>
	<path class="st2" d="M29.6,68.5c0,1.2,0,2.3,0,3.4c-1.1,0-2.2,0-3.4,0c0-1.1,0-2.2,0-3.4C27.4,68.5,28.5,68.5,29.6,68.5z"/>
	<path class="st2" d="M26.2,44.1c0-1.1,0-2.2,0-3.4c1.1,0,2.2,0,3.4,0c0,1.1,0,2.2,0,3.4C28.5,44.1,27.4,44.1,26.2,44.1z"/>
	<path class="st2" d="M57.6,53.3c0-1.1,0-2.2,0-3.4c1.1,0,2.2,0,3.4,0c0,1.1,0,2.2,0,3.4C59.9,53.3,58.8,53.3,57.6,53.3z"/>
	<path class="st2" d="M57.6,62.6c0-1.1,0-2.2,0-3.3c1.1,0,2.2,0,3.4,0c0,1.1,0,2.2,0,3.3C59.9,62.6,58.8,62.6,57.6,62.6z"/>
	<path class="st2" d="M61,71.9c-1.1,0-2.2,0-3.3,0c0-1.1,0-2.2,0-3.4c1.1,0,2.2,0,3.3,0C61,69.6,61,70.7,61,71.9z"/>
	<path class="st2" d="M70.3,32.5c-1.9,0-3.3-1.5-3.3-3.3c0-1.9,1.5-3.4,3.3-3.4c1.8,0,3.4,1.5,3.3,3.4C73.7,31,72.2,32.5,70.3,32.5z
		"/>
	<path class="st2" d="M70.3,49.6c-1.9,0-3.3-1.4-3.4-3.3c0-1.9,1.5-3.4,3.3-3.4c1.8,0,3.4,1.5,3.4,3.3C73.7,48,72.2,49.5,70.3,49.6z
		"/>
	<path class="st2" d="M62.1,37.6c0,0.5-0.4,1-0.9,1c-0.5,0-1-0.5-1-1c0-0.5,0.4-0.9,1-0.9C61.7,36.7,62.1,37.1,62.1,37.6z"/>
</g>
</svg>
