<svg id="MAin_-_Verification_badge_-_Final_Final_Final-02" data-name="MAin - Verification badge - Final Final Final-02" xmlns="http://www.w3.org/2000/svg" width="114.295" height="121.573" viewBox="0 0 114.295 121.573">
  <path id="Path_1" data-name="Path 1" d="M108.821,62.643c-.892-.608-.811-.811,0-1.378a15.319,15.319,0,0,0,6.727-15.724c-.811-4.336-1.337-8.835-1.864-12.887a1.9,1.9,0,0,0-.811-1.459c-4.053-2.837-8.105-5.755-12.158-8.592a16.454,16.454,0,0,0-16.737-1.581c-.851.405-1.013.243-1.094-.567A15.481,15.481,0,0,0,72.348,6.8C68.295,5.055,63.8,3.272,59.541,1.448a2.31,2.31,0,0,0-1.864,0C53.1,3.353,48.518,5.136,44.02,7.081a15.2,15.2,0,0,0-9.848,12.685c-.2,1.459-.2,1.378-1.581.851a16.211,16.211,0,0,0-15.481,1.3c-4.5,2.918-8.754,6.16-13.09,9.24a1.378,1.378,0,0,0-.567,1.094c-.608,4.9-1.3,9.807-1.743,14.752A14.752,14.752,0,0,0,8.64,61.346c.77.567.77.689,0,1.216A15.36,15.36,0,0,0,1.791,78.367c.608,4.377,1.135,8.794,1.662,13.171a1.662,1.662,0,0,0,.811,1.378l11.712,8.348a16.575,16.575,0,0,0,17.183,1.783c.689-.284.892-.284.973.527a15.724,15.724,0,0,0,10.821,13.657c4.336,1.7,8.592,3.526,12.887,5.309l.486.284h.486c4.053-1.824,8.105-3.364,12.158-5.025a21.074,21.074,0,0,0,8.348-5.187,15.157,15.157,0,0,0,3.81-8.835c0-.77,0-1.135,1.094-.689a16.211,16.211,0,0,0,16.494-1.54c4.053-2.8,8.105-5.755,12.158-8.632a1.7,1.7,0,0,0,.811-1.256c.567-4.9,1.256-9.807,1.743-14.752a14.792,14.792,0,0,0-6.606-14.265Z" transform="translate(-1.524 -1.252)" fill="#009ad3"/>
  <path id="Path_2" data-name="Path 2" d="M52.232,16.459v1.013a5.106,5.106,0,0,1-1.54,2.391L26.66,43.936a2.229,2.229,0,0,1-2.269.729,2.107,2.107,0,0,1-1.013-.567L11.462,31.94a3.161,3.161,0,0,1,0-4.661l1.378-1.337a3.161,3.161,0,0,1,4.661,0l7.133,7.173c.284.284.405.243.648,0l19.858-19.7a3.2,3.2,0,0,1,4.944,0l.648.689a4.539,4.539,0,0,1,1.5,2.351Z" transform="translate(25.684 32.329)" fill="#fff"/>
</svg>
