<svg id="MAin_-_Verification_badge_-_Final_Final_Final-06" data-name="MAin - Verification badge - Final Final Final-06" xmlns="http://www.w3.org/2000/svg" width="114.161" height="121.573" viewBox="0 0 114.161 121.573">
  <path id="Path_9" data-name="Path 9" d="M108.8,62.173c-.892-.608-.811-.811,0-1.378a15.319,15.319,0,0,0,6.727-15.724c-.608-4.336-1.135-8.713-1.662-13.09a1.9,1.9,0,0,0-.811-1.459C109,27.685,104.949,24.767,100.9,21.93A16.454,16.454,0,0,0,84.078,20.35c-.851.405-1.013.243-1.094-.567A15.481,15.481,0,0,0,72.407,6.327C68.273,4.585,63.815,2.8,59.762.978a2.31,2.31,0,0,0-1.864,0c-4.579,1.9-9.159,3.688-13.657,5.633A15.2,15.2,0,0,0,34.352,19.3c-.2,1.459-.2,1.378-1.581.851a16.211,16.211,0,0,0-15.481,1.3c-4.5,2.918-8.754,6.16-13.09,9.24a1.378,1.378,0,0,0-.608,1.094c-.608,4.9-1.3,9.807-1.743,14.752A14.752,14.752,0,0,0,8.78,60.876c.77.567.77.689,0,1.216A15.36,15.36,0,0,0,1.931,77.9c.608,4.377,1.135,8.794,1.662,13.171A1.662,1.662,0,0,0,4.4,92.446l11.712,8.348A16.575,16.575,0,0,0,33.3,102.578c.689-.284.892-.284.973.527a15.724,15.724,0,0,0,10.821,13.657c4.336,1.7,8.592,3.526,12.887,5.309l.486.284h.486c4.053-1.824,8.105-3.364,12.158-5.025a21.074,21.074,0,0,0,8.348-5.187,15.157,15.157,0,0,0,3.809-8.835c0-.77,0-1.135,1.094-.689a16.211,16.211,0,0,0,16.656-1.54c4.053-2.8,8.105-5.755,12.158-8.632a1.7,1.7,0,0,0,.811-1.256c.567-4.9,1.256-9.807,1.743-14.752a14.792,14.792,0,0,0-6.93-14.265Z" transform="translate(-1.664 -0.782)" fill="#dc0000"/>
  <path id="Path_10" data-name="Path 10" d="M52.392,15.826v1.013a5.106,5.106,0,0,1-1.54,2.391L26.82,43.3a2.229,2.229,0,0,1-2.269.729,2.107,2.107,0,0,1-1.013-.567L11.622,31.307a3.161,3.161,0,0,1,0-4.661L13,25.309a3.161,3.161,0,0,1,4.661,0l7.133,7.5c.284.284.405.243.648,0L45.219,12.989a3.2,3.2,0,0,1,4.944,0l.648.689a4.539,4.539,0,0,1,1.581,2.148Z" transform="translate(25.605 32.921)" fill="#fff"/>
</svg>
