<svg id="Layer_1" data-name="Layer 1" xmlns="http://www.w3.org/2000/svg" viewBox="0 0 142.3 102.5"><defs><style>.cls-1{fill:#63779c;}</style></defs><title>App logo_Icon-2</title><path class="cls-1" d="M4.77,0,74.63,8.33a4.75,4.75,0,0,1,4.16,5.61L68.42,71.74a6.32,6.32,0,0,1-6,5H50V90.92L35.77,76.75H9.25a5.47,5.47,0,0,1-5.38-5.09L0,4.52A4.12,4.12,0,0,1,4.77,0Z"/><path class="cls-1" d="M138.46,29.41,82.27,36.08a3.82,3.82,0,0,0-3.34,4.51l8.34,46.48a5.08,5.08,0,0,0,4.81,4h10v11.4l11.42-11.4h21.33A4.4,4.4,0,0,0,139.19,87l3.1-54A3.31,3.31,0,0,0,138.46,29.41Z"/></svg>