<svg xmlns="http://www.w3.org/2000/svg" width="111.995" height="124.485" viewBox="0 0 111.995 124.485"><defs><style>.a{fill:#ffbc00;}.b,.e{fill:#fff;}.c{fill:#54b798;}.d{fill:#f15b29;}.e{stroke:rgba(0,0,0,0);stroke-miterlimit:10;}</style></defs><g transform="translate(-492.55 -212.506)"><path class="a" d="M582.681,235.015,497.7,245.1a5.778,5.778,0,0,0-5.053,6.822l12.607,70.3a7.7,7.7,0,0,0,7.281,6.093h15.16v17.241l17.278-17.241h32.255a6.654,6.654,0,0,0,6.544-6.18l4.7-81.678A5.017,5.017,0,0,0,582.681,235.015Z" transform="translate(0 -8.572)"/><path class="b" d="M591.367,228.406,506.387,238.5a5.778,5.778,0,0,0-5.054,6.822l12.607,70.3a7.7,7.7,0,0,0,7.282,6.093H536.38v17.241l17.279-17.241h32.254a6.655,6.655,0,0,0,6.545-6.18l4.7-81.677A5.017,5.017,0,0,0,591.367,228.406Z" transform="translate(-3.314 -6.05)"/><path class="c" d="M596.685,223.012,511.7,233.1a5.778,5.778,0,0,0-5.054,6.822l12.607,70.3a7.7,7.7,0,0,0,7.282,6.092H541.7v17.241l17.278-17.241h32.254a6.655,6.655,0,0,0,6.546-6.18l4.7-81.677A5.018,5.018,0,0,0,596.685,223.012Z" transform="translate(-5.343 -3.992)"/><path class="b" d="M605.372,216.4,520.39,226.493a5.778,5.778,0,0,0-5.053,6.822l12.606,70.3a7.7,7.7,0,0,0,7.282,6.093h15.159v17.241l17.279-17.241h32.254a6.654,6.654,0,0,0,6.546-6.18l4.7-81.678A5.018,5.018,0,0,0,605.372,216.4Z" transform="translate(-8.658 -1.471)"/><path class="b" d="M578.377,381.21l17.259-17.775-10.563-4.176-14.764,22.7Z" transform="translate(-29.668 -55.993)"/><path class="d" d="M608.654,212.549l-84.981,10.09a5.778,5.778,0,0,0-5.054,6.822l12.607,70.3a7.7,7.7,0,0,0,7.282,6.092h15.16V323.1l17.278-17.241H603.2a6.654,6.654,0,0,0,6.546-6.18l4.7-81.677A5.018,5.018,0,0,0,608.654,212.549Z" transform="translate(-9.91 0)"/><path class="e" d="M33.17,48.951V17.8H53.937v7.788h-11v3.829h9.68v7.348h-9.68v4.4h11v7.788Zm-14.388,0L9.717,35.444V48.951H-.05V17.8H9.717V30.911L18.65,17.8H29.694L18.958,32.715,30.4,48.951ZM31.686,7.879V-.5h4.641V7.879c0,1.282.5,2.227,1.911,2.227s1.974-.945,1.974-2.227V-.5h4.641V7.879c0,4.389-3,6.637-6.72,6.637S31.686,12.268,31.686,7.879Zm15.183,6.489V-.5h4.662V10.84h4.494v3.528Zm-21.861,0v-5.8H20.578v5.8H15.916V-.5h4.662V4.855h4.431V-.5H29.67V14.368Zm-15.96,0L4.722,7.921v6.447H.06V-.5H4.722V5.758L8.986-.5h5.27L9.132,6.619l5.46,7.749Z" transform="translate(531.947 236.441)"/></g></svg>