<?xml version="1.0" encoding="iso-8859-1"?>
<!-- Generator: Adobe Illustrator 16.0.0, SVG Export Plug-In . SVG Version: 6.00 Build 0)  -->
<!DOCTYPE svg PUBLIC "-//W3C//DTD SVG 1.1//EN" "http://www.w3.org/Graphics/SVG/1.1/DTD/svg11.dtd">
<svg version="1.1" id="Capa_1" xmlns="http://www.w3.org/2000/svg" xmlns:xlink="http://www.w3.org/1999/xlink" x="0px" y="0px"
	 width="51.335px" height="51.335px" viewBox="0 0 51.335 51.335" style="enable-background:new 0 0 51.335 51.335;"
	 xml:space="preserve">
<g>
	<g>  
		<path d="M1.586,29.915c-0.511,1.277-0.675,2.798-0.044,4.533c0.632,1.736,1.735,2.796,2.951,3.449
			c-0.041,1.375,0.327,2.858,1.512,4.271c1.009,1.201,2.38,1.97,3.94,2.226c0.431,1.309,1.283,2.576,2.878,3.5
			c0.976,0.565,2.093,0.863,3.232,0.863c0.435,0,0.849-0.041,1.243-0.115c0.856,1.086,2.095,1.988,3.918,2.308
			c0.364,0.063,0.734,0.096,1.102,0.096c1.336,0,2.437-0.372,3.348-0.925c0.911,0.553,2.012,0.925,3.348,0.925
			c0.369,0,0.74-0.032,1.104-0.096c1.822-0.319,3.061-1.222,3.917-2.306c0.394,0.073,0.808,0.114,1.243,0.114
			c1.138,0,2.256-0.298,3.23-0.862c1.596-0.922,2.447-2.191,2.879-3.498c1.559-0.256,2.93-1.025,3.94-2.227
			c1.187-1.412,1.553-2.895,1.513-4.271c1.215-0.652,2.319-1.713,2.951-3.449c0.632-1.735,0.468-3.256-0.044-4.533
			c0.916-1.031,1.588-2.405,1.588-4.249c0-1.843-0.671-3.217-1.587-4.248c0.511-1.278,0.675-2.798,0.044-4.533
			c-0.632-1.736-1.735-2.796-2.95-3.449c0.041-1.376-0.326-2.859-1.512-4.271c-1.01-1.202-2.38-1.97-3.939-2.226
			c-0.432-1.308-1.283-2.576-2.879-3.5c-0.976-0.564-2.093-0.863-3.232-0.863c-0.434,0-0.848,0.042-1.242,0.115
			c-0.855-1.085-2.096-1.988-3.918-2.307c-0.364-0.064-0.734-0.096-1.102-0.096c-1.336,0-2.438,0.372-3.349,0.925
			c-0.911-0.553-2.012-0.925-3.348-0.925c-0.369,0-0.74,0.032-1.103,0.096c-1.822,0.319-3.06,1.222-3.917,2.306
			c-0.394-0.074-0.808-0.115-1.243-0.115c-1.138,0-2.256,0.298-3.231,0.862c-1.595,0.923-2.447,2.192-2.878,3.499
			c-1.56,0.256-2.931,1.025-3.941,2.226c-1.186,1.412-1.553,2.895-1.513,4.271c-1.215,0.653-2.319,1.714-2.951,3.45
			c-0.632,1.735-0.468,3.255,0.044,4.533C0.672,22.449,0,23.823,0,25.667C-0.001,27.511,0.671,28.885,1.586,29.915z M8.069,24.279
			c0.09-1.152,0.291-2.27,0.592-3.35c0.247-0.89,0.561-1.75,0.938-2.577c0.475-1.041,1.046-2.026,1.705-2.946
			c0.534-0.746,1.116-1.453,1.757-2.106c0.798-0.813,1.672-1.549,2.614-2.197c0.751-0.516,1.551-0.963,2.38-1.36
			c1.015-0.486,2.082-0.876,3.194-1.163c0.876-0.226,1.772-0.403,2.695-0.492c0.567-0.055,1.141-0.087,1.723-0.087
			s1.156,0.032,1.724,0.087c0.924,0.089,1.818,0.267,2.695,0.493c1.112,0.287,2.178,0.677,3.193,1.163
			c0.83,0.397,1.63,0.844,2.381,1.36c0.941,0.647,1.816,1.384,2.613,2.197c0.641,0.653,1.224,1.36,1.756,2.106
			c0.66,0.921,1.23,1.905,1.705,2.946c0.377,0.827,0.689,1.687,0.938,2.577c0.301,1.079,0.502,2.197,0.592,3.349
			c0.035,0.459,0.069,0.919,0.069,1.388s-0.034,0.93-0.069,1.389c-0.091,1.151-0.291,2.27-0.593,3.35
			c-0.248,0.89-0.562,1.75-0.938,2.576c-0.475,1.041-1.045,2.026-1.705,2.946c-0.533,0.746-1.115,1.453-1.756,2.106
			c-0.799,0.812-1.672,1.549-2.614,2.197c-0.751,0.516-1.552,0.963-2.38,1.359c-1.016,0.486-2.082,0.876-3.194,1.163
			c-0.876,0.226-1.772,0.403-2.694,0.492c-0.567,0.056-1.141,0.088-1.723,0.088s-1.156-0.032-1.723-0.087
			c-0.924-0.089-1.819-0.266-2.695-0.493c-1.112-0.287-2.179-0.677-3.194-1.163c-0.829-0.396-1.629-0.844-2.38-1.359
			c-0.942-0.647-1.816-1.385-2.614-2.197c-0.64-0.653-1.223-1.36-1.756-2.106c-0.659-0.921-1.23-1.905-1.704-2.946
			c-0.377-0.826-0.69-1.687-0.938-2.576c-0.3-1.079-0.502-2.197-0.591-3.35c-0.036-0.459-0.07-0.919-0.07-1.388
			C7.999,25.199,8.034,24.739,8.069,24.279z"/>
	</g>
</g>
<g>
</g>
<g>
</g>
<g>
</g>
<g>
</g>
<g>
</g>
<g>
</g>
<g>
</g>
<g>
</g>
<g>
</g>
<g>
</g>
<g>
</g>
<g>
</g>
<g>
</g>
<g>
</g>
<g>
</g>
</svg>
