<svg xmlns="http://www.w3.org/2000/svg" width="22" height="10" viewBox="0 0 22 10">
  <g id="Group_24224" data-name="Group 24224" transform="translate(-1 -7)">
    <path id="Icon_material-fiber-manual-record" data-name="Icon material-fiber-manual-record" d="M14,10a4,4,0,1,1-4-4A4,4,0,0,1,14,10Z" transform="translate(2 2)" fill="#63779c"/>
    <path id="Icon_awesome-broadcast-tower" data-name="Icon awesome-broadcast-tower" d="M3.744,7.5H4.6c.279,0,.472-.423.377-.827a7.407,7.407,0,0,1,0-3.345c.1-.4-.1-.827-.377-.827H3.744c-.178,0-.341.175-.391.439a11.219,11.219,0,0,0,0,4.122C3.4,7.324,3.566,7.5,3.744,7.5ZM2.279.912C2.422.5,2.229,0,1.925,0h-.9C.871,0,.722.14.656.364A16.411,16.411,0,0,0,0,5,16.052,16.052,0,0,0,.676,9.643c.066.22.213.357.37.357H1.93c.3,0,.5-.5.354-.913a12.953,12.953,0,0,1,0-8.175Z" transform="translate(23 17) rotate(180)" fill="#63779c"/>
    <path id="Icon_awesome-broadcast-tower-2" data-name="Icon awesome-broadcast-tower" d="M3.744,7.5H4.6c.279,0,.472-.423.377-.827a7.407,7.407,0,0,1,0-3.345c.1-.4-.1-.827-.377-.827H3.744c-.178,0-.341.175-.391.439a11.219,11.219,0,0,0,0,4.122C3.4,7.324,3.566,7.5,3.744,7.5ZM2.279.912C2.422.5,2.229,0,1.925,0h-.9C.871,0,.722.14.656.364A16.411,16.411,0,0,0,0,5,16.052,16.052,0,0,0,.676,9.643c.066.22.213.357.37.357H1.93c.3,0,.5-.5.354-.913a12.953,12.953,0,0,1,0-8.175Z" transform="translate(1 7)" fill="#63779c"/>
  </g>
</svg>
