<?xml version="1.0" encoding="UTF-8"?>
<svg id="Layer_1" data-name="Layer 1" xmlns="http://www.w3.org/2000/svg" viewBox="0 0 4080 4080">
  <defs>
    <style>
      .cls-1 {
        fill: #fff;
      }

      .cls-2 {
        fill: #f15c2b;
      }

      .cls-3 {
        fill: #febc11;
      }

      .cls-4 {
        fill: #52b798;
      }
    </style>
  </defs>
  <g id="Group_1" data-name="Group 1">
    <path id="Path_12984" data-name="Path 12984" class="cls-3" d="m3106.73,525.62L446.97,841.91c-100.64,9.58-172.52,100.64-158.15,201.28v14.38l392.97,2199.69c23.96,110.22,115.02,186.9,230.03,191.69h474.44v541.53l541.53-541.53h1006.39c110.22,0,196.49-86.26,206.07-191.69l148.56-2554.32c9.59-86.26-52.71-162.94-138.98-172.52-14.38-4.79-28.75-4.79-43.13-4.79Z"/>
    <path id="Path_12985" data-name="Path 12985" class="cls-1" d="m3274.46,396.22L614.71,712.52c-100.64,9.58-172.52,100.64-158.15,201.28v14.38l392.97,2199.69c23.96,110.22,115.02,186.9,230.03,191.69h474.44v541.53l541.53-541.53h1011.18c110.22,0,196.49-86.26,206.07-191.69l148.56-2554.32c9.59-86.26-52.71-162.94-138.98-172.52-19.17-4.79-33.54-4.79-47.92-4.79Z"/>
    <path id="Path_12986" data-name="Path 12986" class="cls-4" d="m3379.89,295.59L720.13,611.88c-100.64,9.58-172.52,100.64-158.15,201.28v14.38l392.97,2194.9c23.96,110.22,115.02,186.9,230.03,191.69h474.44v541.53l541.53-541.53h1006.39c110.22,0,196.49-86.26,206.07-191.69l148.56-2554.32c9.59-86.26-52.71-162.94-138.98-172.52-19.17-4.79-33.54-4.79-43.13,0Z"/>
    <path id="Path_12987" data-name="Path 12987" class="cls-1" d="m3547.62,166.19L887.87,482.49c-100.64,9.58-172.52,100.64-158.15,201.28v14.38l392.97,2199.69c23.96,110.22,115.02,186.9,230.03,191.69h474.44v541.53l541.53-541.53h1011.18c110.22,0,196.49-86.26,206.07-191.69l148.56-2554.32c9.59-86.26-52.71-162.94-138.98-172.52-23.96-9.58-38.34-4.79-47.92-4.79Z"/>
    <path id="Path_12988" data-name="Path 12988" class="cls-1" d="m2042.82,3616.68l541.53-555.91-330.67-129.39-460.06,709.27,249.2-23.96Z"/>
    <path id="Path_12989" data-name="Path 12989" class="cls-2" d="m3609.92,89.51L950.17,405.81c-100.64,9.58-172.52,100.64-158.15,201.28v14.38l392.97,2199.69c23.96,110.22,115.02,186.9,230.03,191.69h474.44v536.74l541.53-541.53h1006.39c110.22,0,196.49-86.26,206.07-191.69l148.56-2554.32c9.59-86.26-52.71-162.94-138.98-172.52h-43.13Z"/>
    <path id="Union_1" data-name="Union 1" class="cls-1" d="m2579.57,2385.05v-948.89h632.59v239.62h-335.46v115.02h297.13v225.24h-297.13v134.19h335.46v239.62l-632.59-4.79Zm-440.9,0l-277.96-412.14v412.14h-297.13v-948.89h297.13v397.77l273.16-397.77h335.46l-325.88,455.27,349.84,493.61h-354.64Zm805.11-1102.24v-436.1h138.98v335.46h134.19v105.43h-273.16v-4.79Zm-642.18,0v-172.52h-129.39v172.52h-138.98v-436.1h138.98v158.15h129.39v-158.15h138.98v436.1h-138.98Zm-469.65,0l-124.6-191.69v191.69h-138.98v-436.1h138.98v182.11l124.6-182.11h153.36l-148.56,210.86,158.15,230.03h-162.94v-4.79Zm661.34-436.1h134.19v249.2c0,38.34,14.38,67.09,57.51,67.09s57.51-28.75,57.51-67.09v-249.2h134.19v249.2c9.59,100.64-71.89,191.69-172.52,191.69h-23.96c-110.22,0-191.69-67.09-191.69-191.69v-249.2h4.79Z"/>
  </g>
</svg>