<svg id="Group_23413" data-name="Group 23413" xmlns="http://www.w3.org/2000/svg" width="24" height="24" viewBox="0 0 24 24">
  <rect id="Rectangle_2886" data-name="Rectangle 2886" width="24" height="24" fill="none"/>
  <circle id="Ellipse_947" data-name="Ellipse 947" cx="9" cy="9" r="9" transform="translate(3 3)" fill="none" stroke="#63779c" stroke-linecap="round" stroke-linejoin="round" stroke-width="1"/>
  <path id="Path_15292" data-name="Path 15292" d="M120.825,136.251l-5.089-3.13a.75.75,0,0,0-.293-.1l-2.139-.288a.75.75,0,0,0-.785.438l-1.284,2.882a.75.75,0,0,0,.134.814l1.762,1.906a.75.75,0,0,1,.186.652l-.359,1.856" transform="translate(-100.747 -120.279)" fill="none" stroke="#63779c" stroke-linecap="round" stroke-linejoin="round" stroke-width="1"/>
  <path id="Path_15293" data-name="Path 15293" d="M56.274,55.606l-.839,1.983a.75.75,0,0,0-.012.555L56.5,61.02a.75.75,0,0,0,.545.47l2.009.432a.75.75,0,0,1,.517.406l.357.737a.75.75,0,0,0,.675.423h1.259" transform="translate(-50.185 -50.393)" fill="none" stroke="#63779c" stroke-linecap="round" stroke-linejoin="round" stroke-width="1"/>
  <path id="Path_15294" data-name="Path 15294" d="M85.532,35.149l.875,1.567a.75.75,0,0,1-.152.922l-2.523,2.282a.75.75,0,0,1-.141.1l-1.148.634a.75.75,0,0,1-.363.093h-2a.75.75,0,0,0-.691.459l-.781,1.853" transform="translate(-71.239 -31.853)" fill="none" stroke="#63779c" stroke-linecap="round" stroke-linejoin="round" stroke-width="1"/>
</svg>
