<svg xmlns="http://www.w3.org/2000/svg" width="288" height="210" viewBox="0 0 288 210">
  <g id="sleepy_speech_bubble_1_-04_1_" data-name="sleepy speech bubble (1)-04 (1)" transform="translate(-277.04 -175.37)">
    <text id="AHH_NO_NOTIFICATIONS" data-name="AHH! NO NOTIFICATIONS" transform="translate(277.04 377.37)" fill="#231f20" font-size="23.29" font-family="Poppins-Bold, Poppins" font-weight="700"><tspan x="0" y="0">AHH! NO NOTIFICATIONS</tspan></text>
    <path id="Path_21904" data-name="Path 21904" d="M356.07,175.93c4.32.21,8.63.48,12.95.66,11.49.49,23,.86,34.47,1.34,11.12.46,22.24,1,33.33,1.89,3.62.28,6.94,2.5,6.69,6.38l-17.29,78s-.49,7.94-6.45,8.21l-34.32-5.74L365,281.43l2.91-17.4-14.14-2.36s-7.09.5-7.38-10.39l-.52-65c0-2.26-.42-4.32.45-6.54,1.39-3.57,5-4,8.4-3.85Z" fill="#fcc214" stroke="#231f20" stroke-miterlimit="10" stroke-width="1"/>
    <path id="Path_21905" data-name="Path 21905" d="M377.54,211.2a13.2,13.2,0,0,1,.72,4.5s.35,5-1.07,8c0,0-2.39,7.6-7.54,5.93s-4.67-9.9-4.67-9.9-.18-6.39,1.6-7.77a4.72,4.72,0,0,1,3.17-.32C372,212,377.54,211.2,377.54,211.2Z" fill="#fff"/>
    <path id="Path_21906" data-name="Path 21906" d="M378.78,210.45a20.38,20.38,0,0,1,1.05,7.74c-.21,4.16-1.65,9.13-5.27,11.61a5.74,5.74,0,0,1-3,1s-5,1.06-6.85-5.42.75-12.91,1.42-13.58h.44a3.9,3.9,0,0,0-.38.88,18.3,18.3,0,0,0-.76,2.38,18.591,18.591,0,0,0-.31,7.05c.33,2.41,1.08,5.4,3.33,6.75,0,0,4.43,2.51,7.37-2.68,0,0,3-4.23,2.28-12.56a15.078,15.078,0,0,0-.61-2.74S378.64,210.05,378.78,210.45Z" fill="#231f20"/>
    <path id="Path_21907" data-name="Path 21907" d="M371.25,224.78c2.11.24,3.25-1.64,3.87-3.38.23-.61.4-1.25.57-1.88a11.62,11.62,0,0,0,.35-4.83,8.79,8.79,0,0,0-.86-2.64l-6.1-.33a17.391,17.391,0,0,0-1.41,3.07,10.42,10.42,0,0,0,0,6.51c.51,1.61,1.78,3.26,3.56,3.47Z" fill="#231f20"/>
    <path id="Path_21908" data-name="Path 21908" d="M373.92,213.76a1.91,1.91,0,0,0-1,.39,2.11,2.11,0,0,0-.92,1.49c-.19,1.43,1.81,3.55,2.91,1.83a2.69,2.69,0,0,0-.31-3.49,1,1,0,0,0-.68-.22Z" fill="#fff"/>
    <path id="Path_21909" data-name="Path 21909" d="M374,220a.6.6,0,0,0-.09-.15.57.57,0,0,0-.83-.16c-.59.39-.68,1.12-.35,1.41s1.12.41,1.28-.21A1.42,1.42,0,0,0,374,220Z" fill="#fff"/>
    <path id="Path_21910" data-name="Path 21910" d="M382.86,204.23a2.51,2.51,0,0,1,.23,2.2,7.939,7.939,0,0,1-2.76,3,12.26,12.26,0,0,1-6.13,2.82,11.45,11.45,0,0,1-4.28-.33c-4.89-1.32-7.29,3.61-7.29,3.61,2.65-6.7,7.76-4.4,7.76-4.4a10.06,10.06,0,0,0,7.38-1.54c1.19-.81,3.37-2.56,3.47-4.15.06-.86-.86-.91-.95-1.61-.12-.93,1.24-.65,1.71-.39a2.34,2.34,0,0,1,.86.79Z" fill="#231f20"/>
    <path id="Path_21911" data-name="Path 21911" d="M405.54,215.06a22.59,22.59,0,0,0-4.07,10.31s-2,9.24,4.07,9.41c0,0,2.95.39,5.29-3.64,0,0,2.95-4.38,3-7.68,0,0,.77-3,.36-4.44s-2.36-1.36-2.36-1.36S406.18,216.41,405.54,215.06Z" fill="#fff"/>
    <path id="Path_21912" data-name="Path 21912" d="M371.63,234.81a10.36,10.36,0,0,0,5.07-1.9,12.221,12.221,0,0,0,2.08-2.11c.46-.54,1.61-1.38,1.65-2.14s-.77.23-.89.39c-.41.5-.81,1-1.24,1.48-3.39,3.7-6.95,3.44-6.95,3.44a6.74,6.74,0,0,1-6.71-4.3c-.06-.17-.26-.09-.32,0a2.558,2.558,0,0,0,.17.84,3.86,3.86,0,0,0,.68,1.22,8.65,8.65,0,0,0,3.55,2.69,6.36,6.36,0,0,0,2.91.39Z" fill="#231f20"/>
    <path id="Path_21913" data-name="Path 21913" d="M405.54,215.06a22.34,22.34,0,0,0-3.07,6.16c-1.32,3.83-2.77,11.7,2.47,13.42,1.72.57,3.31-.52,4.45-1.72a17.121,17.121,0,0,0,3.6-5.87,19.588,19.588,0,0,0,1-4,17.587,17.587,0,0,0,.21-2.05,9.332,9.332,0,0,0,0-2c.49.14.59.78.59,1.28,0,4.91-1.34,10.13-4.83,13.74-1.12,1.16-2.92,2.34-4.61,2.13-6.7-.84-5.6-9.87-5.6-9.87.84-8.2,4.8-12.3,4.8-12.3Z" fill="#231f20"/>
    <path id="Path_21914" data-name="Path 21914" d="M407,216.7s-3.13,3.34-3.13,7.2v2.06a4.09,4.09,0,0,0,.75,3.08,2.68,2.68,0,0,0,2.8.55,8.63,8.63,0,0,0,4.23-4.13s1.67-3.78.71-7.16Z" fill="#231f20"/>
    <path id="Path_21915" data-name="Path 21915" d="M410.78,219.82c-.85-.21-1.93,1.09-2,2-.17,1.71.72,2.15,1.44,2.08,1.54-.15,1.8-2.25,1.27-3.39a1.08,1.08,0,0,0-.71-.69Z" fill="#fff"/>
    <path id="Path_21916" data-name="Path 21916" d="M409.59,224.9a.81.81,0,0,0-.44-.27.87.87,0,0,0-.86.42c-.68.89.16,1.34.38,1.29a2,2,0,0,0,.62-.23.86.86,0,0,0,.3-1.21Z" fill="#fff"/>
    <path id="Path_21917" data-name="Path 21917" d="M402.16,208.85a5,5,0,0,0,.6,1.81c.95,2.35,2.23,4.86,4.58,6.08.09,0,.17.09.26.12a25,25,0,0,0,2.8,1c1.39.42,3.15.39,4.24,1.44a4.59,4.59,0,0,1,1.11,2.14c.22.78.47,1.48.69,2.33.06-2.42-.59-6-3.48-6.41,0,0-5.08-.25-6.8-3.33,0,0-3.85-5.64-1.1-6.28,0,0,.72,0,.53-.81a1,1,0,0,0-.68-.54,1.91,1.91,0,0,0-1.78.67,4.11,4.11,0,0,0-.89,1.36,1.529,1.529,0,0,0-.08.42Z" fill="#231f20"/>
    <path id="Path_21918" data-name="Path 21918" d="M397,230.24a4.84,4.84,0,0,0,.05,1.42,10.149,10.149,0,0,0,.85,3.15,8.75,8.75,0,0,0,5.11,4.51c2,.64,3.84-.14,5.56-1.21a3,3,0,0,0,1.49-1.6.14.14,0,0,0,0-.14.11.11,0,0,0-.14,0,.27.27,0,0,0-.12.09,10.08,10.08,0,0,1-2.2,1.71,6.59,6.59,0,0,1-2.61.67,6,6,0,0,1-3.78-1.18,6.29,6.29,0,0,1-1.56-1.57,14.921,14.921,0,0,1-2-4.1C397.25,230.07,397.13,229.82,397,230.24Z" fill="#231f20"/>
    <path id="Path_21919" data-name="Path 21919" d="M387.16,242.05a7.8,7.8,0,0,0-3.11-.29,10.14,10.14,0,0,0-4.51,1.7,2.13,2.13,0,0,1-1.86.49,1.52,1.52,0,0,1-.76-2,4.9,4.9,0,0,1,1.84-2.14,12.15,12.15,0,0,1,4.45-1.86,9.54,9.54,0,0,1,4.89-.06s4.34,1.2,5.74,4a2.25,2.25,0,0,1,.08,2.45,1.82,1.82,0,0,1-2.22.38,6.661,6.661,0,0,1-1.07-.83,9.64,9.64,0,0,0-3.47-1.84Z" fill="#231f20"/>
    <path id="Path_21920" data-name="Path 21920" d="M391.5,240.84c.18.18.23.58-.12.56a1.34,1.34,0,0,1-.6-.23,17.079,17.079,0,0,0-1.71-.86,16.541,16.541,0,0,0-3.19-1.26,5.61,5.61,0,0,0-3,.11c-.3.11-.86.61-1.16.39s1.32-1,1.41-1a8.46,8.46,0,0,1,5.47.56,11.311,11.311,0,0,1,1.53.83l.74.47a4.9,4.9,0,0,1,.63.43Z" fill="#fff"/>
    <path id="Path_21921" data-name="Path 21921" d="M381.38,245s4.17-1.89,6.78.33" fill="none" stroke="#231f20" stroke-linecap="round" stroke-miterlimit="10" stroke-width="1"/>
    <path id="Path_21922" data-name="Path 21922" d="M485.82,228.73c-4.32.21-8.63.48-12.95.66-11.49.48-23,.85-34.47,1.33-11.12.46-22.24,1-33.33,1.9-3.62.28-6.94,2.49-6.69,6.38l17.29,78s.49,7.95,6.45,8.22l34.32-5.75,20.42,14.75L474,316.83l14.14-2.37s7.09.5,7.38-10.39l.52-65c0-2.26.42-4.33-.45-6.54-1.39-3.57-5-4-8.4-3.86Z" fill="#65ba86" stroke="#231f20" stroke-miterlimit="10" stroke-width="1"/>
    <path id="Path_21923" data-name="Path 21923" d="M436.54,262.49a13.37,13.37,0,0,1,2.11,4s1.92,4.6,1.53,7.9c0,0,.16,8-5.26,8s-7.58-7.89-7.58-7.89-2.21-6-1-7.88a4.77,4.77,0,0,1,2.91-1.31C431.48,265,436.54,262.49,436.54,262.49Z" fill="#fff"/>
    <path id="Path_21924" data-name="Path 21924" d="M437.48,261.39a20.48,20.48,0,0,1,3.46,7c1.12,4,1.33,9.18-1.31,12.68a5.7,5.7,0,0,1-2.52,1.95s-4.39,2.59-8.21-3-3.41-12.48-3-13.32l.42-.11a4.112,4.112,0,0,0-.08.95,20.7,20.7,0,0,0,0,2.49,18.551,18.551,0,0,0,1.95,6.79c1.08,2.18,2.75,4.78,5.31,5.33,0,0,5,1,6.13-4.88,0,0,1.53-5-1.84-12.63a14.45,14.45,0,0,0-1.45-2.41S437.21,261.05,437.48,261.39Z" fill="#231f20"/>
    <path id="Path_21925" data-name="Path 21925" d="M434.9,277.36c2.08-.44,2.55-2.59,2.6-4.43a19.478,19.478,0,0,0-.07-2,11.36,11.36,0,0,0-1.21-4.68,8.23,8.23,0,0,0-1.65-2.23l-5.88,1.62a17.391,17.391,0,0,0-.37,3.37,10.431,10.431,0,0,0,2.08,6.16c1,1.37,2.72,2.53,4.48,2.17Z" fill="#231f20"/>
    <path id="Path_21926" data-name="Path 21926" d="M433.92,266.07a1.94,1.94,0,0,0-.85.69,2.14,2.14,0,0,0-.4,1.71c.27,1.42,2.85,2.79,3.35.81a2.69,2.69,0,0,0-1.42-3.21,1.05,1.05,0,0,0-.68,0Z" fill="#fff"/>
    <path id="Path_21927" data-name="Path 21927" d="M435.93,272a.692.692,0,0,0-.13-.11.58.58,0,0,0-.84.11c-.44.57-.29,1.29.11,1.45s1.2,0,1.15-.6a1.37,1.37,0,0,0-.29-.85Z" fill="#fff"/>
    <path id="Path_21928" data-name="Path 21928" d="M439.36,254.19a2.49,2.49,0,0,1,.92,2,8,8,0,0,1-1.67,3.7,12.33,12.33,0,0,1-4.91,4.62,11.551,11.551,0,0,1-4.16,1.05c-5.06.3-5.77,5.75-5.77,5.75.38-7.2,6-6.65,6-6.65a10,10,0,0,0,6.51-3.81c.87-1.14,2.38-3.5,2-5-.22-.84-1.1-.6-1.41-1.23-.41-.85,1-1,1.5-.91a2.3,2.3,0,0,1,.99.48Z" fill="#231f20"/>
    <path id="Path_21929" data-name="Path 21929" d="M464.31,257.24a22.709,22.709,0,0,0-.58,11.07s1.09,9.37,6.86,7.62c0,0,2.92-.57,3.85-5.14,0,0,1.4-5.09.44-8.24,0,0-.24-3.13-1.07-4.33s-2.67-.54-2.67-.54S465.35,258.31,464.31,257.24Z" fill="#fff"/>
    <path id="Path_21930" data-name="Path 21930" d="M438.46,286.75a10.43,10.43,0,0,0,4.19-3.41,11.927,11.927,0,0,0,1.3-2.66c.27-.67,1.09-1.83.89-2.56s-.66.47-.73.65c-.22.61-.44,1.21-.7,1.8-2,4.59-5.49,5.47-5.49,5.47a6.73,6.73,0,0,1-7.73-1.93c-.11-.14-.28,0-.31.09s.34.62.43.74a3.74,3.74,0,0,0,1,.94,8.6,8.6,0,0,0,4.21,1.42A6.379,6.379,0,0,0,438.46,286.75Z" fill="#231f20"/>
    <path id="Path_21931" data-name="Path 21931" d="M464.31,257.24a22.379,22.379,0,0,0-.95,6.81c0,4.06,1.1,12,6.62,11.94,1.81,0,3-1.56,3.67-3.06a17,17,0,0,0,1.54-6.7,21.048,21.048,0,0,0-.29-4.12,19.507,19.507,0,0,0-.46-2,9.39,9.39,0,0,0-.63-1.88c.5,0,.81.55,1,1,1.53,4.66,2,10-.2,14.56-.69,1.46-2,3.15-3.69,3.49-6.62,1.34-8.45-7.58-8.45-7.58-1.82-8,.64-13.18.64-13.18Z" fill="#231f20"/>
    <path id="Path_21932" data-name="Path 21932" d="M466.24,258.32s-1.91,4.16-.68,7.81c.2.66.41,1.32.62,2a4.13,4.13,0,0,0,1.69,2.69,2.71,2.71,0,0,0,2.83-.38,8.58,8.58,0,0,0,2.69-5.25s.38-4.12-1.6-7Z" fill="#231f20"/>
    <path id="Path_21933" data-name="Path 21933" d="M470.79,260.07c-.87.08-1.48,1.66-1.28,2.51.38,1.67,1.36,1.81,2,1.51,1.43-.63,1-2.7.13-3.61a1.07,1.07,0,0,0-.85-.41Z" fill="#fff"/>
    <path id="Path_21934" data-name="Path 21934" d="M471.28,265.27a.79.79,0,0,0-.5-.11.85.85,0,0,0-.68.67c-.36,1.06.58,1.21.76,1.1a1.92,1.92,0,0,0,.52-.42.86.86,0,0,0-.1-1.24Z" fill="#fff"/>
    <path id="Path_21935" data-name="Path 21935" d="M459.13,252.43a5.23,5.23,0,0,0,1.14,1.52c1.65,1.92,3.67,3.9,6.28,4.3h.29a26.561,26.561,0,0,0,3,0c1.45,0,3.1-.63,4.48,0A4.62,4.62,0,0,1,476,260c.45.67.92,1.26,1.39,2-.7-2.31-2.45-5.46-5.34-5,0,0-4.89,1.38-7.51-1,0,0-5.43-4.12-3-5.6,0,0,.68-.21.24-.94a1,1,0,0,0-.81-.29,1.91,1.91,0,0,0-1.48,1.2,4.109,4.109,0,0,0-.41,1.57,1.349,1.349,0,0,0,.05.49Z" fill="#231f20"/>
    <path id="Path_21936" data-name="Path 21936" d="M461.08,274.33a4.559,4.559,0,0,0,.5,1.33,9.9,9.9,0,0,0,1.8,2.72,8.81,8.81,0,0,0,6.28,2.65c2.15,0,3.6-1.36,4.89-2.92a3,3,0,0,0,.91-2,.22.22,0,0,0-.06-.14.12.12,0,0,0-.14,0,.411.411,0,0,0-.1.13,9.76,9.76,0,0,1-1.54,2.32,6.5,6.5,0,0,1-2.25,1.47,6,6,0,0,1-4,.08,6.631,6.631,0,0,1-2-1,14.9,14.9,0,0,1-3.18-3.26C461.23,274.1,461,273.91,461.08,274.33Z" fill="#231f20"/>
    <path id="Path_21937" data-name="Path 21937" d="M455.48,288.67a8,8,0,0,0-3,.71,10.159,10.159,0,0,0-3.73,3.06,2.11,2.11,0,0,1-1.61,1.05,1.52,1.52,0,0,1-1.35-1.63,4.85,4.85,0,0,1,1.06-2.62,12.311,12.311,0,0,1,3.63-3.18,9.61,9.61,0,0,1,4.61-1.61s4.5-.25,6.72,2a2.27,2.27,0,0,1,.85,2.3,1.83,1.83,0,0,1-2,1.07,7.2,7.2,0,0,1-1.28-.45A9.48,9.48,0,0,0,455.48,288.67Z" fill="#231f20"/>
    <path id="Path_21938" data-name="Path 21938" d="M459.21,286.14c.22.12.4.48.06.57a1.27,1.27,0,0,1-.64,0c-.62-.13-1.25-.2-1.89-.27a17.9,17.9,0,0,0-3.43-.18,5.63,5.63,0,0,0-2.84,1.08c-.25.19-.62.85-1,.74-.52-.17.94-1.36,1-1.42a8.42,8.42,0,0,1,5.35-1.21,11.261,11.261,0,0,1,1.72.3l.85.21a4.278,4.278,0,0,1,.82.18Z" fill="#fff"/>
    <path id="Path_21939" data-name="Path 21939" d="M450.94,293.31s3.35-3.12,6.54-1.84" fill="none" stroke="#231f20" stroke-linecap="round" stroke-miterlimit="10" stroke-width="1"/>
  </g>
</svg>
