<svg id="Layer_1" data-name="Layer 1" xmlns="http://www.w3.org/2000/svg" viewBox="0 0 841.89 595.28"><defs><style>.cls-1{fill:#fcc214;}.cls-1,.cls-6{stroke:#231f20;stroke-miterlimit:10;}.cls-2,.cls-7{fill:#231f20;}.cls-3{fill:#fff;}.cls-4{fill:#d82029;}.cls-5{fill:#ec6979;}.cls-6{fill:#f26739;}.cls-7{font-size:15.66px;font-family:MyriadPro-Regular, Myriad Pro;}.cls-8{letter-spacing:0em;}.cls-9{letter-spacing:-0.06em;}</style></defs><path class="cls-1" d="M356.07,175.58c4.32.21,8.63.48,12.95.66,11.49.48,23,.85,34.47,1.33,11.12.47,22.24,1,33.33,1.9,3.62.28,6.94,2.5,6.69,6.38l-17.29,78s-.49,7.94-6.45,8.21l-34.32-5.74L365,281.08l2.91-17.4-14.14-2.36s-7.09.5-7.38-10.4l-.52-65c0-2.26-.42-4.32.45-6.54,1.39-3.57,5-4,8.4-3.85Z"/><path class="cls-2" d="M421.06,283.71s2.57-2.83,2.37-3.41-1.66-1.5-2.12,0S419.9,284.94,421.06,283.71Z"/><path class="cls-2" d="M363.42,229.41s22.36,3.17,55.95-.42c-.12,0-1,3.06-1.1,3.28a30.82,30.82,0,0,1-4.34,7.47c-7.4,9.33-20.8,13.51-32.06,9.37C372.06,245.5,366.31,239.3,363.42,229.41Z"/><path class="cls-3" d="M411.28,237.26a10.46,10.46,0,0,1-3.17,1.32,60.51,60.51,0,0,1-12.23,1.34,158.14,158.14,0,0,1-16.14-.66c-2.88-.22-6.43-.15-8.44-2.62a17.88,17.88,0,0,1-2.56-4.55s19.06,1.21,29.17.28,18.11-1.5,18.12-1.5a26.67,26.67,0,0,0-1.3,2.62A11,11,0,0,1,411.28,237.26Z"/><path class="cls-4" d="M380.38,244.76a31.65,31.65,0,0,1,13.05-1.18c1.7.2,3.42.27,5.11.58.91.17,3.25.47,3.76,1.41.75,1.41-3.12,2.26-4,2.39-5.92.91-12.71,1.24-18.26-1.32C378.63,246,379.08,245.18,380.38,244.76Z"/><path class="cls-2" d="M362.26,230.64s2.57-2.83,2.36-3.41-1.65-1.5-2.12,0S361.1,231.87,362.26,230.64Z"/><circle class="cls-3" cx="377.19" cy="208.85" r="11.19"/><path class="cls-2" d="M383.12,219.4a12.1,12.1,0,1,1,4.63-16.48A12.11,12.11,0,0,1,383.12,219.4Zm-10.95-19.51a10.27,10.27,0,1,0,14,3.93A10.28,10.28,0,0,0,372.17,199.89Z"/><circle class="cls-3" cx="406.26" cy="207.91" r="11.19"/><path class="cls-2" d="M412.19,218.47A12.11,12.11,0,1,1,416.82,202,12.13,12.13,0,0,1,412.19,218.47Zm-11-19.52a10.28,10.28,0,1,0,14,3.93A10.29,10.29,0,0,0,401.23,199Z"/><path class="cls-2" d="M419.74,229.66l-1.07-2.94,1.23-.69,2.32,4.14S421.74,231.38,419.74,229.66Z"/><path class="cls-5" d="M377.36,215.11c-.42.41-6.53-5.86-7-6.55-.7-1.11-1.2-2.46-.33-3.62a3.82,3.82,0,0,1,6.39.51s1.44-4.63,5.9-2-3.05,9.8-3.05,9.8Z"/><path class="cls-5" d="M405.76,214.43c-1.28-1.25-9.57-9.43-3.37-12,0,0,3.63-.53,3.75,3,0,0,3.7-4.73,5.81-.37S405.76,214.43,405.76,214.43Z"/><path class="cls-6" d="M485.82,228.38c-4.32.21-8.63.48-12.95.66-11.49.48-23,.85-34.47,1.33-11.12.46-22.24,1-33.33,1.9-3.62.28-6.94,2.49-6.69,6.38l17.29,78s.49,7.95,6.45,8.22l34.32-5.75,20.42,14.75L474,316.48l14.14-2.37s7.09.5,7.38-10.39l.52-65c0-2.26.42-4.33-.45-6.54-1.39-3.57-5-4-8.4-3.86Z"/><path class="cls-2" d="M422.22,282.48s22.36,3.18,55.95-.41c-.12,0-1,3.05-1.1,3.27a30.5,30.5,0,0,1-4.34,7.47c-7.39,9.34-20.8,13.51-32.05,9.37C430.86,298.57,425.12,292.38,422.22,282.48Z"/><path class="cls-3" d="M470.08,290.33a10.22,10.22,0,0,1-3.17,1.32A59.73,59.73,0,0,1,454.68,293a155.13,155.13,0,0,1-16.13-.66c-2.88-.22-6.44-.15-8.45-2.61a18.42,18.42,0,0,1-2.56-4.56s19.06,1.21,29.17.28,18.11-1.5,18.12-1.5a25.82,25.82,0,0,0-1.3,2.63A11,11,0,0,1,470.08,290.33Z"/><path class="cls-4" d="M439.18,297.84a31.5,31.5,0,0,1,13.05-1.18c1.7.19,3.42.27,5.11.58.91.16,3.26.47,3.76,1.41.75,1.4-3.12,2.26-4,2.38-5.92.91-12.71,1.24-18.25-1.32C437.44,299,437.88,298.25,439.18,297.84Z"/><circle class="cls-3" cx="436" cy="261.92" r="11.19"/><path class="cls-2" d="M441.92,272.48A12.11,12.11,0,1,1,446.55,256,12.13,12.13,0,0,1,441.92,272.48ZM431,253a10.28,10.28,0,1,0,14,3.93A10.29,10.29,0,0,0,431,253Z"/><circle class="cls-3" cx="465.07" cy="260.98" r="11.19"/><path class="cls-2" d="M471,271.54a12.11,12.11,0,1,1,4.63-16.48A12.12,12.12,0,0,1,471,271.54ZM460,252A10.27,10.27,0,1,0,474,256,10.28,10.28,0,0,0,460,252Z"/><path class="cls-2" d="M478.54,282.73l-1.07-2.93,1.24-.69,2.31,4.13S480.55,284.45,478.54,282.73Z"/><path class="cls-5" d="M436.16,268.19c-.42.4-6.52-5.86-7-6.56-.71-1.11-1.21-2.45-.34-3.62a3.83,3.83,0,0,1,6.39.51s1.45-4.62,5.9-2-3,9.81-3,9.81Z"/><path class="cls-5" d="M464.56,267.5c-1.27-1.24-9.56-9.42-3.37-12,0,0,3.63-.53,3.76,3,0,0,3.7-4.73,5.8-.36S464.56,267.5,464.56,267.5Z"/><path class="cls-2" d="M258.54,365.2a7.55,7.55,0,0,1,2.92-3,8.56,8.56,0,0,1,4.25-1.06,8.1,8.1,0,0,1,5,1.54,7.39,7.39,0,0,1,2.77,4.19h-4.38a3.63,3.63,0,0,0-1.38-1.56,3.88,3.88,0,0,0-2-.53,3.78,3.78,0,0,0-3,1.28,5.7,5.7,0,0,0,0,6.84,3.78,3.78,0,0,0,3,1.29,3.89,3.89,0,0,0,2-.54,3.63,3.63,0,0,0,1.38-1.56h4.38a7.36,7.36,0,0,1-2.77,4.18,8.15,8.15,0,0,1-5,1.53,8.56,8.56,0,0,1-4.25-1.06,7.53,7.53,0,0,1-2.92-2.95,8.71,8.71,0,0,1-1.05-4.31A8.8,8.8,0,0,1,258.54,365.2Z"/><path class="cls-2" d="M284.25,377.72l-3.4-6.17h-1v6.17h-4V361.37h6.68a7.38,7.38,0,0,1,3.3.67,4.66,4.66,0,0,1,2,1.86,5.14,5.14,0,0,1,.68,2.62,4.76,4.76,0,0,1-3.63,4.72l3.77,6.48Zm-4.35-9h2.47a2.25,2.25,0,0,0,1.64-.54,2,2,0,0,0,.55-1.51,2,2,0,0,0-.55-1.47,2.25,2.25,0,0,0-1.64-.53H279.9Z"/><path class="cls-2" d="M295.08,364.56v3.31h5.34v3.07h-5.34v3.59h6v3.19h-10V361.37h10v3.19Z"/><path class="cls-2" d="M313.88,374.83h-6.1l-1,2.89h-4.17l5.92-16.35h4.61l5.91,16.35h-4.21Zm-1-3.07-2-6-2,6Z"/><path class="cls-2" d="M332.63,361.37v3.19H328.3v13.16h-4V364.56H320v-3.19Z"/><path class="cls-2" d="M338.61,364.56v3.31H344v3.07h-5.34v3.59h6v3.19h-10V361.37h10v3.19Z"/><path class="cls-2" d="M362.35,374.83h-6.11l-1,2.89H351.1L357,361.37h4.61l5.92,16.35h-4.22Zm-1-3.07-2-6-2,6Z"/><path class="cls-2" d="M377.79,367.61h-4.08l2.61-6.24H379Z"/><path class="cls-2" d="M389.92,377.72l-3.4-6.17h-.95v6.17h-4V361.37h6.69a7.31,7.31,0,0,1,3.29.67,4.63,4.63,0,0,1,2,1.86,5.14,5.14,0,0,1,.68,2.62,4.75,4.75,0,0,1-3.64,4.72l3.78,6.48Zm-4.35-9H388a2.28,2.28,0,0,0,1.65-.54,2,2,0,0,0,.54-1.51,2,2,0,0,0-.54-1.47,2.27,2.27,0,0,0-1.65-.53h-2.46Z"/><path class="cls-2" d="M400.27,376.81a8,8,0,0,1-3-3,8.8,8.8,0,0,1,0-8.63,8.08,8.08,0,0,1,3-3,8.9,8.9,0,0,1,8.46,0,7.89,7.89,0,0,1,3,3,9,9,0,0,1,0,8.63,8,8,0,0,1-3,3,8.88,8.88,0,0,1-8.45,0Zm7.36-3.87a5.63,5.63,0,0,0,0-6.9,4.48,4.48,0,0,0-6.28,0,5.68,5.68,0,0,0,0,6.93,4,4,0,0,0,3.15,1.29A4,4,0,0,0,407.63,372.94Z"/><path class="cls-2" d="M419,361.37v9.78a3.25,3.25,0,0,0,.72,2.26,2.72,2.72,0,0,0,2.12.79,2.79,2.79,0,0,0,2.14-.79,3.16,3.16,0,0,0,.75-2.26v-9.78h4v9.76a6.94,6.94,0,0,1-.93,3.7,5.94,5.94,0,0,1-2.51,2.28,8.35,8.35,0,0,1-7,0,5.66,5.66,0,0,1-2.41-2.29,7.25,7.25,0,0,1-.88-3.71v-9.76Z"/><path class="cls-2" d="M446.12,377.72h-4l-6.66-10.09v10.09h-4V361.37h4l6.66,10.13V361.37h4Z"/><path class="cls-2" d="M459.65,362.39a7.43,7.43,0,0,1,3,2.88,9.13,9.13,0,0,1,0,8.54,7.27,7.27,0,0,1-3,2.88,9.43,9.43,0,0,1-4.5,1H449V361.37h6.13A9.53,9.53,0,0,1,459.65,362.39ZM458.4,373a4.71,4.71,0,0,0,1.25-3.5,4.36,4.36,0,0,0-4.77-4.77H453v9.5h1.89A4.82,4.82,0,0,0,458.4,373Z"/><path class="cls-2" d="M482.64,361.37v3.19h-4.33v13.16h-4V364.56H470v-3.19Z"/><path class="cls-2" d="M494.82,374.83h-6.1l-1,2.89h-4.17l5.92-16.35h4.61L500,377.72H495.8Zm-1-3.07-2-6-2,6Z"/><path class="cls-2" d="M514,370.74a4.3,4.3,0,0,1-.57,5.78,6.05,6.05,0,0,1-4,1.2h-7.62V361.37h7.36a6,6,0,0,1,3.9,1.14,3.77,3.77,0,0,1,1.41,3.1,3.73,3.73,0,0,1-.76,2.4,3.85,3.85,0,0,1-2,1.32A3.88,3.88,0,0,1,514,370.74Zm-8.2-2.76h2.61a2.29,2.29,0,0,0,1.5-.43,1.54,1.54,0,0,0,.53-1.27,1.59,1.59,0,0,0-.53-1.28,2.29,2.29,0,0,0-1.5-.44h-2.61Zm4.48,6.07a1.6,1.6,0,0,0,.55-1.32,1.7,1.7,0,0,0-.57-1.35,2.36,2.36,0,0,0-1.57-.48h-2.89v3.61h2.94A2.36,2.36,0,0,0,510.27,374.05Z"/><path class="cls-2" d="M521.14,374.65h5.22v3.07h-9.2V361.37h4Z"/><path class="cls-2" d="M532.25,364.56v3.31h5.33v3.07h-5.33v3.59h6v3.19h-10V361.37h10v3.19Z"/><path class="cls-2" d="M541.77,361.37h4.08l-2.61,6.24h-2.68Z"/><path class="cls-2" d="M556.62,376.81a8,8,0,0,1-3-3,8.8,8.8,0,0,1,0-8.63,8,8,0,0,1,3-3,8.9,8.9,0,0,1,8.46,0,7.79,7.79,0,0,1,3,3,8.91,8.91,0,0,1,0,8.63,7.88,7.88,0,0,1-3,3,8.88,8.88,0,0,1-8.45,0Zm7.36-3.87a5.63,5.63,0,0,0,0-6.9,4,4,0,0,0-3.13-1.29,4.07,4.07,0,0,0-3.16,1.28,5.72,5.72,0,0,0,0,6.93,4.08,4.08,0,0,0,3.16,1.29A4,4,0,0,0,564,372.94Z"/><path class="cls-2" d="M579.76,377.72l-3.4-6.17h-1v6.17h-4V361.37h6.69a7.31,7.31,0,0,1,3.29.67,4.63,4.63,0,0,1,2,1.86,5.14,5.14,0,0,1,.68,2.62,4.75,4.75,0,0,1-3.64,4.72l3.78,6.48Zm-4.35-9h2.47a2.27,2.27,0,0,0,1.64-.54,2,2,0,0,0,.54-1.51,2,2,0,0,0-.54-1.47,2.26,2.26,0,0,0-1.64-.53h-2.47Z"/><path class="cls-2" d="M290.34,389.32v11.13a5.24,5.24,0,0,1-1.45,4,5.4,5.4,0,0,1-3.93,1.4,5.79,5.79,0,0,1-4.14-1.47,5.42,5.42,0,0,1-1.56-4.17h4a2.41,2.41,0,0,0,.42,1.55,1.46,1.46,0,0,0,1.21.53,1.37,1.37,0,0,0,1.11-.47,2,2,0,0,0,.4-1.35V389.32Z"/><path class="cls-2" d="M297.06,404.76a8,8,0,0,1-3.05-3,8.8,8.8,0,0,1,0-8.63,7.94,7.94,0,0,1,3.05-3,8.9,8.9,0,0,1,8.46,0,7.72,7.72,0,0,1,3,3,8.91,8.91,0,0,1,0,8.63,7.88,7.88,0,0,1-3,3,8.88,8.88,0,0,1-8.45,0Zm7.36-3.87a5.63,5.63,0,0,0,0-6.9,4,4,0,0,0-3.13-1.29,4.07,4.07,0,0,0-3.16,1.28,5.72,5.72,0,0,0,0,6.93,4.08,4.08,0,0,0,3.16,1.29A4,4,0,0,0,304.42,400.89Z"/><path class="cls-2" d="M315.85,389.32v16.35h-4V389.32Z"/><path class="cls-2" d="M333.36,405.67h-4l-6.66-10.09v10.09h-4V389.32h4l6.66,10.13V389.32h4Z"/><path class="cls-2" d="M351.36,402.78h-6.1l-1,2.89h-4.17L346,389.32h4.61l5.92,16.35h-4.22Zm-1-3.07-2-6-2,6Z"/><path class="cls-2" d="M373,405.67h-4l-6.67-10.09v10.09h-4V389.32h4L369,399.45V389.32h4Z"/><path class="cls-2" d="M384.72,389.32v9.78a3.25,3.25,0,0,0,.72,2.26,2.72,2.72,0,0,0,2.12.79,2.79,2.79,0,0,0,2.14-.79,3.16,3.16,0,0,0,.75-2.26v-9.78h4v9.76a6.94,6.94,0,0,1-.93,3.7,5.94,5.94,0,0,1-2.51,2.28,7.75,7.75,0,0,1-3.5.77,7.62,7.62,0,0,1-3.46-.76,5.58,5.58,0,0,1-2.41-2.28,7.28,7.28,0,0,1-.89-3.71v-9.76Z"/><path class="cls-2" d="M409,397.18a4.78,4.78,0,0,1-2,1.9,7.06,7.06,0,0,1-3.35.72h-2.47v5.87h-4V389.32h6.46a7.33,7.33,0,0,1,3.3.67,4.62,4.62,0,0,1,2,1.87,5.4,5.4,0,0,1,.67,2.72A5.2,5.2,0,0,1,409,397.18Zm-4-1.08a2,2,0,0,0,.56-1.52,2,2,0,0,0-.56-1.51,2.36,2.36,0,0,0-1.7-.54h-2.16v4.1h2.16A2.4,2.4,0,0,0,405.07,396.1Z"/><path class="cls-2" d="M412.13,393.15a7.49,7.49,0,0,1,2.92-3,8.56,8.56,0,0,1,4.25-1.06,8.14,8.14,0,0,1,5,1.54,7.39,7.39,0,0,1,2.77,4.19h-4.38a3.59,3.59,0,0,0-1.39-1.56,4.14,4.14,0,0,0-5,.75,5.7,5.7,0,0,0,0,6.84,4.1,4.1,0,0,0,5,.75,3.59,3.59,0,0,0,1.39-1.56h4.38a7.36,7.36,0,0,1-2.77,4.18,8.19,8.19,0,0,1-5,1.52,8.56,8.56,0,0,1-4.25-1,7.53,7.53,0,0,1-2.92-3,9.39,9.39,0,0,1,0-8.63Z"/><path class="cls-2" d="M433,404.76a8,8,0,0,1-3.05-3,8.8,8.8,0,0,1,0-8.63,7.94,7.94,0,0,1,3.05-3,8.88,8.88,0,0,1,8.45,0,7.82,7.82,0,0,1,3,3,8.91,8.91,0,0,1,0,8.63,8,8,0,0,1-3,3,8.86,8.86,0,0,1-8.44,0Zm7.36-3.87a5.67,5.67,0,0,0,0-6.9,4.49,4.49,0,0,0-6.29,0,5.68,5.68,0,0,0,0,6.93,4.45,4.45,0,0,0,6.29,0Z"/><path class="cls-2" d="M466.33,389.32v16.35h-4v-9.81l-3.65,9.81h-3.22l-3.68-9.83v9.83h-4V389.32h4.7l4.59,11.32,4.54-11.32Z"/><path class="cls-2" d="M473.17,389.32v16.35h-4V389.32Z"/><path class="cls-2" d="M490.69,405.67h-4L480,395.58v10.09h-4V389.32h4l6.67,10.13V389.32h4Z"/><path class="cls-2" d="M504.43,394.49a3.06,3.06,0,0,0-1.27-1.25,4.24,4.24,0,0,0-1.94-.43,4,4,0,0,0-3.1,1.27,5.59,5.59,0,0,0,.06,6.92,4.42,4.42,0,0,0,3.36,1.27,4,4,0,0,0,2.48-.75,4.17,4.17,0,0,0,1.48-2.14h-5.05v-2.93h8.66v3.7a7.67,7.67,0,0,1-1.5,2.77,7.87,7.87,0,0,1-2.69,2.07,8.31,8.31,0,0,1-3.68.79,8.75,8.75,0,0,1-4.32-1,7.56,7.56,0,0,1-3-3,9.31,9.31,0,0,1,0-8.63,7.56,7.56,0,0,1,3-3,8.68,8.68,0,0,1,4.31-1.06,8.45,8.45,0,0,1,4.95,1.42,6.7,6.7,0,0,1,2.66,3.94Z"/><path class="cls-2" d="M519.77,404.76a8,8,0,0,1-3-3,8.8,8.8,0,0,1,0-8.63,7.94,7.94,0,0,1,3-3,8.88,8.88,0,0,1,8.45,0,7.82,7.82,0,0,1,3,3,9,9,0,0,1,0,8.63,8,8,0,0,1-3,3,8.86,8.86,0,0,1-8.44,0Zm7.36-3.87a5.67,5.67,0,0,0,0-6.9,4.49,4.49,0,0,0-6.29,0,5.68,5.68,0,0,0,0,6.93,4.45,4.45,0,0,0,6.29,0Z"/><path class="cls-2" d="M549.19,405.67h-4l-6.66-10.09v10.09h-4V389.32h4l6.66,10.13V389.32h4Z"/><path class="cls-2" d="M556.06,392.51v3.31h5.34v3.07h-5.34v3.59h6v3.19h-10V389.32h10v3.19Z"/><text class="cls-7" transform="translate(35.27 558.03)"><tspan class="cls-8"></tspan><tspan x="8.49" y="0"></tspan><tspan class="cls-9" x="43.24" y="0"></tspan><tspan x="50.03" y="0"></tspan></text></svg>