<?xml version="1.0" encoding="UTF-8"?><svg xmlns="http://www.w3.org/2000/svg" viewBox="0 0 2770.72 1840.46"><defs><style>.b{fill:#fabb37;}.c{fill:#fff;}.d{fill:#fefefe;}.e{fill:#ffd371;}.f{fill:#e85c24;}.g{fill:#a4ded3;}.h{fill:#6cbc8d;}.i{mix-blend-mode:screen;}.i,.j{opacity:.5;}.k{isolation:isolate;}.l{mix-blend-mode:multiply;opacity:.3;}</style></defs><g class="k"><g id="a"><path class="f" d="M1414.09,1032.21c-194.82-110.18-534.31-81.28-515.85,62.05,23.46,182.16,281.52-112.12,549.74,29.59-11.46-47.49-22.42-44.15-33.89-91.64Z"/><path class="f" d="M2674.19,.72L1259.9,168.62c-56.25,6.67-94.1,57.78-84.11,113.53l209.84,1170.01c9.98,55.77,64.52,101.38,121.15,101.38h252.31v286.92l287.54-286.92h536.78c56.67,0,105.69-46.26,108.92-102.86l78.21-1359.27c3.25-56.56-40.13-97.39-96.36-90.7Z"/><path d="M1821.06,688.6c0,90.01-38.34,162.97-85.62,162.97s-85.62-72.96-85.62-162.97,38.34-162.95,85.62-162.95,85.62,72.96,85.62,162.95Z"/><path d="M2240.57,752.47c0,7.47-6.05,13.53-13.5,13.53s-13.5-6.05-13.5-13.53c0-47.16,10.18-90.16,26.64-121.5,17.84-33.95,43.43-54.95,72.48-54.95s54.61,21,72.46,54.95c16.47,31.35,26.67,74.34,26.67,121.5,0,7.47-6.05,13.53-13.53,13.53s-13.5-6.05-13.5-13.53c0-42.82-8.97-81.33-23.49-108.94-13.14-25.03-30.38-40.51-48.61-40.51s-35.49,15.48-48.63,40.51c-14.52,27.61-23.49,66.12-23.49,108.94h0Z"/><path class="d" d="M1801.72,626.22c0,38.75-16.08,70.17-35.9,70.17s-35.9-31.42-35.9-70.17,16.06-70.19,35.9-70.19,35.9,31.42,35.9,70.19Z"/><path class="d" d="M1716.42,671c0,14.03-5.84,25.39-13,25.39s-13-11.36-13-25.39,5.81-25.39,13-25.39,13,11.38,13,25.39Z"/><path class="d" d="M1755.91,732.8c0,14.03-5.81,25.39-13,25.39s-13-11.36-13-25.39,5.81-25.39,13-25.39,13,11.36,13,25.39Z"/><g><path class="d" d="M1765.89,881.91c0,17.41-32.17,31.51-71.81,31.51s-71.81-14.11-71.81-31.51,32.14-31.54,71.81-31.54,71.81,14.13,71.81,31.54Z"/><path class="d" d="M2418.39,881.91c0,17.41-32.17,31.51-71.81,31.51s-71.83-14.11-71.83-31.51,32.17-31.54,71.83-31.54,71.81,14.13,71.81,31.54Z"/></g><path d="M1724.66,426.28c7.31,1.37,12.13,8.42,10.78,15.72-1.37,7.33-8.42,12.13-15.72,10.78-.17-.05-58.57-11.91-73.32,47.04-1.81,7.23-9.14,11.62-16.37,9.81-7.21-1.81-11.6-9.14-9.81-16.35,21.03-83.96,104.21-67.03,104.45-67.01Z"/><path d="M2320.93,452.78c-7.31,1.35-14.35-3.45-15.72-10.78-1.35-7.31,3.45-14.35,10.78-15.72,.24-.02,83.43-16.95,104.43,67.01,1.81,7.21-2.58,14.54-9.81,16.35-7.21,1.81-14.54-2.58-16.35-9.81-14.73-58.95-73.16-47.09-73.33-47.04Z"/><path d="M2085.98,909.56c0-7.45,6.05-13.5,13.5-13.5s13.53,6.05,13.53,13.5c0,31.01-9.98,59.27-26.11,79.88-16.83,21.56-40.36,34.89-66.57,34.89s-49.74-13.33-66.6-34.89c-16.11-20.62-26.09-48.88-26.09-79.88,0-7.45,6.05-13.5,13.5-13.5s13.5,6.05,13.5,13.5c0,24.91,7.76,47.28,20.3,63.32,11.79,15.09,27.87,24.45,45.38,24.45s33.56-9.36,45.38-24.45c12.54-16.03,20.28-38.41,20.28-63.32Z"/><g><path class="h" d="M1156.96,988.08l-36.05-166.22c-1.13-5.21-.8-10.25,.68-14.61,2.4-7.15,7.88-12.44,15.09-13.49l30.05-4.35,57.83-8.39,11.29-1.63,363.18-52.61,53.97-7.83c5.09-.73,10.81,6.01,12.76,14.99l23.51,108.4c1.95,8.98-.46,17.48-5.4,18.93l-51.83,15.09-352.87,102.74-10.95,3.19-56.11,16.32-29.15,8.49c-11.24,3.26-23.01-5.28-25.99-19.04Z"/><path class="h" d="M640.34,1158.21l-60.11-277.13c-4.98-22.97,2.37-43.07,16.16-44.66l62.73-7.28,71.73-8.31,15.57-1.8,421.01-48.83,43.27-5.01c4.6-.54,10.07,6.07,13.86,15.85,1.2,3.09,2.23,6.51,3.01,10.1l39.21,180.75c.78,3.59,1.26,7.13,1.44,10.44,.6,10.47-1.64,18.75-6.05,20.17l-41.46,13.37-405.72,130.74-12.6,4.07-71.13,22.92-57.71,18.6c-13.21,4.27-28.23-10.99-33.21-33.96Z"/><path class="h" d="M174.99,1327.52l-88.44-407.73c-3.06-14.09-4.06-27.29-3.28-37.97,1.08-14.94,5.68-24.97,13.02-25.7l104.72-10.19,450.97-43.87,62.2-6.06c4.89-.48,11.43,9.76,16.65,24.81,1.91,5.5,3.64,11.64,5.05,18.15l63.57,293.07c1.41,6.51,2.39,12.81,2.93,18.61,1.49,15.86-.22,27.89-4.87,29.48l-53.92,18.48-427.22,146.44-106.14,36.37c-3.39,1.16-7.08,.07-10.79-2.87-9.49-7.44-19.19-26.78-24.45-51.03Z"/><path class="e" d="M12.8,1153.24c-14.83-68.35-16.33-134.01-6.8-188.86,13.54-78.01,49.41-134.22,101.05-145.42,30.9-6.7,63.34,3.59,93.96,26.97,24.37,18.58,47.59,45.4,67.98,78.51,27,43.78,49.07,98.55,62.33,159.7,22.1,101.9,14.61,197.79-14.96,260.91-18.44,39.4-45.49,66.03-79.29,73.37-87.96,19.08-188.37-99.65-224.28-265.18Z"/><ellipse class="h" cx="143.64" cy="1129.48" rx="109.45" ry="255.28" transform="translate(-236.16 56.12) rotate(-12.24)"/><path class="e" d="M1614.6,684.56c.2-.13,.39-.24,.59-.37,16.93-10.3,38.75,.7,47.2,23.67,2.13,5.81,4.18,11.65,6.14,17.54,1,2.99,1.98,5.98,2.93,8.99,14.74,46.39,24.08,94.61,27.71,143.09,1.82,24.41-13.48,43.47-33.15,41.11-.23-.03-.46-.06-.69-.09-17.23-2.08-31.63-19.99-33.24-41.34-.02-.27-.04-.52-.06-.79-3.45-45.62-13.03-90.94-28.29-134.1-.75-2.11-1.49-4.22-2.28-6.33-1.12-3.02-1.92-6.1-2.45-9.16-3-17.33,2.98-34.56,15.57-42.23Z"/><path class="e" d="M1169.45,799.49c-1.28-3.31-2.2-6.68-2.73-10.07-1.09-6.58-.81-13.17,.7-19.23,2.39-9.64,7.85-17.93,15.82-22.66,.21-.13,.41-.24,.61-.35,17.41-10.36,39.65,.2,48.41,22.76,1.21,3.14,2.42,6.29,3.59,9.46,1.47,3.94,2.89,7.87,4.28,11.84,21.29,60.47,34.48,123.95,39.04,187.88,.25,3.36,.45,6.74,.65,10.1,1.38,24.16-14.49,42.99-34.62,40.77-.23-.02-.45-.04-.7-.07-9.21-1.01-17.62-6.28-23.79-14.07-3.88-4.88-6.87-10.77-8.6-17.21-.92-3.3-1.48-6.75-1.69-10.3-3.61-64.07-17.36-127.77-40.49-187.62-.16-.41-.31-.82-.47-1.23Z"/><path class="e" d="M655.74,821.74c-2.94-6.37-4.14-13.12-3.76-19.68,.77-14.24,8.88-27.63,22.34-34.66,.24-.14,.49-.26,.75-.39,21.13-11.03,47.17-2.09,57.14,19.55,4.94,10.74,9.68,21.54,14.18,32.44,5.12,12.34,9.95,24.76,14.52,37.29,33.8,93.02,52.1,191.08,54.06,290.28,.16,7.44,.22,14.88,.18,22.32-.11,23.84-20.11,42.75-43.91,41.47-.29,0-.57-.01-.85-.04-10.44-.56-19.84-4.93-26.81-11.72-6.73-6.52-11.23-15.29-12.34-25.05-.2-1.63-.29-3.29-.28-4.98,.51-102.93-18.41-204.88-55.58-300.54-5.08-13.09-10.51-26.06-16.29-38.91-1.12-2.47-2.23-4.93-3.36-7.39Z"/><g class="i"><path class="g" d="M263.44,1229.84l-227.91-82.58c.37,1.8,.75,3.61,1.14,5.42,3.39,15.61,7.32,30.74,11.7,45.29l211.62,76.68c1.97-13.97,3.13-28.99,3.44-44.81Z"/></g><g class="i"><path class="g" d="M25.36,1077.04l234.58,84.99c-2.13-18.13-5.23-36.79-9.34-55.76-3.27-15.07-7.04-29.71-11.25-43.81L27.1,985.57c-3.73,27.18-4.41,58.21-1.74,91.48Z"/></g><g class="l"><path class="b" d="M107.06,818.97c30.9-6.7,63.34,3.59,93.97,26.97l450.97-43.87c.78-14.24,8.88-27.63,22.35-34.66,.25-.14,.49-.26,.75-.39,21.13-11.03,47.17-2.09,57.14,19.55,4.94,10.74,9.68,21.54,14.18,32.45l421.01-48.83c2.39-9.64,7.86-17.92,15.82-22.66,.21-.13,.41-.24,.61-.36,17.41-10.36,39.65,.2,48.41,22.77,1.21,3.14,2.43,6.29,3.59,9.46l363.18-52.61c-3-17.33,2.98-34.56,15.57-42.23,.2-.13,.39-.24,.59-.37,16.93-10.3,38.75,.7,47.2,23.67,2.13,5.81,4.18,11.65,6.14,17.54,1,2.99,1.98,5.98,2.93,8.99,0,0-1.93,.18-5.5,.53-10.03,1-33,3.43-62.22,7.35-73.3,9.83-205.51,27.59-363.63,48.96-4.04,.54-8.09,1.07-12.18,1.63-19,2.57-38.36,5.18-58.02,7.85-15.93,2.15-32.05,4.34-48.34,6.54-115.34,15.62-239.07,32.44-360.65,49.05-6.89,.94-13.78,1.89-20.67,2.82-21.72,2.99-43.37,5.96-64.87,8.91-32.12,4.4-63.91,8.77-95.16,13.07-114.17,15.72-221.21,30.6-311.23,43.34-31.48,4.45-60.87,8.66-87.77,12.52-33.55,4.83-63.2,9.16-88.15,12.9-25.68,3.86-46.38,7.07-61.18,9.52-14.88,2.46-23.83,4.16-25.89,4.99,13.54-78.01,49.41-134.22,101.05-145.42Z"/></g><g class="j"><path class="c" d="M683.57,1157.85c-5.58,4.26-11.26,8.36-17.03,12.32-5.81,3.88-11.7,7.63-17.62,11.35-5.99,3.58-12.01,7.12-18.08,10.57-6.11,3.37-12.27,6.64-18.46,9.88-24.85,12.7-50.56,23.72-76.85,33.1-26.29,9.39-53.17,17.11-80.45,22.99-6.84,1.41-13.69,2.75-20.54,4.02-6.89,1.17-13.79,2.23-20.69,3.24-6.94,.86-13.88,1.68-20.83,2.34-6.97,.58-13.97,.99-20.99,1.21,6.49-2.73,12.99-5.28,19.52-7.65,6.49-2.52,13.01-4.88,19.52-7.21,6.49-2.4,12.99-4.75,19.5-6.99,6.48-2.37,12.96-4.67,19.46-6.89l77.56-27.37,77.4-27.82c6.45-2.38,12.91-4.72,19.43-6.97,6.46-2.38,12.97-4.67,19.52-6.92,6.51-2.32,13.05-4.62,19.67-6.78,6.55-2.3,13.2-4.45,19.95-6.44Z"/></g></g></g></g></svg>