<svg xmlns="http://www.w3.org/2000/svg" width="239.03" height="232.997" viewBox="0 0 239.03 232.997">
  <g id="Group_23372" data-name="Group 23372" transform="translate(7757.76 -12779.505)">
    <path id="Path_21788" data-name="Path 21788" d="M333.71,190.31c4.32.21,8.63.48,13,.66,11.49.48,23,.85,34.47,1.33,11.12.46,22.24,1,33.33,1.9,3.62.28,6.94,2.49,6.69,6.38l-17.29,78s-.49,8-6.45,8.22l-34.31-5.75L342.72,295.8l2.91-17.4L331.44,276s-7.09.5-7.38-10.39l-.52-65c0-2.26-.42-4.33.45-6.54,1.39-3.57,5-4,8.4-3.86Z" transform="translate(-8035.43 12589.813)" fill="#fcc214" stroke="#231f20" stroke-miterlimit="10" stroke-width="1"/>
    <path id="Path_21789" data-name="Path 21789" d="M344.53,248.6s35.46,6.88,47.05,6.24c0,0-7.19,16.5-25.54,13.85C366,268.69,349.8,266.53,344.53,248.6Z" transform="translate(-8035.43 12589.813)" fill="#050606"/>
    <path id="Path_21790" data-name="Path 21790" d="M381.27,260.28c-2.79.85-6,.38-8.85.13s-5.59-.64-8.37-1.11a70.1,70.1,0,0,1-9.74-2.11,6.29,6.29,0,0,1-3.4-3.14,6.4,6.4,0,0,1-.83-2.19c-.11-1.4,3.92,0,4.63.14,2.13.41,4.27.81,6.41,1.18,5.59,1,11.21,1.84,16.86,2.33a59.916,59.916,0,0,0,6.69.31c.42,0,1.44-.08,1.74.27.57.66-2.17,2.55-2.63,2.91A8.17,8.17,0,0,1,381.27,260.28Z" transform="translate(-8035.43 12589.813)" fill="#f1f7e2"/>
    <path id="Path_21791" data-name="Path 21791" d="M357.53,262.88c.74-.71,4.4-1.1,4.94-1.14a16.45,16.45,0,0,1,7.63,1.42c.62.27,5.51,2.42,3.72,3.34-2,1-4.73.78-6.84.52a26,26,0,0,1-9.14-3.41,1,1,0,0,1-.39-.3.31.31,0,0,1,.08-.43Z" transform="translate(-8035.43 12589.813)" fill="#781215"/>
    <path id="Path_21792" data-name="Path 21792" d="M390.12,248.88s1.09,8.15,1.12,11.09a9,9,0,0,0,.88-1.2,8.38,8.38,0,0,0,0-6.5,12.413,12.413,0,0,0-1.3-2.44C390.66,249.57,390.54,249.48,390.12,248.88Z" transform="translate(-8035.43 12589.813)" fill="#050606"/>
    <path id="Path_21793" data-name="Path 21793" d="M343.34,252.89s.31-3.35,4.86-10a2.44,2.44,0,0,0-1.38.55,8.35,8.35,0,0,0-3.42,5.52A10.929,10.929,0,0,0,343.34,252.89Z" transform="translate(-8035.43 12589.813)" fill="#050606"/>
    <path id="Path_21794" data-name="Path 21794" d="M389.38,221a8.6,8.6,0,0,0-5.41-1.8c-4.84.05-8.16,4.06-10.16,8.05,0,0-6.64,13.08,3.1,20.31,0,0,8.39,4.63,13.24-7,1.93-4.61,3.59-10,2.21-15A8.61,8.61,0,0,0,389.38,221Z" transform="translate(-8035.43 12589.813)" fill="#fff"/>
    <path id="Path_21795" data-name="Path 21795" d="M383.57,248.88a9.5,9.5,0,0,1-7.07-.59l-.1-.06c-10.19-7.57-3.42-21.23-3.35-21.37,2.73-5.45,6.61-8.48,10.91-8.52a9.41,9.41,0,0,1,5.94,2h0a9.5,9.5,0,0,1,3.28,5c1.5,5.46-.41,11.2-2.25,15.59-1.75,4.2-4.17,6.87-7.19,7.92Zm-6.21-2a7.89,7.89,0,0,0,5.84.38c2.53-.89,4.61-3.24,6.17-7,1.73-4.14,3.54-9.52,2.17-14.48a7.73,7.73,0,0,0-2.68-4.1h0A7.65,7.65,0,0,0,384,220c-4.65.05-7.68,4.15-9.4,7.58a23.1,23.1,0,0,0-2,7.2c-.6,5.22,1.03,9.22,4.76,12.05Z" transform="translate(-8035.43 12589.813)" fill="#231f20"/>
    <path id="Path_21796" data-name="Path 21796" d="M393.53,223a6.8,6.8,0,0,1,1.58,2.25,9.43,9.43,0,0,1,.76,2.66,8.869,8.869,0,0,1-.05,2.77,7.611,7.611,0,0,1-.93,2.58c-.05-.93,0-1.79-.07-2.65s-.11-1.69-.21-2.53a24.485,24.485,0,0,0-.45-2.51C393.97,224.73,393.77,223.85,393.53,223Z" transform="translate(-8035.43 12589.813)" fill="#050606"/>
    <path id="Path_21797" data-name="Path 21797" d="M367.79,227.63c.58,5.39-.66,13.07-5.59,16.27a8.44,8.44,0,0,1-1.83.91c-.21.08-.43.15-.65.21-5.83,1.56-8.93-3-10-5.42a28.92,28.92,0,0,1-1.42-16.24,11.23,11.23,0,0,1,3.93-6.74c2.32-1.76,5.42-1.59,8-.52C364.89,218,367.27,222.81,367.79,227.63Z" transform="translate(-8035.43 12589.813)" fill="#fff"/>
    <path id="Path_21798" data-name="Path 21798" d="M360.42,245.69l-.48.14c-5.51,1.48-9.31-2.07-11-5.88a30,30,0,0,1-1.47-16.76,12,12,0,0,1,4.25-7.25c2.32-1.76,5.55-2,8.86-.62,4.43,1.82,7.45,6.39,8.08,12.22.66,6.13-.93,13.79-6,17.08a9.711,9.711,0,0,1-2,1Zm-6.08-29.25a5.831,5.831,0,0,0-1.63.86,10.29,10.29,0,0,0-3.61,6.22,28.1,28.1,0,0,0,1.36,15.73c.7,1.54,3.4,6.46,9,4.95l.58-.19a7.551,7.551,0,0,0,1.66-.82c4.41-2.87,5.79-10,5.2-15.47h0c-.56-5.2-3.19-9.25-7-10.84a8.49,8.49,0,0,0-5.56-.44Z" transform="translate(-8035.43 12589.813)" fill="#231f20"/>
    <path id="Path_21799" data-name="Path 21799" d="M383.32,233.54a5.38,5.38,0,0,0-6.54,1,6.63,6.63,0,0,0-.17,8.75c2.84,3.41,6.59,2.07,8.48-1.45a6.57,6.57,0,0,0-.65-7.36,4.86,4.86,0,0,0-1.12-.94Z" transform="translate(-8035.43 12589.813)" fill="#050606"/>
    <path id="Path_21800" data-name="Path 21800" d="M361.74,230.67a5.39,5.39,0,0,0-6.54,1,6.64,6.64,0,0,0-.16,8.76c2.84,3.41,6.58,2.07,8.48-1.45a6.57,6.57,0,0,0-.66-7.36,4.66,4.66,0,0,0-1.12-.95Z" transform="translate(-8035.43 12589.813)" fill="#050606"/>
    <circle id="Ellipse_1700" data-name="Ellipse 1700" cx="1.93" cy="1.93" r="1.93" transform="translate(-7658.53 12824.332)" fill="#f9f9f3"/>
    <circle id="Ellipse_1701" data-name="Ellipse 1701" cx="1.93" cy="1.93" r="1.93" transform="translate(-7675.9 12822.143)" fill="#f9f9f3"/>
    <path id="Path_21801" data-name="Path 21801" d="M349.31,216.48a29.529,29.529,0,0,0-3.5,9.93s-.07.05-.09,0a8,8,0,0,1-.5-2.22C345,221,346.58,218.56,349.31,216.48Z" transform="translate(-8035.43 12589.813)" fill="#231f20"/>
    <path id="Path_21802" data-name="Path 21802" d="M463.46,243.1c-4.32.21-8.63.48-12.95.66-11.49.48-23,.85-34.47,1.33-11.12.47-22.24,1-33.33,1.9-3.62.28-6.94,2.49-6.69,6.38l17.29,78s.49,7.94,6.45,8.21l34.32-5.75L454.5,348.6l-2.91-17.4,14.14-2.37s7.09.51,7.38-10.39l.52-65c0-2.26.42-4.32-.45-6.54-1.39-3.57-5-4-8.4-3.85Z" transform="translate(-8035.43 12589.813)" fill="#65ba86" stroke="#231f20" stroke-miterlimit="10" stroke-width="1"/>
    <path id="Path_21803" data-name="Path 21803" d="M288.33,378.23v3.19h-6.66v3.44h5V388h-5v6.62h-4V378.23Z" transform="translate(-8035.43 12589.813)" fill="#231f20"/>
    <path id="Path_21804" data-name="Path 21804" d="M293.94,393.67a8,8,0,0,1-3.06-3,8.78,8.78,0,0,1,0-8.62,8.06,8.06,0,0,1,3.06-3,8.88,8.88,0,0,1,8.45,0,7.91,7.91,0,0,1,3,3,9,9,0,0,1,0,8.62,8,8,0,0,1-3,3,8.86,8.86,0,0,1-8.44,0Zm7.36-3.87a5.67,5.67,0,0,0,0-6.9,4,4,0,0,0-3.14-1.3,4.07,4.07,0,0,0-3.15,1.28,5.68,5.68,0,0,0,0,6.93,4.44,4.44,0,0,0,6.29,0Z" transform="translate(-8035.43 12589.813)" fill="#231f20"/>
    <path id="Path_21805" data-name="Path 21805" d="M312.72,391.5h5.22v3.08h-9.2V378.23h4Z" transform="translate(-8035.43 12589.813)" fill="#231f20"/>
    <path id="Path_21806" data-name="Path 21806" d="M323.83,391.5h5.22v3.08h-9.2V378.23h4Z" transform="translate(-8035.43 12589.813)" fill="#231f20"/>
    <path id="Path_21807" data-name="Path 21807" d="M334.46,393.67a8,8,0,0,1-3-3,8.78,8.78,0,0,1,0-8.62,8,8,0,0,1,3-3,8.9,8.9,0,0,1,8.46,0,7.82,7.82,0,0,1,3,3,8.89,8.89,0,0,1,0,8.62,7.87,7.87,0,0,1-3,3,8.47,8.47,0,0,1-4.21,1.07A8.58,8.58,0,0,1,334.46,393.67Zm7.36-3.87a5.63,5.63,0,0,0,0-6.9,4,4,0,0,0-3.13-1.3,4.11,4.11,0,0,0-3.16,1.28,5.72,5.72,0,0,0,0,6.93,4.09,4.09,0,0,0,3.16,1.3,4,4,0,0,0,3.13-1.31Z" transform="translate(-8035.43 12589.813)" fill="#231f20"/>
    <path id="Path_21808" data-name="Path 21808" d="M371.76,378.23l-4.26,16.35h-4.82l-2.61-10.76-2.7,10.76h-4.82l-4.15-16.35h4.26l2.36,11.9,2.91-11.9h4.38l2.79,11.9,2.38-11.9Z" transform="translate(-8035.43 12589.813)" fill="#231f20"/>
    <path id="Path_21809" data-name="Path 21809" d="M390.51,386.09a4.91,4.91,0,0,1-2,1.9,7.08,7.08,0,0,1-3.36.72h-2.47v5.87h-4V378.23h6.45a7.34,7.34,0,0,1,3.31.67,4.66,4.66,0,0,1,2,1.86,5.44,5.44,0,0,1,.67,2.73,5.34,5.34,0,0,1-.6,2.6Zm-4-1.09a2.32,2.32,0,0,0,0-3,2.36,2.36,0,0,0-1.7-.54h-2.17v4.1h2.17a2.36,2.36,0,0,0,1.74-.56Z" transform="translate(-8035.43 12589.813)" fill="#231f20"/>
    <path id="Path_21810" data-name="Path 21810" d="M397.22,381.42v3.3h5.33v3.08h-5.33v3.59h6v3.19h-10V378.23h10v3.19Z" transform="translate(-8035.43 12589.813)" fill="#231f20"/>
    <path id="Path_21811" data-name="Path 21811" d="M409.34,393.67a8,8,0,0,1-3-3,8.78,8.78,0,0,1,0-8.62,8,8,0,0,1,3-3,8.88,8.88,0,0,1,8.45,0,7.91,7.91,0,0,1,3,3,8.89,8.89,0,0,1,0,8.62,7.94,7.94,0,0,1-3,3,8.86,8.86,0,0,1-8.44,0Zm7.36-3.87a5.63,5.63,0,0,0,0-6.9,4,4,0,0,0-3.13-1.3,4.09,4.09,0,0,0-3.16,1.28,5.68,5.68,0,0,0,0,6.93,4.07,4.07,0,0,0,3.16,1.3,4,4,0,0,0,3.13-1.31Z" transform="translate(-8035.43 12589.813)" fill="#231f20"/>
    <path id="Path_21812" data-name="Path 21812" d="M436,386.09a4.91,4.91,0,0,1-2,1.9,7.08,7.08,0,0,1-3.36.72h-2.47v5.87h-4V378.23h6.45a7.34,7.34,0,0,1,3.31.67,4.66,4.66,0,0,1,2,1.86,5.44,5.44,0,0,1,.67,2.73A5.34,5.34,0,0,1,436,386.09ZM432,385a2.32,2.32,0,0,0,0-3,2.36,2.36,0,0,0-1.7-.54h-2.17v4.1h2.17A2.36,2.36,0,0,0,432,385Z" transform="translate(-8035.43 12589.813)" fill="#231f20"/>
    <path id="Path_21813" data-name="Path 21813" d="M442.66,391.5h5.21v3.08h-9.2V378.23h4Z" transform="translate(-8035.43 12589.813)" fill="#231f20"/>
    <path id="Path_21814" data-name="Path 21814" d="M453.77,381.42v3.3h5.33v3.08h-5.33v3.59h6v3.19h-10V378.23h10v3.19Z" transform="translate(-8035.43 12589.813)" fill="#231f20"/>
    <path id="Path_21815" data-name="Path 21815" d="M477.5,391.69h-6.1l-1,2.89h-4.17l5.92-16.35h4.61l5.91,16.35h-4.21Zm-1-3.08-2-6-2,6Z" transform="translate(-8035.43 12589.813)" fill="#231f20"/>
    <path id="Path_21816" data-name="Path 21816" d="M499.11,394.58h-4l-6.66-10.09v10.09h-4V378.23h4l6.66,10.13V378.23h4Z" transform="translate(-8035.43 12589.813)" fill="#231f20"/>
    <path id="Path_21817" data-name="Path 21817" d="M512.64,379.25a7.31,7.31,0,0,1,3,2.88,9.11,9.11,0,0,1,0,8.53,7.23,7.23,0,0,1-3,2.89,9.54,9.54,0,0,1-4.5,1H502V378.23h6.13A9.5,9.5,0,0,1,512.64,379.25Zm-1.25,10.64a4.65,4.65,0,0,0,1.25-3.49,4.35,4.35,0,0,0-4.77-4.77H506v9.5h1.89a4.78,4.78,0,0,0,3.5-1.24Z" transform="translate(-8035.43 12589.813)" fill="#231f20"/>
    <path id="Path_21818" data-name="Path 21818" d="M284,422.11a5.21,5.21,0,0,1-2.27-1.73,4.66,4.66,0,0,1-.9-2.75h4.24a1.9,1.9,0,0,0,2.02,1.87,2.2,2.2,0,0,0,1.4-.41A1.37,1.37,0,0,0,289,418a1.33,1.33,0,0,0-.4-1,3.519,3.519,0,0,0-1-.65,16.993,16.993,0,0,0-1.69-.59,18.481,18.481,0,0,1-2.59-1,4.76,4.76,0,0,1-1.72-1.45,4,4,0,0,1-.72-2.49,4.28,4.28,0,0,1,1.65-3.57,7.86,7.86,0,0,1,8.66,0,4.57,4.57,0,0,1,1.77,3.59h-4.31a1.67,1.67,0,0,0-.58-1.24,2,2,0,0,0-1.37-.46,1.72,1.72,0,0,0-1.17.39,1.48,1.48,0,0,0,.31,2.34,12.2,12.2,0,0,0,2.33.95,21.59,21.59,0,0,1,2.57,1,4.83,4.83,0,0,1,1.71,1.42,3.81,3.81,0,0,1,.72,2.4,4.66,4.66,0,0,1-.71,2.54,4.94,4.94,0,0,1-2.06,1.81,7,7,0,0,1-3.19.68,8.539,8.539,0,0,1-3.21-.56Z" transform="translate(-8035.43 12589.813)" fill="#231f20"/>
    <path id="Path_21819" data-name="Path 21819" d="M307.42,406.18v3.19h-4.33v13.16h-4V409.37h-4.34v-3.19Z" transform="translate(-8035.43 12589.813)" fill="#231f20"/>
    <path id="Path_21820" data-name="Path 21820" d="M319.6,419.64h-6.1l-1,2.89h-4.17l5.92-16.35h4.61l5.91,16.35h-4.21Zm-1-3.08-2-6-2,6Z" transform="translate(-8035.43 12589.813)" fill="#231f20"/>
    <path id="Path_21821" data-name="Path 21821" d="M334.93,422.53l-3.4-6.18h-1v6.18h-4V406.18h6.68a7.38,7.38,0,0,1,3.3.67,4.67,4.67,0,0,1,2,1.85,5.189,5.189,0,0,1,.67,2.62,4.8,4.8,0,0,1-.92,2.91,4.94,4.94,0,0,1-2.71,1.82l3.77,6.48Zm-4.36-9H333a2.24,2.24,0,0,0,1.64-.54,2,2,0,0,0,.55-1.51,1.94,1.94,0,0,0-.55-1.47,2.24,2.24,0,0,0-1.64-.54h-2.47Z" transform="translate(-8035.43 12589.813)" fill="#231f20"/>
    <path id="Path_21822" data-name="Path 21822" d="M353.54,406.18v3.19H349.2v13.16h-4V409.37h-4.33v-3.19Z" transform="translate(-8035.43 12589.813)" fill="#231f20"/>
    <path id="Path_21823" data-name="Path 21823" d="M360.85,410a7.49,7.49,0,0,1,2.92-3,8.46,8.46,0,0,1,4.23-1,8.14,8.14,0,0,1,5,1.54,7.39,7.39,0,0,1,2.77,4.19H371.4a3.59,3.59,0,0,0-1.39-1.56,4.11,4.11,0,0,0-5,.74,5.72,5.72,0,0,0,0,6.85,3.83,3.83,0,0,0,3,1.28,3.911,3.911,0,0,0,2-.53,3.59,3.59,0,0,0,1.39-1.56h4.38a7.36,7.36,0,0,1-2.77,4.18,8.25,8.25,0,0,1-5,1.52,8.461,8.461,0,0,1-4.25-1.06,7.5,7.5,0,0,1-2.92-2.94,9.39,9.39,0,0,1,0-8.63Z" transform="translate(-8035.43 12589.813)" fill="#231f20"/>
    <path id="Path_21824" data-name="Path 21824" d="M381.73,421.62a8,8,0,0,1-3.05-3,8.78,8.78,0,0,1,0-8.62,8,8,0,0,1,3.05-3,8.88,8.88,0,0,1,8.45,0,7.91,7.91,0,0,1,3,3,8.89,8.89,0,0,1,0,8.62,8,8,0,0,1-3,3,8.86,8.86,0,0,1-8.44,0Zm7.36-3.87a5.69,5.69,0,0,0,0-6.91,4,4,0,0,0-3.13-1.29,4.09,4.09,0,0,0-3.16,1.28,5.68,5.68,0,0,0,0,6.93,4.06,4.06,0,0,0,3.16,1.29A4,4,0,0,0,389.09,417.75Z" transform="translate(-8035.43 12589.813)" fill="#231f20"/>
    <path id="Path_21825" data-name="Path 21825" d="M411.16,422.53h-4l-6.66-10.09v10.09h-4V406.18h4l6.66,10.13V406.18h4Z" transform="translate(-8035.43 12589.813)" fill="#231f20"/>
    <path id="Path_21826" data-name="Path 21826" d="M429.39,406.18l-5.8,16.35h-5l-5.8-16.35h4.24l4.05,12.34,4.08-12.34Z" transform="translate(-8035.43 12589.813)" fill="#231f20"/>
    <path id="Path_21827" data-name="Path 21827" d="M435,409.37v3.3h5.33v3.08H435v3.58h6v3.2H431V406.18h10v3.19Z" transform="translate(-8035.43 12589.813)" fill="#231f20"/>
    <path id="Path_21828" data-name="Path 21828" d="M452,422.53l-3.4-6.18h-.95v6.18h-4V406.18h6.68a7.38,7.38,0,0,1,3.3.67,4.64,4.64,0,0,1,2,1.85,5.2,5.2,0,0,1,.68,2.62,4.87,4.87,0,0,1-.92,2.91,4.94,4.94,0,0,1-2.71,1.82l3.77,6.48Zm-4.35-9h2.47a2.24,2.24,0,0,0,1.64-.54,2.293,2.293,0,0,0,0-2.98,2.24,2.24,0,0,0-1.64-.54h-2.47Z" transform="translate(-8035.43 12589.813)" fill="#231f20"/>
    <path id="Path_21829" data-name="Path 21829" d="M461.53,422.11a5.331,5.331,0,0,1-2.27-1.73,4.73,4.73,0,0,1-.89-2.75h4.24a2.08,2.08,0,0,0,.62,1.39,2,2,0,0,0,1.4.48,2.2,2.2,0,0,0,1.4-.41,1.37,1.37,0,0,0,.51-1.13,1.31,1.31,0,0,0-.41-1,3.26,3.26,0,0,0-1-.65,16.152,16.152,0,0,0-1.69-.59,18.791,18.791,0,0,1-2.58-1,4.871,4.871,0,0,1-1.73-1.45,4,4,0,0,1-.72-2.49,4.26,4.26,0,0,1,1.66-3.57,7.86,7.86,0,0,1,8.66,0,4.63,4.63,0,0,1,1.77,3.59h-4.31a1.67,1.67,0,0,0-.58-1.24,2,2,0,0,0-1.37-.46,1.7,1.7,0,0,0-1.17.39,1.48,1.48,0,0,0,.3,2.34,12.789,12.789,0,0,0,2.33.95,21.153,21.153,0,0,1,2.58,1,4.83,4.83,0,0,1,1.71,1.42,3.81,3.81,0,0,1,.72,2.4,4.74,4.74,0,0,1-.71,2.54,4.941,4.941,0,0,1-2.06,1.81,7.07,7.07,0,0,1-3.19.68,8.59,8.59,0,0,1-3.22-.52Z" transform="translate(-8035.43 12589.813)" fill="#231f20"/>
    <path id="Path_21830" data-name="Path 21830" d="M477.14,406.18v16.35h-4V406.18Z" transform="translate(-8035.43 12589.813)" fill="#231f20"/>
    <path id="Path_21831" data-name="Path 21831" d="M494.65,422.53h-4L484,412.44v10.09h-4V406.18h4l6.66,10.13V406.18h4Z" transform="translate(-8035.43 12589.813)" fill="#231f20"/>
    <path id="Path_21832" data-name="Path 21832" d="M508.39,411.35a2.9,2.9,0,0,0-1.27-1.25,4.081,4.081,0,0,0-1.94-.43,4,4,0,0,0-3.1,1.27,4.84,4.84,0,0,0-1.16,3.39,4.92,4.92,0,0,0,1.22,3.53,4.49,4.49,0,0,0,3.37,1.26,4.07,4.07,0,0,0,2.48-.74,4.27,4.27,0,0,0,1.48-2.14h-5.06V413.3h8.67V417a7.93,7.93,0,0,1-4.2,4.84,8.25,8.25,0,0,1-3.68.79,8.7,8.7,0,0,1-4.32-1.06,7.6,7.6,0,0,1-3-2.94,9.39,9.39,0,0,1,0-8.63,7.56,7.56,0,0,1,2.95-3,8.63,8.63,0,0,1,4.31-1.06,8.34,8.34,0,0,1,4.95,1.42,6.75,6.75,0,0,1,2.67,3.94Z" transform="translate(-8035.43 12589.813)" fill="#231f20"/>
    <path id="Path_21833" data-name="Path 21833" d="M408.68,304.6s35.74-5.26,46.45-9.7c0,0-1.31,17.94-19.51,21.53C435.62,316.43,419.59,319.77,408.68,304.6Z" transform="translate(-8035.43 12589.813)" fill="#050606"/>
    <path id="Path_21834" data-name="Path 21834" d="M447.2,303.44c-2.34,1.73-5.53,2.35-8.3,3.06s-5.49,1.25-8.26,1.72a68.733,68.733,0,0,1-9.89,1.24,6.26,6.26,0,0,1-4.24-1.84,6.351,6.351,0,0,1-1.52-1.79c-.57-1.29,3.7-1.3,4.41-1.4q3.225-.48,6.44-1c5.6-.93,11.19-2,16.69-3.39a59.751,59.751,0,0,0,6.41-1.92c.4-.15,1.33-.56,1.73-.33.76.44-1.2,3.13-1.52,3.62a7.75,7.75,0,0,1-1.95,2.03Z" transform="translate(-8035.43 12589.813)" fill="#f1f7e2"/>
    <path id="Path_21835" data-name="Path 21835" d="M425.67,313.76c.47-.91,3.79-2.49,4.28-2.71a16.37,16.37,0,0,1,7.67-1.19c.68,0,6,.45,4.62,1.91s-4.2,2.31-6.28,2.77a26.43,26.43,0,0,1-9.75-.19,1.05,1.05,0,0,1-.47-.16.31.31,0,0,1-.07-.43Z" transform="translate(-8035.43 12589.813)" fill="#781215"/>
    <path id="Path_21836" data-name="Path 21836" d="M451.78,289.76s3.73,7.32,4.73,10.08a7.837,7.837,0,0,0,.44-1.42,8.35,8.35,0,0,0-2.14-6.14,12.088,12.088,0,0,0-2-1.87C452.52,290.23,452.38,290.18,451.78,289.76Z" transform="translate(-8035.43 12589.813)" fill="#050606"/>
    <path id="Path_21837" data-name="Path 21837" d="M409,309s-.82-3.25,1.26-11.06a2.47,2.47,0,0,0-1.12,1,8.36,8.36,0,0,0-1.4,6.35A11,11,0,0,0,409,309Z" transform="translate(-8035.43 12589.813)" fill="#050606"/>
    <path id="Path_21838" data-name="Path 21838" d="M441.84,263.68a8.59,8.59,0,0,0-5.7.1c-4.55,1.64-6.35,6.54-6.92,11,0,0-1.93,14.54,9.66,18.14,0,0,9.45,1.58,10.18-11,.29-5,.06-10.66-2.9-14.92a8.64,8.64,0,0,0-4.32-3.32Z" transform="translate(-8035.43 12589.813)" fill="#fff"/>
    <path id="Path_21839" data-name="Path 21839" d="M445.61,291.92a9.51,9.51,0,0,1-6.87,1.79h-.11c-12.13-3.77-10.27-18.91-10.25-19.06.77-6.05,3.43-10.19,7.47-11.65a9.41,9.41,0,0,1,6.26-.1h0a9.43,9.43,0,0,1,4.75,3.62c3.23,4.65,3.32,10.7,3.05,15.45-.27,4.55-1.67,7.87-4.17,9.86Zm-6.54.13a7.9,7.9,0,0,0,5.63-1.58c2.1-1.68,3.28-4.58,3.51-8.62.26-4.48.19-10.16-2.74-14.38a7.82,7.82,0,0,0-3.9-3h0a7.69,7.69,0,0,0-5.14.09c-4.38,1.58-5.88,6.46-6.37,10.27a23.339,23.339,0,0,0,.48,7.46c1.21,5.08,4.08,8.35,8.53,9.76Z" transform="translate(-8035.43 12589.813)" fill="#231f20"/>
    <path id="Path_21840" data-name="Path 21840" d="M446.41,264.16a7,7,0,0,1,2.24,1.61,8.78,8.78,0,0,1,1.59,2.26,9,9,0,0,1,.88,2.62,7.479,7.479,0,0,1,0,2.75c-.35-.86-.6-1.69-.94-2.48a24.131,24.131,0,0,0-1-2.32c-.38-.76-.8-1.49-1.25-2.22S446.93,264.92,446.41,264.16Z" transform="translate(-8035.43 12589.813)" fill="#050606"/>
    <path id="Path_21841" data-name="Path 21841" d="M423.67,277.1c2.33,4.89,3.71,12.55.13,17.21a8.649,8.649,0,0,1-1.44,1.46c-.17.14-.35.28-.54.41-5,3.4-9.41.15-11.26-1.79a28.83,28.83,0,0,1-6.72-14.85,11.21,11.21,0,0,1,1.48-7.66c1.6-2.43,4.58-3.3,7.39-3.15C417.75,269,421.58,272.72,423.67,277.1Z" transform="translate(-8035.43 12589.813)" fill="#fff"/>
    <path id="Path_21842" data-name="Path 21842" d="M422.7,296.59l-.4.29c-4.71,3.21-9.47,1.13-12.36-1.9A29.93,29.93,0,0,1,403,279.66a12,12,0,0,1,1.61-8.25c1.61-2.43,4.58-3.71,8.15-3.53,4.79.25,9.15,3.56,11.68,8.85,2.65,5.58,3.69,13.33,0,18.09a9.561,9.561,0,0,1-1.57,1.61ZM407.28,271a5.64,5.64,0,0,0-1.26,1.35,10.31,10.31,0,0,0-1.34,7.07,28.11,28.11,0,0,0,6.49,14.39c1.17,1.22,5.35,5,10.17,1.67l.49-.37a7.669,7.669,0,0,0,1.29-1.32c3.21-4.17,2.14-11.39-.22-16.33h0c-2.25-4.72-6.07-7.67-10.23-7.88A8.45,8.45,0,0,0,407.28,271Z" transform="translate(-8035.43 12589.813)" fill="#231f20"/>
    <path id="Path_21843" data-name="Path 21843" d="M440.28,277.53a5.38,5.38,0,0,0-5.84,3.1,6.62,6.62,0,0,0,2.74,8.32c3.81,2.27,6.9-.23,7.52-4.18a6.57,6.57,0,0,0-3.05-6.73,5.312,5.312,0,0,0-1.37-.51Z" transform="translate(-8035.43 12589.813)" fill="#050606"/>
    <path id="Path_21844" data-name="Path 21844" d="M419,282a5.4,5.4,0,0,0-5.85,3.1,6.65,6.65,0,0,0,2.74,8.32c3.82,2.27,6.9-.23,7.52-4.18a6.55,6.55,0,0,0-3.05-6.73A4.91,4.91,0,0,0,419,282Z" transform="translate(-8035.43 12589.813)" fill="#050606"/>
    <circle id="Ellipse_1702" data-name="Ellipse 1702" cx="1.93" cy="1.93" r="1.93" transform="translate(-7600.35 12869.643)" fill="#f9f9f3"/>
    <circle id="Ellipse_1703" data-name="Ellipse 1703" cx="1.93" cy="1.93" r="1.93" transform="translate(-7617.47 12873.343)" fill="#f9f9f3"/>
    <path id="Path_21845" data-name="Path 21845" d="M402.54,272.71a29.39,29.39,0,0,0,0,10.52s0,.07-.08,0a7.56,7.56,0,0,1-1.21-1.93C400,278.38,400.65,275.57,402.54,272.71Z" transform="translate(-8035.43 12589.813)" fill="#231f20"/>
  </g>
</svg>
