<svg xmlns="http://www.w3.org/2000/svg" width="32" height="32" viewBox="0 0 32 32">
  <g id="Group_23144" data-name="Group 23144" transform="translate(-0.446 -0.446)">
    <rect id="Rectangle_2607" data-name="Rectangle 2607" width="32" height="32" transform="translate(0.446 0.446)" fill="none"/>
    <g id="yapp_icon_new-01" data-name="yapp icon new-01" transform="translate(1.778 5.779)">
      <path id="Path_21659" data-name="Path 21659" d="M930.812,527.59v2.921c-.134-.109-.227-.169-.3-.244-.787-.792-1.563-1.6-2.369-2.373a1.1,1.1,0,0,0-.683-.293c-1.6-.026-3.2-.011-4.8-.015-.947,0-1.329-.383-1.385-1.348q-.379-6.635-.769-13.27c-.007-.135-.015-.27-.015-.406a.853.853,0,0,1,1.025-.976c1.237.131,2.469.285,3.706.436q4.695.563,9.39,1.13c.412.049.824.09,1.233.158a.987.987,0,0,1,.891,1.243q-.8,4.551-1.615,9.1-.245,1.369-.494,2.737a1.291,1.291,0,0,1-1.374,1.19c-.8.011-1.6,0-2.447,0Z" transform="translate(-920.489 -511.577)" fill="#63779c" stroke="#63779d" stroke-miterlimit="10" stroke-width="1"/>
      <path id="Path_21660" data-name="Path 21660" d="M969.05,543.059V540.8H967.3c-.884,0-1.188-.248-1.351-1.138q-.83-4.613-1.649-9.23c-.13-.729.123-1.055.869-1.145q5.6-.676,11.195-1.344c.746-.09,1.021.173.977.927q-.307,5.469-.62,10.935a.941.941,0,0,1-1.066.991c-1.288,0-2.577-.011-3.865.011a.949.949,0,0,0-.609.255c-.694.668-1.359,1.371-2.039,2.058-.033-.022-.067-.041-.1-.064Z" transform="translate(-948.016 -521.786)" fill="#63779c" stroke="#63779d" stroke-miterlimit="10" stroke-width="1"/>
    </g>
  </g>
</svg>
