<svg id="Component_142_1" data-name="Component 142 – 1" xmlns="http://www.w3.org/2000/svg" width="138" height="100" viewBox="0 0 138 100">
  <g id="Rectangle_6686" data-name="Rectangle 6686" fill="#fff" stroke="#d3d6db" stroke-width="1" stroke-dasharray="10">
    <rect width="138" height="100" rx="9" stroke="none"/>
    <rect x="0.5" y="0.5" width="137" height="99" rx="8.5" fill="none"/>
  </g>
  <path id="Icon_metro-file-image" data-name="Icon metro-file-image" d="M33.154,9.837a4.657,4.657,0,0,1,1,1.527,4.5,4.5,0,0,1,.417,1.768V36.275a1.827,1.827,0,0,1-.583,1.366,1.965,1.965,0,0,1-1.417.563h-28a1.965,1.965,0,0,1-1.417-.562,1.827,1.827,0,0,1-.583-1.366V4.132a1.827,1.827,0,0,1,.583-1.366A1.965,1.965,0,0,1,4.571,2.2H23.237a4.96,4.96,0,0,1,1.833.4,4.874,4.874,0,0,1,1.583.964Zm-9.25-4.9v7.554h7.833a2.173,2.173,0,0,0-.458-.824L24.758,5.378a2.3,2.3,0,0,0-.854-.442Zm8,30.7V15.061H23.237a1.965,1.965,0,0,1-1.417-.562,1.827,1.827,0,0,1-.583-1.366V4.775h-16V35.632H31.9Zm-2.667-9v6.429H7.9V29.2l4-3.857,2.667,2.571,8-7.714ZM11.9,22.775A3.931,3.931,0,0,1,9.071,21.65a3.782,3.782,0,0,1,0-5.464A3.931,3.931,0,0,1,11.9,15.061a3.931,3.931,0,0,1,2.833,1.125,3.782,3.782,0,0,1,0,5.464A3.931,3.931,0,0,1,11.9,22.775Z" transform="translate(50.43 29.796)" fill="#d3d6db"/>
</svg>
