<svg id="Component_141_3" data-name="Component 141 – 3" xmlns="http://www.w3.org/2000/svg" width="138" height="100" viewBox="0 0 138 100">
  <g id="Rectangle_6686" data-name="Rectangle 6686" fill="#fff" stroke="#d3d6db" stroke-width="1" stroke-dasharray="10">
    <rect width="138" height="100" rx="9" stroke="none"/>
    <rect x="0.5" y="0.5" width="137" height="99" rx="8.5" fill="none"/>
  </g>
  <path id="Icon_metro-file-video" data-name="Icon metro-file-video" d="M34.992,9.981a32.023,32.023,0,0,0-3.114-3.505,32.247,32.247,0,0,0-3.561-3.065c-1.842-1.33-2.736-1.483-3.247-1.483H7.356A2.838,2.838,0,0,0,4.5,4.741V35.116a2.838,2.838,0,0,0,2.857,2.812H33.642A2.838,2.838,0,0,0,36.5,35.116V13.178c0-.5-.156-1.383-1.507-3.2Zm-4.73-1.914a30.849,30.849,0,0,1,2.592,2.861h-5.5V5.516a31.008,31.008,0,0,1,2.906,2.551Zm3.951,27.048a.575.575,0,0,1-.571.563H7.356a.575.575,0,0,1-.571-.562V4.741a.575.575,0,0,1,.571-.562H25.07v7.875a1.134,1.134,0,0,0,1.143,1.125h8ZM11.356,19.928H22.784v11.25H11.356V19.928Zm11.429,4.5,6.857-4.5v11.25l-6.857-4.5Z" transform="translate(48.502 30.072)" fill="#d3d6db"/>
</svg>
