<svg id="Component_143_1" data-name="Component 143 – 1" xmlns="http://www.w3.org/2000/svg" width="138" height="100" viewBox="0 0 138 100">
  <g id="Rectangle_6686" data-name="Rectangle 6686" fill="#fff" stroke="#d3d6db" stroke-width="1" stroke-dasharray="10">
    <rect width="138" height="100" rx="9" stroke="none"/>
    <rect x="0.5" y="0.5" width="137" height="99" rx="8.5" fill="none"/>
  </g>
  <path id="Icon_metro-file-text" data-name="Icon metro-file-text" d="M34.992,9.981a32.037,32.037,0,0,0-3.114-3.505,32.247,32.247,0,0,0-3.561-3.065c-1.842-1.33-2.735-1.483-3.247-1.483H7.356A2.838,2.838,0,0,0,4.5,4.741V35.116a2.838,2.838,0,0,0,2.857,2.813H33.642A2.838,2.838,0,0,0,36.5,35.116V13.178c0-.5-.156-1.383-1.507-3.2Zm-4.73-1.914a30.848,30.848,0,0,1,2.592,2.861h-5.5V5.516a30.989,30.989,0,0,1,2.906,2.551Zm3.951,27.048a.575.575,0,0,1-.571.563H7.356a.575.575,0,0,1-.571-.562V4.741a.575.575,0,0,1,.571-.563H25.07v7.875a1.134,1.134,0,0,0,1.143,1.125h8ZM28.5,31.178h-16a1.125,1.125,0,1,1,0-2.25h16a1.125,1.125,0,1,1,0,2.25Zm0-4.5h-16a1.125,1.125,0,1,1,0-2.25h16a1.125,1.125,0,1,1,0,2.25Zm0-4.5h-16a1.125,1.125,0,1,1,0-2.25h16a1.125,1.125,0,1,1,0,2.25Z" transform="translate(48.502 30.072)" fill="#d3d6db"/>
</svg>
