<svg xmlns="http://www.w3.org/2000/svg" width="28" height="28" viewBox="0 0 32 32">
  <g id="Group_21563" data-name="Group 21563" transform="translate(-1469 -1809)">
    <rect id="Rectangle_2596" data-name="Rectangle 2596" width="32" height="32" transform="translate(1469 1809)" fill="none"/>
    <g id="Group_21641" data-name="Group 21641" transform="translate(-4 -4)">
      <path id="Icon_material-content-copy" data-name="Icon material-content-copy" d="M20.684,1.5H5.526A2.5,2.5,0,0,0,3,3.955V21.136H5.526V3.955H20.684Zm3.789,4.909H10.579A2.5,2.5,0,0,0,8.053,8.864V26.045A2.5,2.5,0,0,0,10.579,28.5H24.474A2.5,2.5,0,0,0,27,26.045V8.864A2.5,2.5,0,0,0,24.474,6.409Zm0,19.636H10.579V8.864H24.474Z" transform="translate(1474 1814.5)" fill="#aebdd3"/>
    </g>
  </g>
</svg>
