<?xml version="1.0" encoding="UTF-8"?>
<svg xmlns="http://www.w3.org/2000/svg" xmlns:xlink="http://www.w3.org/1999/xlink" width="24px" height="24px"
    viewBox="0 0 24 24" version="1.1">
    <g id="surface1">
        <path style=" stroke:none;fill-rule:nonzero;fill:#808080;fill-opacity:1;"
            d="M 2.789062 1.710938 L 1.710938 2.789062 L 21.210938 22.289062 L 22.289062 21.210938 L 16.3125 15.234375 C 16.492188 14.421875 16.554688 13.582031 16.40625 12.75 L 22.078125 8.601562 L 15.398438 1.921875 L 11.25 7.59375 C 10.417969 7.445312 9.574219 7.511719 8.765625 7.6875 Z M 15.585938 4.21875 L 19.78125 8.414062 L 14.695312 12.140625 L 14.835938 12.632812 C 14.949219 13.058594 15.003906 13.492188 15 13.921875 L 10.078125 9 C 10.507812 8.996094 10.941406 9.050781 11.367188 9.164062 L 11.859375 9.304688 Z M 6.164062 8.882812 C 5.972656 9.035156 5.800781 9.203125 5.625 9.375 L 5.085938 9.890625 L 9.070312 13.875 L 3 19.945312 L 3 21 L 4.054688 21 L 10.125 14.929688 L 14.109375 18.914062 L 14.625 18.375 C 14.796875 18.203125 14.96875 18.027344 15.117188 17.835938 Z M 6.164062 8.882812 " />
    </g>
</svg>